<?xml version="1.0" encoding="utf-8"?>
<!-- Generator: Adobe Illustrator 27.9.0, SVG Export Plug-In . SVG Version: 6.00 Build 0)  -->
<svg version="1.1" id="Layer_1" xmlns="http://www.w3.org/2000/svg" xmlns:xlink="http://www.w3.org/1999/xlink" x="0px" y="0px"
	 viewBox="0 0 21 23.4" style="enable-background:new 0 0 21 23.4;" xml:space="preserve">
<style type="text/css">
	.st0{fill:#8735FF;}
</style>
<g>
	<path class="st0" d="M12.1,21l-1.2-1v-0.9c0.4,0.1,0.7,0,1-0.1c0.2-0.1,0.4-0.4,0.4-0.6l0,0l0,0v2.1l-1-0.6l1,0.9l0.3-0.2v-2.4
		c0.1,0.1,0.3,0.1,0.4,0.1v2l0.2-0.1v-4.6v-0.4l-0.2,0.2c-0.1,0.1-0.3,0.3-0.5,0.4c-0.1,0.1-0.4,0.1-0.6,0.1c-0.4,0-0.7-0.1-0.9-0.3
		c-0.1-0.1-0.3-0.3-0.4-0.5c-0.1-0.1-0.1-0.4-0.2-0.5c-0.1,0.2-0.1,0.3-0.2,0.5c-0.1,0.2-0.2,0.4-0.4,0.6c-0.2,0.2-0.5,0.3-0.9,0.3
		c-0.2,0-0.4-0.1-0.6-0.1c-0.2-0.1-0.4-0.2-0.5-0.4l-0.2-0.3v0.4v4.6l0.2,0.1v-2c0.1-0.1,0.3-0.1,0.4-0.1v2.4l0.3,0.2l1-0.9
		l-1.1,0.6v-2.1l0,0l0,0c0.1,0.1,0.2,0.4,0.4,0.6c0.2,0.1,0.5,0.2,1,0.1v1l-1.2,1l-0.9-0.5l-1-0.5l0.7,0.7l0.2,0.1l0.4,0.2l0.2,0.1
		l0.1,0.1l0.1,0.1l0.1-0.1l0.1-0.1L8.9,21l0.4-0.4l0.2-0.2L10,20l0.1-0.1l0.1,0.1l0.4,0.4l0.2,0.2l0.4,0.4l0.2,0.2l0.1,0.1l0.1,0.1
		l0.1-0.1l0.1-0.1l0.2-0.1l0.4-0.2l0.2-0.1l0.7-0.7l-1,0.5L12.1,21z M11.7,18.7c-0.1,0.1-0.4,0.2-0.7,0.1l0.9-0.4
		C11.9,18.5,11.8,18.6,11.7,18.7z M12.7,16.3v0.4l-0.3-0.1L12.7,16.3z M10.5,15.8l0.2,0.2l-0.2,0.2l-0.3-0.1L10.5,15.8z M8.1,16.3
		l0.3,0.3l-0.3,0.1V16.3z M7.8,17.9v-0.5C8.2,17.3,8.7,17.1,9,17c0.4-0.1,0.9-0.1,1.3-0.1c0.4,0,0.9,0.1,1.3,0.1
		c0.4,0.1,0.8,0.2,1.2,0.4v0.5c-0.4-0.1-0.7-0.3-1.2-0.4c-0.4-0.1-1-0.1-1.4-0.1c-0.5,0-1,0.1-1.4,0.1C8.6,17.6,8.2,17.8,7.8,17.9z
		 M9.1,18.7C9,18.6,9,18.5,8.9,18.5l0.9,0.4C9.6,18.8,9.3,18.8,9.1,18.7z M10.7,18.7L10.7,18.7v1.1l-0.2-0.2l-0.2,0.2v-1v-0.1h-0.1
		L8.6,18l0,0c0.1-0.1,0.4-0.1,0.5-0.1c0.4-0.1,0.9-0.1,1.3-0.1c0.4,0,0.9,0.1,1.3,0.1c0.1,0.1,0.4,0.1,0.5,0.1l0,0L10.7,18.7
		L10.7,18.7z"/>
	<path class="st0" d="M20.5,8.5c0-4.6-4.5-8.2-10.1-8.2C4.8,0.3,0.3,3.9,0.3,8.5c0,0.1,0.1,0.2,0.1,0.3l5.8,6.1l0,0l0,0
		c-0.1,0.2-0.3,0.5-0.4,0.7l0,0c-0.3,0.7-0.5,1.4-0.5,2.2c0,0.9,0.2,1.7,0.7,2.5l0,0C6,20.6,6,20.6,6.1,20.8
		c0.1,0.1,0.1,0.1,0.1,0.2c0,0.1,0.1,0.1,0.1,0.1c1,1.2,2.4,2,4,2c2.8,0,5.2-2.3,5.2-5.2c0-1.1-0.4-2.2-1-3.1l5.8-6.1
		C20.4,8.7,20.5,8.6,20.5,8.5z M7.8,8.3C8,7.8,9,7.4,10.4,7.4s2.3,0.4,2.6,0.9c0.1,0.1,0.1,0.2,0.1,0.4L11.7,13
		c-0.4-0.1-0.8-0.1-1.3-0.1S9.6,12.9,9.1,13L7.8,8.6C7.7,8.5,7.7,8.3,7.8,8.3z M1.5,8.7C1.3,8.5,1.3,8.1,1.6,8
		C2.1,7.7,2.9,7.4,4,7.4c1.6,0,2.6,0.6,2.8,1.1l1.5,4.9c-0.1,0-0.1,0.1-0.1,0.1c-0.1,0-0.1,0.1-0.2,0.1c-0.4,0.2-0.7,0.5-1.1,0.8
		L1.5,8.7z M15,18c0,1.5-0.7,2.8-1.7,3.6v-0.7l-0.2,0.1v0.7c-0.1,0.1-0.3,0.1-0.4,0.2v-0.7l-0.2,0.1v0.7c-0.1,0.1-0.3,0.1-0.4,0.1
		v-0.8l-0.3-0.1v1.1c-0.1,0.1-0.3,0.1-0.4,0.1v-1.6L11,20.7v1.9c-0.1,0-0.3,0-0.4,0v-2.2v-0.1l-0.1-0.1l-0.1,0.1v0.1v2.2
		c-0.1,0-0.3,0-0.4,0v-1.9l-0.2,0.2v1.6c-0.1,0-0.3-0.1-0.4-0.1v-1.1l-0.2,0.2v0.8c-0.1-0.1-0.3-0.1-0.4-0.1v-0.7l-0.2-0.1v0.7
		c-0.1-0.1-0.3-0.1-0.4-0.2v-0.7L7.5,21v0.7c-1-0.8-1.7-2.2-1.7-3.6c0-2.5,2-4.6,4.6-4.6S15,15.5,15,18z M19.2,8.7L14,14.3
		c-0.4-0.4-0.9-0.7-1.4-1l1.5-4.8c0.1-0.6,1-1.1,2.8-1.1c1.1,0,1.9,0.3,2.3,0.6C19.4,8.1,19.4,8.5,19.2,8.7z"/>
</g>
</svg>
