<?xml version="1.0" encoding="utf-8"?>
<!-- Generator: Adobe Illustrator 27.9.0, SVG Export Plug-In . SVG Version: 6.00 Build 0)  -->
<svg version="1.1" id="Layer_1" xmlns="http://www.w3.org/2000/svg" xmlns:xlink="http://www.w3.org/1999/xlink" x="0px" y="0px"
	 viewBox="0 0 59 44" style="enable-background:new 0 0 59 44;" xml:space="preserve">
<style type="text/css">
	.st0{fill:#8735FF;stroke:#8735FF;stroke-width:0.5;stroke-miterlimit:10;}
	.st1{fill:#FFFFFF;}
	.st2{fill:#FFFFFF;stroke:#8735FF;stroke-width:0.5;stroke-miterlimit:10;}
	.st3{fill:#8735FF;}
</style>
<path class="st0" d="M52.7,43.5H6.1c-2.9,0-5.3-2.4-5.3-5.3V6.2c0-2.9,2.4-5.3,5.3-5.3h46.5c2.9,0,5.3,2.4,5.3,5.3v31.9
	C58,41.1,55.6,43.5,52.7,43.5z"/>
<g>
	<g>
		<path class="st1" d="M31.6,34.6L30,33.2V32c0.6,0.2,1,0,1.3-0.2c0.3-0.2,0.5-0.6,0.6-0.8v0l0,0v2.8L30.5,33l1.4,1.2l0.4-0.3v-3.2
			c0.2,0.1,0.4,0.1,0.6,0.2v2.7l0.3-0.2v-6.2v-0.5L32.9,27c-0.2,0.2-0.4,0.4-0.7,0.5c-0.2,0.1-0.5,0.2-0.8,0.2
			c-0.5,0-0.9-0.2-1.2-0.4c-0.2-0.2-0.4-0.4-0.6-0.7c-0.1-0.2-0.2-0.5-0.3-0.7c-0.1,0.3-0.2,0.4-0.3,0.7c-0.1,0.3-0.3,0.6-0.6,0.8
			c-0.3,0.3-0.7,0.4-1.2,0.4c-0.3,0-0.6-0.1-0.8-0.2c-0.3-0.1-0.5-0.3-0.7-0.5l-0.3-0.4v0.5v6.2l0.3,0.2v-2.7
			c0.2-0.1,0.4-0.2,0.6-0.2v3.2l0.4,0.3l1.4-1.2l-1.5,0.8v-2.8l0,0v0c0.1,0.2,0.3,0.6,0.6,0.8c0.3,0.2,0.7,0.3,1.3,0.2v1.3l-1.6,1.4
			l-1.2-0.7l-1.3-0.7l0.9,0.9l0.3,0.2l0.6,0.3l0.3,0.2l0.2,0.1l0.1,0.1l0.1-0.1l0.1-0.1l0.3-0.3l0.6-0.5l0.3-0.3l0.6-0.5l0.2-0.1
			l0.2,0.1l0.6,0.5l0.3,0.3l0.6,0.5l0.3,0.3l0.1,0.1l0.1,0.1l0.1-0.1l0.2-0.1l0.3-0.2l0.6-0.3l0.3-0.2l0.9-0.9l-1.3,0.7L31.6,34.6z
			 M31.1,31.5c-0.2,0.2-0.5,0.3-0.9,0.1l1.2-0.5C31.3,31.3,31.2,31.4,31.1,31.5z M32.4,28.3v0.6L32,28.7L32.4,28.3z M29.4,27.7
			l0.3,0.3l-0.3,0.3L29,28.1L29.4,27.7z M26.3,28.3l0.4,0.4l-0.4,0.1V28.3z M25.9,30.5v-0.7c0.5-0.2,1.1-0.4,1.6-0.5
			c0.6-0.1,1.2-0.2,1.8-0.2c0.6,0,1.2,0.1,1.8,0.2c0.6,0.1,1.1,0.3,1.6,0.5v0.7c-0.5-0.2-1-0.4-1.6-0.5c-0.6-0.1-1.3-0.2-1.9-0.2
			c-0.7,0-1.3,0.1-1.9,0.2C26.9,30.1,26.4,30.3,25.9,30.5z M27.6,31.5c-0.1-0.1-0.2-0.2-0.3-0.3l1.2,0.5
			C28.2,31.7,27.9,31.7,27.6,31.5z M29.7,31.5v0.1v1.4l-0.3-0.3l-0.3,0.3v-1.4v-0.1l-0.1,0l-2.1-0.9v0c0.2-0.1,0.5-0.1,0.7-0.2
			c0.6-0.1,1.2-0.2,1.8-0.2c0.6,0,1.2,0.1,1.8,0.2c0.2,0.1,0.5,0.1,0.7,0.2v0l-2.1,0.9L29.7,31.5z"/>
	</g>
	<g>
		<path class="st1" d="M42.8,17.9c0-6.1-6-11-13.5-11c-7.4,0-13.5,4.9-13.5,11c0,0.1,0.1,0.3,0.2,0.4l7.7,8.2c0,0,0,0,0,0h0
			c-0.2,0.3-0.4,0.7-0.6,1l0,0c-0.4,0.9-0.7,1.9-0.7,3c0,1.2,0.3,2.3,0.9,3.3c0,0,0,0,0,0c0.1,0.2,0.2,0.3,0.3,0.5
			c0.1,0.1,0.1,0.2,0.2,0.3c0,0.1,0.1,0.1,0.1,0.2c1.3,1.6,3.2,2.7,5.4,2.7c3.8,0,6.9-3.1,6.9-6.9c0-1.5-0.5-2.9-1.3-4.1l7.7-8.2
			C42.7,18.2,42.8,18,42.8,17.9z M25.8,17.6c0.3-0.6,1.6-1.2,3.5-1.2c1.9,0,3.1,0.6,3.5,1.2c0.1,0.1,0.1,0.3,0.1,0.5l-1.8,5.8
			c-0.5-0.1-1.1-0.2-1.7-0.2c-0.6,0-1.2,0.1-1.8,0.2L25.8,18C25.7,17.9,25.7,17.7,25.8,17.6z M17.5,18.2c-0.3-0.3-0.3-0.8,0.1-1
			c0.6-0.4,1.7-0.8,3.2-0.8c2.2,0,3.5,0.8,3.7,1.5l2,6.5c-0.1,0-0.1,0.1-0.1,0.1c-0.1,0-0.2,0.1-0.3,0.1c-0.5,0.3-1,0.7-1.5,1.1
			L17.5,18.2z M35.5,30.6c0,2-0.9,3.7-2.3,4.8v-0.9l-0.3,0.2v0.9c-0.2,0.1-0.4,0.2-0.6,0.3v-1l-0.3,0.2v0.9
			c-0.2,0.1-0.4,0.2-0.6,0.2v-1.1L31,35v1.5c-0.2,0.1-0.4,0.1-0.6,0.1v-2.1l-0.3-0.3v2.5c-0.2,0-0.4,0-0.6,0v-2.9v-0.1l-0.2-0.1
			l-0.2,0.1v0.1v2.9c-0.2,0-0.4,0-0.6,0v-2.5l-0.3,0.3v2.1c-0.2,0-0.4-0.1-0.6-0.1V35l-0.3,0.3v1.1c-0.2-0.1-0.4-0.1-0.6-0.2v-0.9
			l-0.3-0.2V36c-0.2-0.1-0.4-0.2-0.6-0.3v-0.9l-0.3-0.2v0.9c-1.4-1.1-2.3-2.9-2.3-4.8c0-3.4,2.7-6.1,6.1-6.1S35.5,27.2,35.5,30.6z
			 M41.1,18.2l-6.9,7.4c-0.6-0.5-1.2-1-1.9-1.3l2-6.4c0.2-0.8,1.4-1.5,3.7-1.5c1.5,0,2.5,0.4,3.1,0.8C41.3,17.4,41.3,17.9,41.1,18.2
			z"/>
	</g>
</g>
<path class="st2" d="M302.7,144.5h-46.5c-2.9,0-5.3-2.4-5.3-5.3v-31.9c0-2.9,2.4-5.3,5.3-5.3h46.5c2.9,0,5.3,2.4,5.3,5.3v31.9
	C308,142.1,305.6,144.5,302.7,144.5z"/>
<g>
	<path class="st3" d="M281.6,135.6l-1.6-1.4V133c0.6,0.2,1,0,1.3-0.2c0.3-0.2,0.5-0.6,0.6-0.8v0l0,0v2.8l-1.5-0.8l1.4,1.2l0.4-0.3
		v-3.2c0.2,0.1,0.4,0.1,0.6,0.2v2.7l0.3-0.2v-6.2v-0.5l-0.3,0.4c-0.2,0.2-0.4,0.4-0.7,0.5c-0.2,0.1-0.5,0.2-0.8,0.2
		c-0.5,0-0.9-0.2-1.2-0.4c-0.2-0.2-0.4-0.4-0.6-0.7c-0.1-0.2-0.2-0.5-0.3-0.7c-0.1,0.3-0.2,0.4-0.3,0.7c-0.1,0.3-0.3,0.6-0.6,0.8
		c-0.3,0.3-0.7,0.4-1.2,0.4c-0.3,0-0.6-0.1-0.8-0.2c-0.3-0.1-0.5-0.3-0.7-0.5l-0.3-0.4v0.5v6.2l0.3,0.2v-2.7
		c0.2-0.1,0.4-0.2,0.6-0.2v3.2l0.4,0.3l1.4-1.2l-1.5,0.8v-2.8l0,0v0c0.1,0.2,0.3,0.6,0.6,0.8c0.3,0.2,0.7,0.3,1.3,0.2v1.3l-1.6,1.4
		l-1.2-0.7l-1.3-0.7l0.9,0.9l0.3,0.2l0.6,0.3l0.3,0.2l0.2,0.1l0.1,0.1l0.1-0.1l0.1-0.1l0.3-0.3l0.6-0.5l0.3-0.3l0.6-0.5l0.2-0.1
		l0.2,0.1l0.6,0.5l0.3,0.3l0.6,0.5l0.3,0.3l0.1,0.1l0.1,0.1l0.1-0.1l0.2-0.1l0.3-0.2l0.6-0.3l0.3-0.2l0.9-0.9l-1.3,0.7L281.6,135.6z
		 M281.1,132.5c-0.2,0.2-0.5,0.3-0.9,0.1l1.2-0.5C281.3,132.3,281.2,132.4,281.1,132.5z M282.4,129.3v0.6l-0.4-0.1L282.4,129.3z
		 M279.4,128.7l0.3,0.3l-0.3,0.3l-0.3-0.3L279.4,128.7z M276.3,129.3l0.4,0.4l-0.4,0.1V129.3z M275.9,131.5v-0.7
		c0.5-0.2,1.1-0.4,1.6-0.5c0.6-0.1,1.2-0.2,1.8-0.2s1.2,0.1,1.8,0.2c0.6,0.1,1.1,0.3,1.6,0.5v0.7c-0.5-0.2-1-0.4-1.6-0.5
		c-0.6-0.1-1.3-0.2-1.9-0.2s-1.3,0.1-1.9,0.2C276.9,131.1,276.4,131.3,275.9,131.5z M277.6,132.5c-0.1-0.1-0.2-0.2-0.3-0.3l1.2,0.5
		C278.2,132.7,277.9,132.7,277.6,132.5z M279.7,132.5v0.1v1.4l-0.3-0.3l-0.3,0.3v-1.4v-0.1l-0.1,0l-2.1-0.9v0
		c0.2-0.1,0.5-0.1,0.7-0.2c0.6-0.1,1.2-0.2,1.8-0.2c0.6,0,1.2,0.1,1.8,0.2c0.2,0.1,0.5,0.1,0.7,0.2v0l-2.1,0.9L279.7,132.5z"/>
	<path class="st3" d="M292.8,118.9c0-6.1-6-11-13.5-11s-13.5,4.9-13.5,11c0,0.1,0.1,0.3,0.2,0.4l7.7,8.2c0,0,0,0,0,0h0
		c-0.2,0.3-0.4,0.7-0.6,1l0,0c-0.4,0.9-0.7,1.9-0.7,3c0,1.2,0.3,2.3,0.9,3.3c0,0,0,0,0,0c0.1,0.2,0.2,0.3,0.3,0.5
		c0.1,0.1,0.1,0.2,0.2,0.3c0,0.1,0.1,0.1,0.1,0.2c1.3,1.6,3.2,2.7,5.4,2.7c3.8,0,6.9-3.1,6.9-6.9c0-1.5-0.5-2.9-1.3-4.1l7.7-8.2
		C292.7,119.2,292.8,119,292.8,118.9z M275.8,118.6c0.3-0.6,1.6-1.2,3.5-1.2c1.9,0,3.1,0.6,3.5,1.2c0.1,0.1,0.1,0.3,0.1,0.5
		l-1.8,5.8c-0.5-0.1-1.1-0.2-1.7-0.2c-0.6,0-1.2,0.1-1.8,0.2l-1.8-5.9C275.7,118.9,275.7,118.7,275.8,118.6z M267.5,119.2
		c-0.3-0.3-0.3-0.8,0.1-1c0.6-0.4,1.7-0.8,3.2-0.8c2.2,0,3.5,0.8,3.7,1.5l2,6.5c-0.1,0-0.1,0.1-0.1,0.1c-0.1,0-0.2,0.1-0.3,0.1
		c-0.5,0.3-1,0.7-1.5,1.1L267.5,119.2z M285.5,131.6c0,2-0.9,3.7-2.3,4.8v-0.9l-0.3,0.2v0.9c-0.2,0.1-0.4,0.2-0.6,0.3v-1l-0.3,0.2
		v0.9c-0.2,0.1-0.4,0.2-0.6,0.2v-1.1L281,136v1.5c-0.2,0.1-0.4,0.1-0.6,0.1v-2.1l-0.3-0.3v2.5c-0.2,0-0.4,0-0.6,0v-2.9v-0.1
		l-0.2-0.1l-0.2,0.1v0.1v2.9c-0.2,0-0.4,0-0.6,0v-2.5l-0.3,0.3v2.1c-0.2,0-0.4-0.1-0.6-0.1V136l-0.3,0.3v1.1
		c-0.2-0.1-0.4-0.1-0.6-0.2v-0.9l-0.3-0.2v0.9c-0.2-0.1-0.4-0.2-0.6-0.3v-0.9l-0.3-0.2v0.9c-1.4-1.1-2.3-2.9-2.3-4.8
		c0-3.4,2.7-6.1,6.1-6.1C282.8,125.5,285.5,128.2,285.5,131.6z M291.1,119.2l-6.9,7.4c-0.6-0.5-1.2-1-1.9-1.3l2-6.4
		c0.2-0.8,1.4-1.5,3.7-1.5c1.5,0,2.5,0.4,3.1,0.8C291.3,118.4,291.3,118.9,291.1,119.2z"/>
</g>
<path class="st3" d="M521.7,144.5h-46.5c-2.9,0-5.3-2.4-5.3-5.3v-31.9c0-2.9,2.4-5.3,5.3-5.3h46.5c2.9,0,5.3,2.4,5.3,5.3v31.9
	C527,142.1,524.6,144.5,521.7,144.5z"/>
<g>
	<path class="st1" d="M500.6,135.6l-1.6-1.4V133c0.6,0.2,1,0,1.3-0.2c0.3-0.2,0.5-0.6,0.6-0.8v0l0,0v2.8l-1.5-0.8l1.4,1.2l0.4-0.3
		v-3.2c0.2,0.1,0.4,0.1,0.6,0.2v2.7l0.3-0.2v-6.2v-0.5l-0.3,0.4c-0.2,0.2-0.4,0.4-0.7,0.5c-0.2,0.1-0.5,0.2-0.8,0.2
		c-0.5,0-0.9-0.2-1.2-0.4c-0.2-0.2-0.4-0.4-0.6-0.7c-0.1-0.2-0.2-0.5-0.3-0.7c-0.1,0.3-0.2,0.4-0.3,0.7c-0.1,0.3-0.3,0.6-0.6,0.8
		c-0.3,0.3-0.7,0.4-1.2,0.4c-0.3,0-0.6-0.1-0.8-0.2c-0.3-0.1-0.5-0.3-0.7-0.5l-0.3-0.4v0.5v6.2l0.3,0.2v-2.7
		c0.2-0.1,0.4-0.2,0.6-0.2v3.2l0.4,0.3l1.4-1.2l-1.5,0.8v-2.8l0,0v0c0.1,0.2,0.3,0.6,0.6,0.8c0.3,0.2,0.7,0.3,1.3,0.2v1.3l-1.6,1.4
		l-1.2-0.7l-1.3-0.7l0.9,0.9l0.3,0.2l0.6,0.3l0.3,0.2l0.2,0.1l0.1,0.1l0.1-0.1l0.1-0.1l0.3-0.3l0.6-0.5l0.3-0.3l0.6-0.5l0.2-0.1
		l0.2,0.1l0.6,0.5l0.3,0.3l0.6,0.5l0.3,0.3l0.1,0.1l0.1,0.1l0.1-0.1l0.2-0.1l0.3-0.2l0.6-0.3l0.3-0.2l0.9-0.9l-1.3,0.7L500.6,135.6z
		 M500.1,132.5c-0.2,0.2-0.5,0.3-0.9,0.1l1.2-0.5C500.3,132.3,500.2,132.4,500.1,132.5z M501.4,129.3v0.6l-0.4-0.1L501.4,129.3z
		 M498.4,128.7l0.3,0.3l-0.3,0.3l-0.3-0.3L498.4,128.7z M495.3,129.3l0.4,0.4l-0.4,0.1V129.3z M494.9,131.5v-0.7
		c0.5-0.2,1.1-0.4,1.6-0.5c0.6-0.1,1.2-0.2,1.8-0.2s1.2,0.1,1.8,0.2c0.6,0.1,1.1,0.3,1.6,0.5v0.7c-0.5-0.2-1-0.4-1.6-0.5
		c-0.6-0.1-1.3-0.2-1.9-0.2s-1.3,0.1-1.9,0.2C495.9,131.1,495.4,131.3,494.9,131.5z M496.6,132.5c-0.1-0.1-0.2-0.2-0.3-0.3l1.2,0.5
		C497.2,132.7,496.9,132.7,496.6,132.5z M498.7,132.5v0.1v1.4l-0.3-0.3l-0.3,0.3v-1.4v-0.1l-0.1,0l-2.1-0.9v0
		c0.2-0.1,0.5-0.1,0.7-0.2c0.6-0.1,1.2-0.2,1.8-0.2c0.6,0,1.2,0.1,1.8,0.2c0.2,0.1,0.5,0.1,0.7,0.2v0l-2.1,0.9L498.7,132.5z"/>
	<path class="st1" d="M511.8,118.9c0-6.1-6-11-13.5-11s-13.5,4.9-13.5,11c0,0.1,0.1,0.3,0.2,0.4l7.7,8.2c0,0,0,0,0,0h0
		c-0.2,0.3-0.4,0.7-0.6,1l0,0c-0.4,0.9-0.7,1.9-0.7,3c0,1.2,0.3,2.3,0.9,3.3c0,0,0,0,0,0c0.1,0.2,0.2,0.3,0.3,0.5
		c0.1,0.1,0.1,0.2,0.2,0.3c0,0.1,0.1,0.1,0.1,0.2c1.3,1.6,3.2,2.7,5.4,2.7c3.8,0,6.9-3.1,6.9-6.9c0-1.5-0.5-2.9-1.3-4.1l7.7-8.2
		C511.7,119.2,511.8,119,511.8,118.9z M494.8,118.6c0.3-0.6,1.6-1.2,3.5-1.2c1.9,0,3.1,0.6,3.5,1.2c0.1,0.1,0.1,0.3,0.1,0.5
		l-1.8,5.8c-0.5-0.1-1.1-0.2-1.7-0.2c-0.6,0-1.2,0.1-1.8,0.2l-1.8-5.9C494.7,118.9,494.7,118.7,494.8,118.6z M486.5,119.2
		c-0.3-0.3-0.3-0.8,0.1-1c0.6-0.4,1.7-0.8,3.2-0.8c2.2,0,3.5,0.8,3.7,1.5l2,6.5c-0.1,0-0.1,0.1-0.1,0.1c-0.1,0-0.2,0.1-0.3,0.1
		c-0.5,0.3-1,0.7-1.5,1.1L486.5,119.2z M504.5,131.6c0,2-0.9,3.7-2.3,4.8v-0.9l-0.3,0.2v0.9c-0.2,0.1-0.4,0.2-0.6,0.3v-1l-0.3,0.2
		v0.9c-0.2,0.1-0.4,0.2-0.6,0.2v-1.1L500,136v1.5c-0.2,0.1-0.4,0.1-0.6,0.1v-2.1l-0.3-0.3v2.5c-0.2,0-0.4,0-0.6,0v-2.9v-0.1
		l-0.2-0.1l-0.2,0.1v0.1v2.9c-0.2,0-0.4,0-0.6,0v-2.5l-0.3,0.3v2.1c-0.2,0-0.4-0.1-0.6-0.1V136l-0.3,0.3v1.1
		c-0.2-0.1-0.4-0.1-0.6-0.2v-0.9l-0.3-0.2v0.9c-0.2-0.1-0.4-0.2-0.6-0.3v-0.9l-0.3-0.2v0.9c-1.4-1.1-2.3-2.9-2.3-4.8
		c0-3.4,2.7-6.1,6.1-6.1C501.8,125.5,504.5,128.2,504.5,131.6z M510.1,119.2l-6.9,7.4c-0.6-0.5-1.2-1-1.9-1.3l2-6.4
		c0.2-0.8,1.4-1.5,3.7-1.5c1.5,0,2.5,0.4,3.1,0.8C510.3,118.4,510.3,118.9,510.1,119.2z"/>
</g>
</svg>
