<?xml version="1.0" encoding="utf-8"?>
<!-- Generator: Adobe Illustrator 27.9.0, SVG Export Plug-In . SVG Version: 6.00 Build 0)  -->
<svg version="1.1" id="Layer_1" xmlns="http://www.w3.org/2000/svg" xmlns:xlink="http://www.w3.org/1999/xlink" x="0px" y="0px"
	 viewBox="0 0 158 29" style="enable-background:new 0 0 158 29;" xml:space="preserve">
<style type="text/css">
	.st0{fill:#8735FF;}
	.st1{fill:#00FF33;}
	.st2{opacity:0.15;fill:#8735FF;}
</style>
<g>
	<g>
		<path class="st0" d="M147.9,12c0.1-0.2-0.2-0.5-0.4-0.3l-10.5,8c-0.1,0.1-0.1,0.2-0.1,0.3l2.9,5.1c0.1,0.2,0.3,0.2,0.4,0l4.7-8.2
			L147.9,12z"/>
		<path class="st0" d="M138.4,8.3h-7.8c-0.2,0-0.3,0.2-0.2,0.4l4.7,8.2h0c0.1,0.2,0.4,0.2,0.5,0l3-8.2
			C138.7,8.5,138.6,8.3,138.4,8.3z"/>
		<path class="st0" d="M140.1,6.4h10.9c-2.4-3.4-6.4-5.6-10.9-5.6c-4.5,0-8.5,2.2-10.9,5.6H140.1z"/>
		<path class="st0" d="M152.2,8.3l-5.5,9.5l-5.6,9.8c7-0.5,12.5-6.3,12.5-13.4C153.6,12.1,153.1,10.1,152.2,8.3z"/>
		<path class="st0" d="M133.5,17.8l-5.5-9.5c-0.9,1.8-1.4,3.8-1.4,5.9c0,7.1,5.5,12.9,12.5,13.4L133.5,17.8z"/>
		<path class="st0" d="M148.1,8.3h-7.2c-0.1,0-0.2,0.1-0.2,0.2l-2.8,7.6c-0.1,0.2,0.2,0.4,0.4,0.3l9.9-7.6
			C148.5,8.6,148.4,8.3,148.1,8.3z"/>
	</g>
	<circle class="st1" cx="151.5" cy="8" r="5.5"/>
</g>
<path class="st2" d="M15.1,0.9C7.8,0.9,1.8,6.8,1.8,14.2c0,7.3,5.9,13.3,13.3,13.3s13.3-5.9,13.3-13.3C28.4,6.8,22.4,0.9,15.1,0.9z
	 M22.8,9.6v2l-1.7,1v-2l-1.7-1l1.7-1L22.8,9.6z M15.1,5.1l4.7,2.8l-1.7,1l-3-1.8l-3,1.8l-1.7-1L15.1,5.1z M16.8,9.6l-1.7,1l-1.7-1
	l1.7-1L16.8,9.6z M7.4,9.6l1.7-1l1.7,1l-1.7,1v2l-1.7-1V9.6z M12.1,21.5l-4.7-2.8v-5.6l1.7,1l0,3.5l3,1.8V21.5z M12.1,18l-1.7-1
	v-2.1l1.7,1V18z M16.8,22.2l-1.7,1l-1.7-1v-2l1.7,1l1.7-1V22.2z M16.8,18.7l-1.7,1l-1.7-1v-3.5l-3-1.8v-2.1l1.7-1l3,1.8l3-1.8l1.7,1
	h0l0,2.1l-3,1.8V18.7z M18.1,15.9l1.7-1V17l-1.7,1V15.9z M22.8,18.7l-4.7,2.8v-2.1l3-1.8l0-3.5l1.7-1V18.7z"/>
<path class="st2" d="M56.4,0.9c-7.3,0-13.3,5.9-13.3,13.3c0,7.3,5.9,13.3,13.3,13.3s13.3-5.9,13.3-13.3C69.6,6.8,63.7,0.9,56.4,0.9z
	 M64.8,18l-2.7,2.7c-0.1,0.1-0.2,0.2-0.4,0.2H48.1c-0.2,0-0.4-0.3-0.2-0.5l2.7-2.7c0.1-0.1,0.2-0.2,0.4-0.2h13.6
	C64.9,17.5,65,17.8,64.8,18z M64.6,15.8H51c-0.2,0-0.3-0.1-0.4-0.2l-2.7-2.7c-0.2-0.2-0.1-0.5,0.2-0.5h13.6c0.2,0,0.3,0.1,0.4,0.2
	l2.7,2.7C65,15.5,64.9,15.8,64.6,15.8z M64.8,8l-2.7,2.7c-0.1,0.1-0.2,0.2-0.4,0.2H48.1c-0.2,0-0.4-0.3-0.2-0.5l2.7-2.7
	c0.1-0.1,0.2-0.2,0.4-0.2h13.6C64.9,7.5,65,7.8,64.8,8z"/>
<path class="st2" d="M97.6,0.9c-7.3,0-13.3,5.9-13.3,13.3c0,7.3,5.9,13.3,13.3,13.3s13.3-5.9,13.3-13.3C110.9,6.8,105,0.9,97.6,0.9z
	 M97.6,3.6l6.5,10.8l-6.5,3.8l-6.5-3.8L97.6,3.6z M97.6,24.8l-6.5-9.2l6.5,3.8l6.5-3.8L97.6,24.8z"/>
</svg>
