<?xml version="1.0" encoding="utf-8"?>
<!-- Generator: Adobe Illustrator 27.9.0, SVG Export Plug-In . SVG Version: 6.00 Build 0)  -->
<svg version="1.1" id="Layer_1" xmlns="http://www.w3.org/2000/svg" xmlns:xlink="http://www.w3.org/1999/xlink" x="0px" y="0px"
	 viewBox="0 0 59 44" style="enable-background:new 0 0 59 44;" xml:space="preserve">
<style type="text/css">
	.st0{fill:#8735FF;stroke:#8735FF;stroke-width:0.5;stroke-miterlimit:10;}
	.st1{fill:#FFFFFF;}
</style>
<path class="st0" d="M53.2,43.3H6.7c-2.9,0-5.3-2.4-5.3-5.3V6.1c0-2.9,2.4-5.3,5.3-5.3h46.5c2.9,0,5.3,2.4,5.3,5.3V38
	C58.6,40.9,56.2,43.3,53.2,43.3z"/>
<g>
	<rect x="18.7" y="11.8" class="st1" width="5.7" height="5.7"/>
	<rect x="27.1" y="11.8" class="st1" width="5.7" height="5.7"/>
	<rect x="35.5" y="11.8" class="st1" width="5.7" height="5.7"/>
	<rect x="18.7" y="19.6" class="st1" width="5.7" height="5.7"/>
	<rect x="27.1" y="19.6" class="st1" width="5.7" height="5.7"/>
	<rect x="35.5" y="19.6" class="st1" width="5.7" height="5.7"/>
	<rect x="18.7" y="27.4" class="st1" width="5.7" height="5.7"/>
	<rect x="27.1" y="27.4" class="st1" width="5.7" height="5.7"/>
	<rect x="35.5" y="27.4" class="st1" width="5.7" height="5.7"/>
</g>
</svg>
