<?xml version="1.0" encoding="utf-8"?>
<!-- Generator: Adobe Illustrator 27.9.0, SVG Export Plug-In . SVG Version: 6.00 Build 0)  -->
<svg version="1.1" baseProfile="tiny" id="Layer_1" xmlns="http://www.w3.org/2000/svg" xmlns:xlink="http://www.w3.org/1999/xlink"
	 x="0px" y="0px" viewBox="0 0 39 31" overflow="visible" xml:space="preserve">
<g>
	<path fill="#8735FF" d="M32.4,3.4c-2.4-1.1-5-2-7.7-2.4c-0.3,0.6-0.7,1.4-1,2.1c-2.9-0.4-5.7-0.4-8.6,0c-0.3-0.6-0.7-1.5-1-2.1
		c-2.7,0.5-5.3,1.3-7.7,2.4c-5,7.4-6.3,14.6-5.7,21.7C4,27.6,7.1,29,10.2,30c0.8-1.1,1.4-2.2,2-3.3c-1.1-0.4-2.2-0.9-3.2-1.6
		c0.3-0.2,0.5-0.4,0.8-0.6c6.2,2.9,12.9,2.9,19,0c0.3,0.2,0.5,0.4,0.8,0.6c-1,0.6-2.1,1.1-3.2,1.6c0.6,1.2,1.3,2.3,2,3.3
		c3.1-1,6.2-2.4,9.5-4.9C38.7,16.9,36.6,9.7,32.4,3.4z M13.1,20.8c-1.9,0-3.4-1.7-3.4-3.8s1.5-3.8,3.4-3.8s3.4,1.7,3.4,3.8
		C16.5,19,15,20.8,13.1,20.8z M25.6,20.8c-1.9,0-3.4-1.7-3.4-3.8s1.5-3.8,3.4-3.8S29,14.9,29,17C28.9,19,27.5,20.8,25.6,20.8z"/>
</g>
</svg>
