<?xml version="1.0" encoding="utf-8"?>
<!-- Generator: Adobe Illustrator 27.9.0, SVG Export Plug-In . SVG Version: 6.00 Build 0)  -->
<svg version="1.1" baseProfile="tiny" id="Layer_1" xmlns="http://www.w3.org/2000/svg" xmlns:xlink="http://www.w3.org/1999/xlink"
	 x="0px" y="0px" viewBox="0 0 33 33" overflow="visible" xml:space="preserve">
<g>
	<path fill="#8735FF" d="M1.9,14l2.4-2.7c0.1-0.1,0.2-0.2,0.3-0.4l0,0l0,0c0.8-0.9,2-1.5,3.2-1.7L8.7,8l0,0c0.5-0.7,1.4-1.2,2.4-1.2
		c1.6,0,3,1.3,3,3c0,0.2,0,0.5-0.1,0.7l-0.2,1.1c0.2,0.3,0.4,0.5,0.5,0.8c0.3-0.7,1-1.2,1.8-1.2c0.8,0,1.5,0.5,1.8,1.2
		c0.1-0.3,0.3-0.6,0.5-0.8L18,10.4l0,0c0-0.2,0-0.4,0-0.6c0-1.6,1.3-3,3-3c1,0,1.8,0.5,2.4,1.2l0,0l0.9,1.1c1.4,0.3,2.7,1,3.6,2.1
		l0,0l2.4,2.7l0,0c0.7,0.8,1.2,1.7,1.4,2.8c0-0.2,0-0.4,0-0.7c0-8.6-7-15.6-15.6-15.6S0.5,7.4,0.5,16c0,0.2,0,0.4,0,0.7
		C0.7,15.7,1.2,14.8,1.9,14L1.9,14z"/>
	<path fill="#8735FF" d="M24.9,24c3.1,0,5.5-2.5,5.5-5.5S27.9,13,24.9,13s-5.5,2.5-5.5,5.5S21.8,24,24.9,24z M24.8,22.4l-1.1-1.8
		v-0.1l3.8-2.9c0.1-0.1,0.2,0,0.1,0.1l-1,1.8l-1.7,3C24.9,22.5,24.8,22.5,24.8,22.4z M24.3,16.5l-1.1,3c0,0.1-0.1,0.1-0.2,0l0,0
		l-1.7-3c0-0.1,0-0.1,0.1-0.1h2.8C24.3,16.3,24.4,16.4,24.3,16.5z M25.1,16.4C25.1,16.4,25.1,16.3,25.1,16.4l2.7-0.1
		c0.1,0,0.1,0.1,0.1,0.2l-3.6,2.7c-0.1,0.1-0.2,0-0.1-0.1L25.1,16.4z M29.8,18.5c0,2.6-2,4.7-4.5,4.9l2-3.5l2-3.4
		C29.6,17,29.8,17.7,29.8,18.5z M24.9,13.6c1.6,0,3.1,0.8,4,2h-4h-4C21.8,14.4,23.2,13.6,24.9,13.6z M20.5,16.3l2,3.4l2,3.5
		C22,23.2,20,21,20,18.5C20,17.7,20.2,17,20.5,16.3z"/>
	<path fill="#8735FF" d="M7.1,24c3.1,0,5.5-2.5,5.5-5.5S10.1,13,7.1,13s-5.5,2.5-5.5,5.5S4.1,24,7.1,24z M7,22.4l-1-1.8v-0.1
		l3.8-2.9c0.1-0.1,0.2,0,0.1,0.1l-1,1.8l-1.7,3C7.1,22.5,7.1,22.5,7,22.4z M6.6,16.5l-1.1,3c0,0.1-0.1,0.1-0.2,0l0,0l-1.7-3
		c0-0.1,0-0.1,0.1-0.1h2.8C6.5,16.3,6.6,16.4,6.6,16.5z M7.3,16.4C7.3,16.4,7.4,16.3,7.3,16.4l2.7-0.1c0.1,0,0.1,0.1,0.1,0.2
		l-3.6,2.7c-0.1,0.1-0.2,0-0.1-0.1L7.3,16.4z M12,18.5c0,2.6-2,4.7-4.5,4.9l2-3.5l2-3.4C11.8,17,12,17.7,12,18.5z M7.1,13.6
		c1.6,0,3.1,0.8,4,2h-4h-4C4,14.4,5.5,13.6,7.1,13.6z M2.7,16.3l2,3.4l2,3.5c-2.5-0.2-4.5-2.3-4.5-4.9C2.2,17.7,2.4,17,2.7,16.3z"/>
	<path fill="#8735FF" d="M24.9,25.3c-3.4,0-6.2-2.4-6.8-5.6c-0.4,0.7-1.2,1.2-2.1,1.2s-1.7-0.5-2.1-1.2c-0.6,3.2-3.4,5.6-6.8,5.6
		c-2,0-3.7-0.8-5-2.1c2.6,5,7.8,8.5,13.9,8.5c6,0,11.3-3.4,13.9-8.5C28.6,24.5,26.8,25.3,24.9,25.3z"/>
	<path fill="#8735FF" d="M16,19.9c0.8,0,1.5-0.7,1.5-1.5S16.8,17,16,17s-1.5,0.7-1.5,1.5S15.2,19.9,16,19.9z"/>
</g>
</svg>
