<?xml version="1.0" encoding="utf-8"?>
<!-- Generator: Adobe Illustrator 27.9.0, SVG Export Plug-In . SVG Version: 6.00 Build 0)  -->
<svg version="1.1" id="Layer_1" xmlns="http://www.w3.org/2000/svg" xmlns:xlink="http://www.w3.org/1999/xlink" x="0px" y="0px"
	 viewBox="0 0 410 218" style="enable-background:new 0 0 410 218;" xml:space="preserve">
<style type="text/css">
	.st0{clip-path:url(#SVGID_00000093898273520693904970000016928328061413812659_);}
	.st1{clip-path:url(#SVGID_00000057146058616657608050000016416434801659047335_);}
	.st2{fill:none;stroke:url(#SVGID_00000007427561897132353640000010717007743255838901_);stroke-miterlimit:10;}
	.st3{fill:none;stroke:url(#SVGID_00000096032327123093576810000002701741505608618164_);stroke-miterlimit:10;}
	.st4{fill:none;stroke:url(#SVGID_00000123424777154278917570000014698525587041678767_);stroke-miterlimit:10;}
	.st5{fill:none;stroke:url(#SVGID_00000145761244363340857910000007057664649088233097_);stroke-miterlimit:10;}
	.st6{fill:none;stroke:url(#SVGID_00000036241569254650922130000004751193129768713899_);stroke-miterlimit:10;}
	.st7{fill:none;stroke:url(#SVGID_00000034800546765875194030000016469739342622907264_);stroke-miterlimit:10;}
	.st8{fill:none;stroke:url(#SVGID_00000163032941287703123290000016520996770754222250_);stroke-miterlimit:10;}
	.st9{fill:none;stroke:url(#SVGID_00000061467463082045174640000007793958410366637240_);stroke-miterlimit:10;}
	.st10{fill:none;stroke:url(#SVGID_00000090996275344981773530000015874819894151415175_);stroke-miterlimit:10;}
	.st11{fill:none;stroke:url(#SVGID_00000130641334795204273000000003505355078354128042_);stroke-miterlimit:10;}
	.st12{fill:none;stroke:url(#SVGID_00000062892015257421888970000016751409848273931194_);stroke-miterlimit:10;}
	.st13{fill:none;stroke:url(#SVGID_00000173141879566045050540000001193886447342769339_);stroke-miterlimit:10;}
	.st14{fill:none;stroke:url(#SVGID_00000144326660082286937290000012569143580830058169_);stroke-miterlimit:10;}
	.st15{fill:none;stroke:url(#SVGID_00000018936099045359184890000003401669397792594570_);stroke-miterlimit:10;}
	.st16{fill:none;stroke:url(#SVGID_00000173847552456969291160000017576178106161279618_);stroke-miterlimit:10;}
	.st17{fill:none;stroke:url(#SVGID_00000061430054130366752150000007777261242334840493_);stroke-miterlimit:10;}
	.st18{fill:none;stroke:url(#SVGID_00000146481273619272544790000009400118207994579637_);stroke-miterlimit:10;}
	.st19{fill:none;stroke:url(#SVGID_00000178897425573573650420000003170581773103692457_);stroke-miterlimit:10;}
	.st20{fill:none;stroke:url(#SVGID_00000086686079172388905360000011880396096584823174_);stroke-miterlimit:10;}
	.st21{fill:none;stroke:url(#SVGID_00000084524762910834619010000000919057653397987460_);stroke-miterlimit:10;}
	.st22{fill:none;stroke:url(#SVGID_00000115484245767475747500000016617488233417619358_);stroke-miterlimit:10;}
	.st23{fill:none;stroke:url(#SVGID_00000026142007771652958210000004930563773247068837_);stroke-miterlimit:10;}
	.st24{fill:none;stroke:url(#SVGID_00000140000722507312653970000012488398028507498922_);stroke-miterlimit:10;}
	.st25{fill:none;stroke:url(#SVGID_00000006666325797029853990000018336096711577295010_);stroke-miterlimit:10;}
	.st26{fill:none;stroke:url(#SVGID_00000027571918131179585040000004114944884292322183_);stroke-miterlimit:10;}
	.st27{fill:none;stroke:url(#SVGID_00000130637355442251122310000012997799006981398177_);stroke-miterlimit:10;}
	.st28{fill:none;stroke:url(#SVGID_00000139282783824409687440000017494221412702534030_);stroke-miterlimit:10;}
	.st29{fill:none;stroke:url(#SVGID_00000005951830131074353790000008282128129208273821_);stroke-miterlimit:10;}
	.st30{fill:none;stroke:url(#SVGID_00000014627158286704299240000001349874850460621499_);stroke-miterlimit:10;}
	.st31{fill:none;stroke:url(#SVGID_00000090983770454988817670000011161175130220115636_);stroke-miterlimit:10;}
	.st32{fill:#FFFFFF;}
</style>
<g>
	<defs>
		<path id="SVGID_1_" d="M402,216.3H8.2c-3.7,0-6.6-3-6.6-6.6V9.9c0-3.7,3-6.6,6.6-6.6H402c3.7,0,6.6,3,6.6,6.6v199.8
			C408.7,213.4,405.7,216.3,402,216.3z"/>
	</defs>
	<use xlink:href="#SVGID_1_"  style="overflow:visible;"/>
	<clipPath id="SVGID_00000017506196011133304410000001377597820797082038_">
		<use xlink:href="#SVGID_1_"  style="overflow:visible;"/>
	</clipPath>
	<g style="clip-path:url(#SVGID_00000017506196011133304410000001377597820797082038_);">
		<defs>
			
				<rect id="SVGID_00000082332293569699955230000003972763813099660710_" x="162.4" y="112.7" transform="matrix(-1.493080e-15 -1 1 -1.493080e-15 233.9015 696.4555)" width="605.6" height="237.2"/>
		</defs>
		<clipPath id="SVGID_00000132773214825342665300000005771207183006659252_">
			<use xlink:href="#SVGID_00000082332293569699955230000003972763813099660710_"  style="overflow:visible;"/>
		</clipPath>
		<g style="clip-path:url(#SVGID_00000132773214825342665300000005771207183006659252_);">
			<g>
				
					<radialGradient id="SVGID_00000024707366158579636870000005859479468030307976_" cx="994.0733" cy="-184.6691" r="41.0286" gradientTransform="matrix(0 -1 1 0 688.654 993.2018)" gradientUnits="userSpaceOnUse">
					<stop  offset="0" style="stop-color:#E933F6"/>
					<stop  offset="1" style="stop-color:#75FAFC"/>
				</radialGradient>
				<path style="fill:none;stroke:url(#SVGID_00000024707366158579636870000005859479468030307976_);stroke-miterlimit:10;" d="
					M498.2-52.6c-0.5-1.9-3.2-1.7-3.5,0.2l-12.5,91.9c-0.1,0.9,0.4,1.7,1.3,2l39.9,10.7c1.3,0.4,2.5-0.9,2.2-2.2l-17.3-64.6
					L498.2-52.6z"/>
				
					<radialGradient id="SVGID_00000169559677634348460870000007097197375241528467_" cx="987.9949" cy="-261.4289" r="32.4621" gradientTransform="matrix(0 -1 1 0 688.654 993.2018)" gradientUnits="userSpaceOnUse">
					<stop  offset="0" style="stop-color:#E933F6"/>
					<stop  offset="1" style="stop-color:#75FAFC"/>
				</radialGradient>
				<path style="fill:none;stroke:url(#SVGID_00000169559677634348460870000007097197375241528467_);stroke-miterlimit:10;" d="
					M432.4-24l-38.7,38.7c-1,1-0.5,2.6,0.8,3l64.4,17.2l0.1-0.1c1.5,0.4,2.7-1.1,2.1-2.5l-25.8-55.9C434.8-24.6,433.3-24.9,432.4-24
					z"/>
				
					<radialGradient id="SVGID_00000111164427251968695480000003786581420886850705_" cx="1035.5996" cy="-257.5443" r="55.8405" gradientTransform="matrix(0 -1 1 0 688.654 993.2018)" gradientUnits="userSpaceOnUse">
					<stop  offset="0" style="stop-color:#E933F6"/>
					<stop  offset="1" style="stop-color:#75FAFC"/>
				</radialGradient>
				<path style="fill:none;stroke:url(#SVGID_00000111164427251968695480000003786581420886850705_);stroke-miterlimit:10;" d="
					M431.5-42l54.4-54.4c-29.1-4.8-60,4-82.5,26.4c-22.4,22.4-31.2,53.4-26.4,82.5L431.5-42z"/>
				
					<radialGradient id="SVGID_00000027599434890191055680000011452583085086550717_" cx="1010.011" cy="-155.7208" r="58.829" gradientTransform="matrix(0 -1 1 0 688.654 993.2018)" gradientUnits="userSpaceOnUse">
					<stop  offset="0" style="stop-color:#E933F6"/>
					<stop  offset="1" style="stop-color:#75FAFC"/>
				</radialGradient>
				<path style="fill:none;stroke:url(#SVGID_00000027599434890191055680000011452583085086550717_);stroke-miterlimit:10;" d="
					M501.2-92.6L521.3-18l20.6,76.7c32.2-37.2,30.7-93.5-4.6-128.8C526.7-80.6,514.3-88.1,501.2-92.6z"/>
				
					<radialGradient id="SVGID_00000080927162935992012250000013646560079266718083_" cx="933.7768" cy="-231.9066" r="58.8611" gradientTransform="matrix(0 -1 1 0 688.654 993.2018)" gradientUnits="userSpaceOnUse">
					<stop  offset="0" style="stop-color:#E933F6"/>
					<stop  offset="1" style="stop-color:#75FAFC"/>
				</radialGradient>
				<path style="fill:none;stroke:url(#SVGID_00000080927162935992012250000013646560079266718083_);stroke-miterlimit:10;" d="
					M455.6,47.7l-74.7-20c4.5,13.2,12,25.6,22.6,36.1c35.4,35.4,91.7,36.9,128.9,4.5L455.6,47.7z"/>
				
					<radialGradient id="SVGID_00000157279718853514245050000001124669066138670739_" cx="1020.6546" cy="-224.4837" r="35.4614" gradientTransform="matrix(0 -1 1 0 688.654 993.2018)" gradientUnits="userSpaceOnUse">
					<stop  offset="0" style="stop-color:#E933F6"/>
					<stop  offset="1" style="stop-color:#75FAFC"/>
				</radialGradient>
				<path style="fill:none;stroke:url(#SVGID_00000157279718853514245050000001124669066138670739_);stroke-miterlimit:10;" d="
					M480.8-72.4l-35.7,35.7c-0.5,0.5-0.7,1.3-0.4,2l23.9,51.6c0.7,1.6,3.1,1.3,3.4-0.5l11.8-87.3C484-72.5,482-73.6,480.8-72.4z"/>
			</g>
			<g>
				
					<radialGradient id="SVGID_00000085936738105478572090000012016212531502111883_" cx="761.038" cy="-184.6691" r="41.0286" gradientTransform="matrix(0 -1 1 0 688.654 993.2018)" gradientUnits="userSpaceOnUse">
					<stop  offset="0" style="stop-color:#E933F6"/>
					<stop  offset="1" style="stop-color:#75FAFC"/>
				</radialGradient>
				<path style="fill:none;stroke:url(#SVGID_00000085936738105478572090000012016212531502111883_);stroke-miterlimit:10;" d="
					M498.2,180.4c-0.5-1.9-3.2-1.7-3.5,0.2l-12.5,91.9c-0.1,0.9,0.4,1.7,1.3,2l39.9,10.7c1.3,0.4,2.5-0.9,2.2-2.2l-17.3-64.6
					L498.2,180.4z"/>
				
					<radialGradient id="SVGID_00000008110717851092591000000013269162632679091606_" cx="754.9596" cy="-261.4289" r="32.4621" gradientTransform="matrix(0 -1 1 0 688.654 993.2018)" gradientUnits="userSpaceOnUse">
					<stop  offset="0" style="stop-color:#E933F6"/>
					<stop  offset="1" style="stop-color:#75FAFC"/>
				</radialGradient>
				<path style="fill:none;stroke:url(#SVGID_00000008110717851092591000000013269162632679091606_);stroke-miterlimit:10;" d="
					M432.4,209l-38.7,38.7c-1,1-0.5,2.6,0.8,3l64.4,17.2l0.1-0.1c1.5,0.4,2.7-1.1,2.1-2.5l-25.8-55.9
					C434.8,208.4,433.3,208.1,432.4,209z"/>
				
					<radialGradient id="SVGID_00000086693388989714162320000006578674453036019625_" cx="802.5643" cy="-257.5443" r="55.8405" gradientTransform="matrix(0 -1 1 0 688.654 993.2018)" gradientUnits="userSpaceOnUse">
					<stop  offset="0" style="stop-color:#E933F6"/>
					<stop  offset="1" style="stop-color:#75FAFC"/>
				</radialGradient>
				<path style="fill:none;stroke:url(#SVGID_00000086693388989714162320000006578674453036019625_);stroke-miterlimit:10;" d="
					M431.5,191l54.4-54.4c-29.1-4.8-60,4-82.5,26.4c-22.4,22.4-31.2,53.4-26.4,82.5L431.5,191z"/>
				
					<radialGradient id="SVGID_00000155867953278507059270000000794702713029230215_" cx="776.9757" cy="-155.7208" r="58.829" gradientTransform="matrix(0 -1 1 0 688.654 993.2018)" gradientUnits="userSpaceOnUse">
					<stop  offset="0" style="stop-color:#E933F6"/>
					<stop  offset="1" style="stop-color:#75FAFC"/>
				</radialGradient>
				<path style="fill:none;stroke:url(#SVGID_00000155867953278507059270000000794702713029230215_);stroke-miterlimit:10;" d="
					M501.2,140.4l20.1,74.6l20.6,76.7c32.2-37.2,30.7-93.5-4.6-128.8C526.7,152.5,514.3,144.9,501.2,140.4z"/>
				
					<radialGradient id="SVGID_00000085940372138994810190000010875569345277102730_" cx="700.7415" cy="-231.9066" r="58.8611" gradientTransform="matrix(0 -1 1 0 688.654 993.2018)" gradientUnits="userSpaceOnUse">
					<stop  offset="0" style="stop-color:#E933F6"/>
					<stop  offset="1" style="stop-color:#75FAFC"/>
				</radialGradient>
				<path style="fill:none;stroke:url(#SVGID_00000085940372138994810190000010875569345277102730_);stroke-miterlimit:10;" d="
					M455.6,280.7l-74.7-20c4.5,13.2,12,25.6,22.6,36.1c35.4,35.4,91.7,36.9,128.9,4.5L455.6,280.7z"/>
				
					<radialGradient id="SVGID_00000129196433404816620080000014512295880281657759_" cx="787.6193" cy="-224.4837" r="35.4614" gradientTransform="matrix(0 -1 1 0 688.654 993.2018)" gradientUnits="userSpaceOnUse">
					<stop  offset="0" style="stop-color:#E933F6"/>
					<stop  offset="1" style="stop-color:#75FAFC"/>
				</radialGradient>
				<path style="fill:none;stroke:url(#SVGID_00000129196433404816620080000014512295880281657759_);stroke-miterlimit:10;" d="
					M480.8,160.7l-35.7,35.7c-0.5,0.5-0.7,1.3-0.4,2l23.9,51.6c0.7,1.6,3.1,1.3,3.4-0.5l11.8-87.3C484,160.5,482,159.5,480.8,160.7z
					"/>
			</g>
			<g>
				
					<radialGradient id="SVGID_00000024700006448227873400000005392224780529258660_" cx="652.1821" cy="-188.4623" r="43.9636" gradientTransform="matrix(0 -1 1 0 688.654 993.2018)" gradientUnits="userSpaceOnUse">
					<stop  offset="0" style="stop-color:#E933F6"/>
					<stop  offset="1" style="stop-color:#75FAFC"/>
				</radialGradient>
				<path style="fill:none;stroke:url(#SVGID_00000024700006448227873400000005392224780529258660_);stroke-miterlimit:10;" d="
					M455.1,302.6c-1.7-1-3.5,1.1-2.3,2.6l56.1,73.8c0.5,0.7,1.5,0.9,2.3,0.5l35.8-20.6c1.2-0.7,1.2-2.4,0-3.1l-57.9-33.5
					L455.1,302.6z"/>
				
					<radialGradient id="SVGID_00000089546042566646709260000013886231040035793794_" cx="596.4908" cy="-229.1913" r="30.4092" gradientTransform="matrix(0 -1 1 0 688.654 993.2018)" gradientUnits="userSpaceOnUse">
					<stop  offset="0" style="stop-color:#E933F6"/>
					<stop  offset="1" style="stop-color:#75FAFC"/>
				</radialGradient>
				<path style="fill:none;stroke:url(#SVGID_00000089546042566646709260000013886231040035793794_);stroke-miterlimit:10;" d="
					M428.8,369.3v54.7c0,1.4,1.5,2.2,2.7,1.5l57.7-33.3v-0.1c1.3-0.8,1.1-2.7-0.3-3.2l-57.7-21.3
					C430.1,367.2,428.8,368.1,428.8,369.3z"/>
				
					<radialGradient id="SVGID_00000114034167180913238800000004846512696500274595_" cx="635.9167" cy="-293.0523" r="56.9573" gradientTransform="matrix(0 -1 1 0 688.654 993.2018)" gradientUnits="userSpaceOnUse">
					<stop  offset="0" style="stop-color:#E933F6"/>
					<stop  offset="1" style="stop-color:#75FAFC"/>
				</radialGradient>
				<path style="fill:none;stroke:url(#SVGID_00000114034167180913238800000004846512696500274595_);stroke-miterlimit:10;" d="
					M415.4,357.3v-77c-24,17.2-39.6,45.2-39.6,77s15.6,59.8,39.6,77V357.3z"/>
				
					<radialGradient id="SVGID_00000117670180747405439680000016522716068764930732_" cx="686.4141" cy="-192.0862" r="57.9284" gradientTransform="matrix(0 -1 1 0 688.654 993.2018)" gradientUnits="userSpaceOnUse">
					<stop  offset="0" style="stop-color:#E933F6"/>
					<stop  offset="1" style="stop-color:#75FAFC"/>
				</radialGradient>
				<path style="fill:none;stroke:url(#SVGID_00000117670180747405439680000016522716068764930732_);stroke-miterlimit:10;" d="
					M428.9,272.2l67,38.5l68.8,39.7c-3.5-49.1-44.4-87.8-94.3-87.8C455.5,262.7,441.4,266.1,428.9,272.2z"/>
				
					<radialGradient id="SVGID_00000016076731434934630480000000733989528844439437_" cx="585.4843" cy="-192.0823" r="57.9562" gradientTransform="matrix(0 -1 1 0 688.654 993.2018)" gradientUnits="userSpaceOnUse">
					<stop  offset="0" style="stop-color:#E933F6"/>
					<stop  offset="1" style="stop-color:#75FAFC"/>
				</radialGradient>
				<path style="fill:none;stroke:url(#SVGID_00000016076731434934630480000000733989528844439437_);stroke-miterlimit:10;" d="
					M495.9,403.7l-67,38.7c12.5,6.1,26.6,9.6,41.5,9.6c50,0,90.9-38.8,94.3-87.9L495.9,403.7z"/>
				
					<radialGradient id="SVGID_00000170985236400352371300000007039623857410591625_" cx="657.1666" cy="-231.3637" r="33.4121" gradientTransform="matrix(0 -1 1 0 688.654 993.2018)" gradientUnits="userSpaceOnUse">
					<stop  offset="0" style="stop-color:#E933F6"/>
					<stop  offset="1" style="stop-color:#75FAFC"/>
				</radialGradient>
				<path style="fill:none;stroke:url(#SVGID_00000170985236400352371300000007039623857410591625_);stroke-miterlimit:10;" d="
					M428.8,301v50.5c0,0.7,0.5,1.4,1.2,1.7l53.4,19.6c1.7,0.6,3.1-1.3,2-2.8L432,299.9C431,298.6,428.8,299.3,428.8,301z"/>
			</g>
			<g>
				
					<radialGradient id="SVGID_00000155129278955392353750000014023776170161980076_" cx="526.5129" cy="-184.6691" r="41.0286" gradientTransform="matrix(0 -1 1 0 688.654 993.2018)" gradientUnits="userSpaceOnUse">
					<stop  offset="0" style="stop-color:#E933F6"/>
					<stop  offset="1" style="stop-color:#75FAFC"/>
				</radialGradient>
				<path style="fill:none;stroke:url(#SVGID_00000155129278955392353750000014023776170161980076_);stroke-miterlimit:10;" d="
					M498.2,414.9c-0.5-1.9-3.2-1.7-3.5,0.2L482.3,507c-0.1,0.9,0.4,1.7,1.3,2l39.9,10.7c1.3,0.4,2.5-0.9,2.2-2.2L508.4,453
					L498.2,414.9z"/>
				
					<radialGradient id="SVGID_00000106847292522698624500000017141946042769100187_" cx="520.4346" cy="-261.4289" r="32.4621" gradientTransform="matrix(0 -1 1 0 688.654 993.2018)" gradientUnits="userSpaceOnUse">
					<stop  offset="0" style="stop-color:#E933F6"/>
					<stop  offset="1" style="stop-color:#75FAFC"/>
				</radialGradient>
				<path style="fill:none;stroke:url(#SVGID_00000106847292522698624500000017141946042769100187_);stroke-miterlimit:10;" d="
					M432.4,443.5l-38.7,38.7c-1,1-0.5,2.6,0.8,3l64.4,17.2l0.1-0.1c1.5,0.4,2.7-1.1,2.1-2.5L435.3,444
					C434.8,442.9,433.3,442.7,432.4,443.5z"/>
				
					<radialGradient id="SVGID_00000054972933013996359960000006288954910475569560_" cx="568.0393" cy="-257.5443" r="55.8405" gradientTransform="matrix(0 -1 1 0 688.654 993.2018)" gradientUnits="userSpaceOnUse">
					<stop  offset="0" style="stop-color:#E933F6"/>
					<stop  offset="1" style="stop-color:#75FAFC"/>
				</radialGradient>
				<path style="fill:none;stroke:url(#SVGID_00000054972933013996359960000006288954910475569560_);stroke-miterlimit:10;" d="
					M431.5,425.5l54.4-54.4c-29.1-4.8-60,4-82.5,26.4C381,420,372.2,450.9,377.1,480L431.5,425.5z"/>
				
					<radialGradient id="SVGID_00000134217504968273675600000003191329955426571651_" cx="542.4507" cy="-155.7208" r="58.829" gradientTransform="matrix(0 -1 1 0 688.654 993.2018)" gradientUnits="userSpaceOnUse">
					<stop  offset="0" style="stop-color:#E933F6"/>
					<stop  offset="1" style="stop-color:#75FAFC"/>
				</radialGradient>
				<path style="fill:none;stroke:url(#SVGID_00000134217504968273675600000003191329955426571651_);stroke-miterlimit:10;" d="
					M501.2,374.9l20.1,74.6l20.6,76.7c32.2-37.2,30.7-93.5-4.6-128.8C526.7,387,514.3,379.5,501.2,374.9z"/>
				
					<radialGradient id="SVGID_00000075865735307716236530000000709771659895331716_" cx="466.2165" cy="-231.9066" r="58.8611" gradientTransform="matrix(0 -1 1 0 688.654 993.2018)" gradientUnits="userSpaceOnUse">
					<stop  offset="0" style="stop-color:#E933F6"/>
					<stop  offset="1" style="stop-color:#75FAFC"/>
				</radialGradient>
				<path style="fill:none;stroke:url(#SVGID_00000075865735307716236530000000709771659895331716_);stroke-miterlimit:10;" d="
					M455.6,515.2l-74.7-20c4.5,13.2,12,25.6,22.6,36.1c35.4,35.4,91.7,36.9,128.9,4.5L455.6,515.2z"/>
				
					<radialGradient id="SVGID_00000121252954568185804720000014191443417754622089_" cx="553.0943" cy="-224.4837" r="35.4614" gradientTransform="matrix(0 -1 1 0 688.654 993.2018)" gradientUnits="userSpaceOnUse">
					<stop  offset="0" style="stop-color:#E933F6"/>
					<stop  offset="1" style="stop-color:#75FAFC"/>
				</radialGradient>
				<path style="fill:none;stroke:url(#SVGID_00000121252954568185804720000014191443417754622089_);stroke-miterlimit:10;" d="
					M480.8,395.2l-35.7,35.7c-0.5,0.5-0.7,1.3-0.4,2l23.9,51.6c0.7,1.6,3.1,1.3,3.4-0.5l11.8-87.3C484,395,482,394,480.8,395.2z"/>
			</g>
			<g>
				<g>
					
						<radialGradient id="SVGID_00000143605370913273508070000002301618187069371829_" cx="886.7072" cy="-188.4623" r="43.9636" gradientTransform="matrix(0 -1 1 0 688.654 993.2018)" gradientUnits="userSpaceOnUse">
						<stop  offset="0" style="stop-color:#E933F6"/>
						<stop  offset="1" style="stop-color:#75FAFC"/>
					</radialGradient>
					<path style="fill:none;stroke:url(#SVGID_00000143605370913273508070000002301618187069371829_);stroke-miterlimit:10;" d="
						M455.1,68.1c-1.7-1-3.5,1.1-2.3,2.6l56.1,73.8c0.5,0.7,1.5,0.9,2.3,0.5l35.8-20.6c1.2-0.7,1.2-2.4,0-3.1l-57.9-33.5L455.1,68.1
						z"/>
					
						<radialGradient id="SVGID_00000094615668838483550900000003939182202818915997_" cx="831.0158" cy="-229.1913" r="30.4092" gradientTransform="matrix(0 -1 1 0 688.654 993.2018)" gradientUnits="userSpaceOnUse">
						<stop  offset="0" style="stop-color:#E933F6"/>
						<stop  offset="1" style="stop-color:#75FAFC"/>
					</radialGradient>
					<path style="fill:none;stroke:url(#SVGID_00000094615668838483550900000003939182202818915997_);stroke-miterlimit:10;" d="
						M428.8,134.8v54.7c0,1.4,1.5,2.2,2.7,1.5l57.7-33.3v-0.1c1.3-0.8,1.1-2.7-0.3-3.2l-57.7-21.3
						C430.1,132.7,428.8,133.6,428.8,134.8z"/>
					
						<radialGradient id="SVGID_00000070112068577664148360000000400196772880141711_" cx="870.4417" cy="-293.0523" r="56.9573" gradientTransform="matrix(0 -1 1 0 688.654 993.2018)" gradientUnits="userSpaceOnUse">
						<stop  offset="0" style="stop-color:#E933F6"/>
						<stop  offset="1" style="stop-color:#75FAFC"/>
					</radialGradient>
					<path style="fill:none;stroke:url(#SVGID_00000070112068577664148360000000400196772880141711_);stroke-miterlimit:10;" d="
						M415.4,122.8v-77c-24,17.2-39.6,45.2-39.6,77s15.6,59.8,39.6,77V122.8z"/>
					
						<radialGradient id="SVGID_00000175281035888229120510000002016123251200379294_" cx="920.9391" cy="-192.0862" r="57.9284" gradientTransform="matrix(0 -1 1 0 688.654 993.2018)" gradientUnits="userSpaceOnUse">
						<stop  offset="0" style="stop-color:#E933F6"/>
						<stop  offset="1" style="stop-color:#75FAFC"/>
					</radialGradient>
					<path style="fill:none;stroke:url(#SVGID_00000175281035888229120510000002016123251200379294_);stroke-miterlimit:10;" d="
						M428.9,37.7l67,38.5l68.8,39.7c-3.5-49.1-44.4-87.8-94.3-87.8C455.5,28.2,441.4,31.6,428.9,37.7z"/>
					
						<radialGradient id="SVGID_00000039844355453047567360000011207792804204152725_" cx="820.0093" cy="-192.0823" r="57.9562" gradientTransform="matrix(0 -1 1 0 688.654 993.2018)" gradientUnits="userSpaceOnUse">
						<stop  offset="0" style="stop-color:#E933F6"/>
						<stop  offset="1" style="stop-color:#75FAFC"/>
					</radialGradient>
					<path style="fill:none;stroke:url(#SVGID_00000039844355453047567360000011207792804204152725_);stroke-miterlimit:10;" d="
						M495.9,169.1l-67,38.7c12.5,6.1,26.6,9.6,41.5,9.6c50,0,90.9-38.8,94.3-87.9L495.9,169.1z"/>
					
						<radialGradient id="SVGID_00000159452418936995849440000006773083970667932602_" cx="891.6915" cy="-231.3637" r="33.4121" gradientTransform="matrix(0 -1 1 0 688.654 993.2018)" gradientUnits="userSpaceOnUse">
						<stop  offset="0" style="stop-color:#E933F6"/>
						<stop  offset="1" style="stop-color:#75FAFC"/>
					</radialGradient>
					<path style="fill:none;stroke:url(#SVGID_00000159452418936995849440000006773083970667932602_);stroke-miterlimit:10;" d="
						M428.8,66.5V117c0,0.7,0.5,1.4,1.2,1.7l53.4,19.6c1.7,0.6,3.1-1.3,2-2.8L432,65.4C431,64,428.8,64.8,428.8,66.5z"/>
				</g>
			</g>
		</g>
	</g>
</g>
<g>
	<g>
		<path class="st32" d="M31,35.2h-1.1v3.4h-2.4V28.1h4.2c2,0,3.6,1.6,3.6,3.6c0,1.3-0.8,2.5-1.9,3l2.2,3.9H33L31,35.2z M29.9,33.1
			h1.8c0.7,0,1.2-0.6,1.2-1.4c0-0.8-0.5-1.3-1.2-1.3h-1.8V33.1z"/>
		<path class="st32" d="M44.1,36.3v2.3h-6.6V28.1H44v2.3h-4.1v1.7h3.8v2.3h-3.8v1.9H44.1z"/>
		<path class="st32" d="M54,35.6c0,1.9-1.5,3.1-3.4,3.1h-4.4V28.1h4.1c1.8,0,3.3,1.2,3.3,3c0,0.9-0.3,1.6-0.9,2.1
			C53.5,33.7,54,34.5,54,35.6z M48.6,30.4v1.9h1.7c0.5,0,0.9-0.4,0.9-0.9s-0.4-0.9-0.9-0.9H48.6z M51.6,35.4c0-0.6-0.4-1-1-1h-2v2h2
			C51.2,36.4,51.6,36,51.6,35.4z"/>
		<path class="st32" d="M62.1,37h-3.9l-0.5,1.6H55l3.6-10.5h3.1l3.6,10.5h-2.6L62.1,37z M61.4,34.7l-1.2-3.9l-1.2,3.9H61.4z"/>
		<path class="st32" d="M66.1,36.2l2.1-1.2c0.4,0.9,1,1.5,2.2,1.5c1.1,0,1.4-0.5,1.4-0.9c0-0.6-0.6-0.9-2.2-1.3
			c-1.6-0.4-3.1-1.2-3.1-3.2c0-2,1.7-3.2,3.5-3.2c1.7,0,3.1,0.8,3.8,2.4l-2,1.2c-0.4-0.8-0.9-1.2-1.8-1.2c-0.8,0-1.1,0.4-1.1,0.8
			c0,0.5,0.3,0.8,1.9,1.3c1.6,0.5,3.4,1,3.4,3.3c0,2-1.6,3.2-3.9,3.2C68.1,38.8,66.7,37.8,66.1,36.2z"/>
		<path class="st32" d="M82.7,36.3v2.3h-6.6V28.1h6.5v2.3h-4.1v1.7h3.8v2.3h-3.8v1.9H82.7z"/>
		<path class="st32" d="M98.6,33.4c0,3-2.2,5.2-5.1,5.2h-4.2V28.1h4.2C96.4,28.1,98.6,30.4,98.6,33.4z M96.3,33.4
			c0-1.8-1.1-2.9-2.8-2.9h-1.8v5.9h1.8C95.2,36.3,96.3,35.2,96.3,33.4z"/>
		<path class="st32" d="M103.1,28.1v10.5h-2.4V28.1H103.1z"/>
		<path class="st32" d="M105,36.2l2.1-1.2c0.4,0.9,1,1.5,2.2,1.5c1.1,0,1.4-0.5,1.4-0.9c0-0.6-0.6-0.9-2.2-1.3
			c-1.6-0.4-3.1-1.2-3.1-3.2c0-2,1.7-3.2,3.5-3.2c1.7,0,3.1,0.8,3.8,2.4l-2,1.2c-0.4-0.8-0.9-1.2-1.8-1.2c-0.8,0-1.1,0.4-1.1,0.8
			c0,0.5,0.3,0.8,1.9,1.3c1.6,0.5,3.4,1,3.4,3.3c0,2-1.6,3.2-3.9,3.2C107,38.8,105.6,37.8,105,36.2z"/>
		<path class="st32" d="M121.7,30.4H119v8.2h-2.4v-8.2h-2.7v-2.3h7.8V30.4z"/>
		<path class="st32" d="M127,35.2h-1.1v3.4h-2.4V28.1h4.2c2,0,3.6,1.6,3.6,3.6c0,1.3-0.8,2.5-1.9,3l2.2,3.9H129L127,35.2z
			 M125.9,33.1h1.8c0.7,0,1.2-0.6,1.2-1.4c0-0.8-0.5-1.3-1.2-1.3h-1.8V33.1z"/>
		<path class="st32" d="M135.9,28.1v10.5h-2.4V28.1H135.9z"/>
		<path class="st32" d="M146.2,35.6c0,1.9-1.5,3.1-3.4,3.1h-4.4V28.1h4.1c1.8,0,3.3,1.2,3.3,3c0,0.9-0.3,1.6-0.9,2.1
			C145.7,33.7,146.2,34.5,146.2,35.6z M140.8,30.4v1.9h1.7c0.5,0,0.9-0.4,0.9-0.9s-0.4-0.9-0.9-0.9H140.8z M143.8,35.4
			c0-0.6-0.4-1-1-1h-2v2h2C143.4,36.4,143.8,36,143.8,35.4z"/>
		<path class="st32" d="M148,35.2v-7.1h2.4V35c0,0.8,0.4,1.5,1.6,1.5c1.3,0,1.6-0.7,1.6-1.5v-6.9h2.4v7.1c0,2.2-1.7,3.6-4,3.6
			C149.8,38.8,148,37.5,148,35.2z"/>
		<path class="st32" d="M165.7,30.4H163v8.2h-2.4v-8.2h-2.7v-2.3h7.8V30.4z"/>
		<path class="st32" d="M169.9,28.1v10.5h-2.4V28.1H169.9z"/>
		<path class="st32" d="M172,33.4c0-3.1,2.4-5.5,5.5-5.5c3,0,5.5,2.4,5.5,5.5s-2.4,5.5-5.5,5.5C174.4,38.8,172,36.5,172,33.4z
			 M180.5,33.4c0-1.9-1.4-3.1-3.1-3.1s-3.1,1.2-3.1,3.1c0,1.9,1.3,3.1,3.1,3.1S180.5,35.3,180.5,33.4z"/>
		<path class="st32" d="M193.2,28.1v10.5h-1.8l-4-5.7v5.7H185V28.1h1.8l4,5.7v-5.7H193.2z"/>
	</g>
</g>
<g>
	<g>
		<path class="st32" d="M33,109.3h-4.6l-0.9,2.3h-0.7l3.5-9.1h0.7l3.5,9.1h-0.7L33,109.3z M32.7,108.7l-2-5.3l-2,5.3H32.7z"/>
		<path class="st32" d="M41.5,103.2h-2.9v8.5h-0.7v-8.5h-2.9v-0.7h6.4V103.2z"/>
		<path class="st32" d="M52.9,111v0.6h-5.2v-9.1h5.2v0.7h-4.5v3.5h4.2v0.6h-4.2v3.6H52.9z"/>
		<path class="st32" d="M54.3,102.5h0.8l3,8.2l3-8.2h0.7l-3.4,9.1h-0.7L54.3,102.5z"/>
		<path class="st32" d="M69,111v0.6h-5.2v-9.1H69v0.7h-4.5v3.5h4.2v0.6h-4.2v3.6H69z"/>
		<path class="st32" d="M74.9,107.9h-2.9v3.7h-0.7v-9.1H75c1.5,0,2.7,1.2,2.7,2.7c0,1.2-0.8,2.3-2,2.6l2.3,3.8h-0.8L74.9,107.9z
			 M72.1,107.2H75c1.1,0,2-0.9,2-2c0-1.1-0.9-2-2-2h-2.9V107.2z"/>
		<path class="st32" d="M82.7,107.9v3.7h-0.7v-3.7l-3.3-5.4h0.8l2.9,4.7l2.9-4.7h0.8L82.7,107.9z"/>
		<path class="st32" d="M91.1,102.5h0.8l3,8.2l3-8.2h0.7l-3.4,9.1h-0.7L91.1,102.5z"/>
		<path class="st32" d="M101.3,102.5v9.1h-0.7v-9.1H101.3z"/>
		<path class="st32" d="M109.8,103.2h-2.9v8.5h-0.7v-8.5h-2.9v-0.7h6.4V103.2z"/>
		<path class="st32" d="M115.4,107.9h-2.9v3.7h-0.7v-9.1h3.6c1.5,0,2.7,1.2,2.7,2.7c0,1.2-0.8,2.3-2,2.6l2.3,3.8h-0.8L115.4,107.9z
			 M112.6,107.2h2.9c1.1,0,2-0.9,2-2c0-1.1-0.9-2-2-2h-2.9V107.2z"/>
		<path class="st32" d="M120.3,108.6v-6.1h0.7v6.1c0,1.5,0.9,2.5,2.6,2.5c1.7,0,2.7-1,2.7-2.5v-6.1h0.7v6.1c0,1.9-1.3,3.2-3.3,3.2
			S120.3,110.5,120.3,108.6z"/>
		<path class="st32" d="M128.8,102.5h0.8l3,8.2l3-8.2h0.7l-3.4,9.1h-0.7L128.8,102.5z"/>
		<path class="st32" d="M143.5,111v0.6h-5.2v-9.1h5.2v0.7H139v3.5h4.2v0.6H139v3.6H143.5z"/>
		<path class="st32" d="M145.3,107.1c0-2.6,2.1-4.7,4.7-4.7s4.7,2.1,4.7,4.7s-2.1,4.7-4.7,4.7S145.3,109.7,145.3,107.1z M154,107.1
			c0-2.2-1.8-4-4-4s-4,1.8-4,4c0,2.2,1.8,4,4,4S154,109.3,154,107.1z"/>
		<path class="st32" d="M167.6,109.1c0,1.4-1.1,2.5-2.5,2.5h-3.9v-9.1h3.6c1.3,0,2.4,1.1,2.4,2.4c0,0.9-0.5,1.6-1.2,2
			C166.9,107.3,167.6,108.1,167.6,109.1z M161.8,103.2v3.5h2.9c0.9,0,1.7-0.8,1.7-1.7c0-1-0.8-1.7-1.7-1.7H161.8z M166.9,109.1
			c0-1-0.8-1.8-1.8-1.8h-3.2v3.7h3.2C166.1,111,166.9,110.2,166.9,109.1z"/>
		<path class="st32" d="M174.9,111v0.6h-5v-9.1h0.7v8.5H174.9z"/>
		<path class="st32" d="M175.8,107.1c0-2.6,2.1-4.7,4.7-4.7s4.7,2.1,4.7,4.7s-2.1,4.7-4.7,4.7S175.8,109.7,175.8,107.1z
			 M184.5,107.1c0-2.2-1.8-4-4-4s-4,1.8-4,4c0,2.2,1.8,4,4,4S184.5,109.3,184.5,107.1z"/>
		<path class="st32" d="M187.1,107.1c0-2.6,2-4.7,4.7-4.7c1.7,0,3.1,0.9,3.9,2.2l-0.6,0.4c-0.6-1.1-1.9-1.9-3.3-1.9
			c-2.4,0-4,1.8-4,4c0,2.2,1.7,4,4,4c1.4,0,2.7-0.8,3.3-1.9l0.6,0.4c-0.7,1.3-2.2,2.2-3.9,2.2C189,111.8,187.1,109.7,187.1,107.1z"
			/>
		<path class="st32" d="M203.2,111.6l-4.6-4.5v4.5H198v-9.1h0.7v4.2l4.4-4.2h0.9l-4.6,4.4l4.7,4.7H203.2z"/>
		<path class="st32" d="M204.8,107.1c0-2.6,2-4.7,4.7-4.7c1.7,0,3.1,0.9,3.9,2.2l-0.6,0.4c-0.6-1.1-1.9-1.9-3.3-1.9
			c-2.4,0-4,1.8-4,4c0,2.2,1.7,4,4,4c1.4,0,2.7-0.8,3.3-1.9l0.6,0.4c-0.7,1.3-2.2,2.2-3.9,2.2C206.7,111.8,204.8,109.7,204.8,107.1z
			"/>
		<path class="st32" d="M222.4,102.5v9.1h-0.7v-4.4h-5.3v4.4h-0.7v-9.1h0.7v4.1h5.3v-4.1H222.4z"/>
		<path class="st32" d="M230.5,109.3H226l-0.9,2.3h-0.7l3.5-9.1h0.7l3.5,9.1h-0.7L230.5,109.3z M230.3,108.7l-2-5.3l-2,5.3H230.3z"
			/>
		<path class="st32" d="M234.8,102.5v9.1h-0.7v-9.1H234.8z"/>
		<path class="st32" d="M244.4,102.5v9.1h-0.6l-5.4-7.8v7.8h-0.7v-9.1h0.6l5.4,7.8v-7.8H244.4z"/>
		<path class="st32" d="M255,107.9h-2.9v3.7h-0.7v-9.1h3.6c1.5,0,2.7,1.2,2.7,2.7c0,1.2-0.8,2.3-2,2.6l2.3,3.8h-0.8L255,107.9z
			 M252.1,107.2h2.9c1.1,0,2-0.9,2-2c0-1.1-0.9-2-2-2h-2.9V107.2z"/>
		<path class="st32" d="M265.3,111v0.6H260v-9.1h5.2v0.7h-4.5v3.5h4.2v0.6h-4.2v3.6H265.3z"/>
		<path class="st32" d="M274,109.1c0,1.4-1.1,2.5-2.5,2.5h-3.9v-9.1h3.6c1.3,0,2.4,1.1,2.4,2.4c0,0.9-0.5,1.6-1.2,2
			C273.4,107.3,274,108.1,274,109.1z M268.3,103.2v3.5h2.9c0.9,0,1.7-0.8,1.7-1.7c0-1-0.8-1.7-1.7-1.7H268.3z M273.3,109.1
			c0-1-0.8-1.8-1.8-1.8h-3.2v3.7h3.2C272.5,111,273.3,110.2,273.3,109.1z"/>
		<path class="st32" d="M281.6,109.3H277l-0.9,2.3h-0.7l3.5-9.1h0.7l3.5,9.1h-0.7L281.6,109.3z M281.4,108.7l-2-5.3l-2,5.3H281.4z"
			/>
		<path class="st32" d="M284.4,109.6l0.6-0.4c0.3,1.1,1.2,1.8,2.7,1.8c1.5,0,2.3-0.8,2.3-1.8c0-1.1-1-1.5-2.4-2
			c-1.5-0.5-2.9-0.9-2.9-2.5c0-1.5,1.2-2.4,2.8-2.4c1.5,0,2.5,0.9,2.9,1.9l-0.6,0.3c-0.3-0.8-1-1.6-2.3-1.6c-1.3,0-2.1,0.7-2.1,1.8
			c0,1.1,0.9,1.4,2.2,1.9c1.6,0.5,3,1,3,2.6c0,1.5-1.2,2.5-3,2.5C286,111.8,284.8,110.9,284.4,109.6z"/>
		<path class="st32" d="M293.7,102.5v9.1H293v-9.1H293.7z"/>
		<path class="st32" d="M303.2,102.5v9.1h-0.6l-5.4-7.8v7.8h-0.7v-9.1h0.6l5.4,7.8v-7.8H303.2z"/>
		<path class="st32" d="M314.8,107.7c0,2.2-1.7,4-4.4,4c-2.8,0-4.8-2.1-4.8-4.7s2-4.7,4.7-4.7c1.7,0,3.2,0.9,3.9,2.2l-0.6,0.4
			c-0.6-1.1-1.9-1.9-3.3-1.9c-2.4,0-4,1.8-4,4c0,2.2,1.7,4,4.1,4c2.2,0,3.5-1.4,3.7-3.1h-3.9v-0.7h4.6V107.7z"/>
		<path class="st32" d="M326.6,111v0.6h-5.2v-9.1h5.2v0.7H322v3.5h4.2v0.6H322v3.6H326.6z"/>
		<path class="st32" d="M327.9,102.5h0.8l3,8.2l3-8.2h0.7l-3.4,9.1h-0.7L327.9,102.5z"/>
		<path class="st32" d="M342.7,111v0.6h-5.2v-9.1h5.2v0.7h-4.5v3.5h4.2v0.6h-4.2v3.6H342.7z"/>
		<path class="st32" d="M351.7,102.5v9.1H351l-5.4-7.8v7.8H345v-9.1h0.6l5.4,7.8v-7.8H351.7z"/>
		<path class="st32" d="M360.2,103.2h-2.9v8.5h-0.7v-8.5h-2.9v-0.7h6.4V103.2z"/>
		<path class="st32" d="M361.2,113.4h-0.6l0.5-2.7h0.8L361.2,113.4z"/>
		<path class="st32" d="M33.3,123.2h-2.9v8.5h-0.7v-8.5h-2.9v-0.7h6.4V123.2z"/>
		<path class="st32" d="M42.1,122.5v9.1h-0.7v-4.4h-5.3v4.4h-0.7v-9.1h0.7v4.1h5.3v-4.1H42.1z"/>
		<path class="st32" d="M50.2,131v0.6H45v-9.1h5.2v0.7h-4.5v3.5h4.2v0.6h-4.2v3.6H50.2z"/>
		<path class="st32" d="M56.1,127.9h-2.9v3.7h-0.7v-9.1h3.6c1.5,0,2.7,1.2,2.7,2.7c0,1.2-0.8,2.3-2,2.6l2.3,3.8h-0.8L56.1,127.9z
			 M53.3,127.2h2.9c1.1,0,2-0.9,2-2c0-1.1-0.9-2-2-2h-2.9V127.2z"/>
		<path class="st32" d="M66.4,131v0.6h-5.2v-9.1h5.2v0.7h-4.5v3.5H66v0.6h-4.2v3.6H66.4z"/>
		<path class="st32" d="M72.2,122.5h0.7l2.4,8.2l2.5-8.2h0.8l2.5,8.2l2.3-8.2h0.7l-2.6,9.1h-0.8l-2.5-8.2l-2.6,8.2h-0.8L72.2,122.5z
			"/>
		<path class="st32" d="M87.1,122.5v9.1h-0.7v-9.1H87.1z"/>
		<path class="st32" d="M95,131v0.6h-5v-9.1h0.7v8.5H95z"/>
		<path class="st32" d="M102.1,131v0.6h-5v-9.1h0.7v8.5H102.1z"/>
		<path class="st32" d="M114.7,129.1c0,1.4-1.1,2.5-2.5,2.5h-3.9v-9.1h3.6c1.3,0,2.4,1.1,2.4,2.4c0,0.9-0.5,1.6-1.2,2
			C114,127.3,114.7,128.1,114.7,129.1z M109,123.2v3.5h2.9c0.9,0,1.7-0.8,1.7-1.7c0-1-0.8-1.7-1.7-1.7H109z M114,129.1
			c0-1-0.8-1.8-1.8-1.8H109v3.7h3.2C113.2,131,114,130.2,114,129.1z"/>
		<path class="st32" d="M122.3,131v0.6H117v-9.1h5.2v0.7h-4.5v3.5h4.2v0.6h-4.2v3.6H122.3z"/>
		<path class="st32" d="M134,129.3h-4.6l-0.9,2.3h-0.7l3.5-9.1h0.7l3.5,9.1h-0.7L134,129.3z M133.7,128.7l-2-5.3l-2,5.3H133.7z"/>
		<path class="st32" d="M149.4,127.1c0,2.6-1.9,4.6-4.4,4.6h-3.6v-9.1h3.6C147.5,122.5,149.4,124.5,149.4,127.1z M147.4,127.1
			c0-1.6-1-2.5-2.4-2.5h-1.6v5.1h1.6C146.4,129.6,147.4,128.6,147.4,127.1z"/>
		<path class="st32" d="M153.3,122.5v9.1h-2.1v-9.1H153.3z"/>
		<path class="st32" d="M154.9,129.6l1.8-1c0.3,0.8,0.9,1.3,1.9,1.3c1,0,1.2-0.4,1.2-0.7c0-0.6-0.5-0.8-1.9-1.2
			c-1.4-0.4-2.7-1-2.7-2.8c0-1.8,1.5-2.8,3.1-2.8c1.5,0,2.7,0.7,3.3,2.1l-1.8,1c-0.3-0.6-0.7-1.1-1.6-1.1c-0.7,0-1,0.3-1,0.7
			c0,0.4,0.2,0.7,1.6,1.1c1.4,0.4,2.9,0.9,2.9,2.8c0,1.8-1.4,2.8-3.4,2.8C156.6,131.8,155.4,130.9,154.9,129.6z"/>
		<path class="st32" d="M169.4,124.5h-2.3v7.1H165v-7.1h-2.3v-2h6.8V124.5z"/>
		<path class="st32" d="M174,128.6h-1v3H171v-9.1h3.6c1.7,0,3.1,1.4,3.1,3.1c0,1.1-0.7,2.1-1.7,2.6l1.9,3.3h-2.2L174,128.6z
			 M173.1,126.8h1.6c0.6,0,1-0.5,1-1.2c0-0.7-0.5-1.2-1-1.2h-1.6V126.8z"/>
		<path class="st32" d="M181.7,122.5v9.1h-2.1v-9.1H181.7z"/>
		<path class="st32" d="M190.7,129c0,1.6-1.3,2.7-2.9,2.7h-3.8v-9.1h3.6c1.6,0,2.9,1,2.9,2.6c0,0.8-0.3,1.4-0.8,1.8
			C190.2,127.3,190.7,128,190.7,129z M186,124.5v1.6h1.5c0.5,0,0.8-0.3,0.8-0.8s-0.3-0.8-0.8-0.8H186z M188.6,128.8
			c0-0.5-0.3-0.9-0.9-0.9H186v1.7h1.7C188.2,129.7,188.6,129.3,188.6,128.8z"/>
		<path class="st32" d="M192.2,128.7v-6.2h2.1v6c0,0.7,0.3,1.3,1.4,1.3s1.4-0.6,1.4-1.3v-6h2.1v6.2c0,1.9-1.5,3.1-3.5,3.1
			S192.2,130.6,192.2,128.7z"/>
		<path class="st32" d="M207.5,124.5h-2.3v7.1h-2.1v-7.1h-2.3v-2h6.8V124.5z"/>
		<path class="st32" d="M211.1,122.5v9.1h-2.1v-9.1H211.1z"/>
		<path class="st32" d="M213,127.1c0-2.7,2.1-4.7,4.7-4.7c2.6,0,4.7,2.1,4.7,4.7s-2.1,4.7-4.7,4.7C215.1,131.8,213,129.8,213,127.1z
			 M220.3,127.1c0-1.6-1.2-2.7-2.7-2.7s-2.7,1.1-2.7,2.7s1.2,2.7,2.7,2.7S220.3,128.7,220.3,127.1z"/>
		<path class="st32" d="M231.4,122.5v9.1h-1.6l-3.5-4.9v4.9h-2.1v-9.1h1.6l3.5,4.9v-4.9H231.4z"/>
		<path class="st32" d="M237.1,127.1c0-2.7,2.1-4.7,4.7-4.7c2.6,0,4.7,2.1,4.7,4.7s-2.1,4.7-4.7,4.7
			C239.2,131.8,237.1,129.8,237.1,127.1z M244.5,127.1c0-1.6-1.2-2.7-2.7-2.7s-2.7,1.1-2.7,2.7s1.2,2.7,2.7,2.7
			S244.5,128.7,244.5,127.1z"/>
		<path class="st32" d="M250.5,124.5v1.8h3.4v2h-3.4v3.3h-2.1v-9.1h5.5v2H250.5z"/>
		<path class="st32" d="M263.1,131.8v1.1h-0.9v-1.1c-1.5-0.1-2.6-0.9-3-2.1l1.8-1c0.3,0.6,0.6,1,1.2,1.1v-1.8c-0.1,0-0.1,0-0.2-0.1
			c-1.1-0.5-2.5-1.1-2.5-2.8c0-1.7,1.3-2.6,2.7-2.7v-1.1h0.9v1.2c1.1,0.1,2.1,0.7,2.6,1.9l-1.8,1c-0.2-0.5-0.4-0.7-0.8-0.8v1.8
			c1.1,0.5,2.7,0.9,2.7,2.8C265.8,130.6,264.7,131.6,263.1,131.8z M262.2,125.8v-1.4c-0.4,0.1-0.6,0.3-0.6,0.6
			C261.6,125.3,261.8,125.5,262.2,125.8z M263.7,129c0-0.3-0.2-0.5-0.6-0.7v1.4C263.6,129.6,263.7,129.3,263.7,129z"/>
		<path class="st32" d="M266.4,122.5h2.3l2,6.7l2-6.7h2.3l-3,9.1h-2.7L266.4,122.5z"/>
		<path class="st32" d="M282.6,124.5h-2.3v7.1h-2.1v-7.1h-2.3v-2h6.8V124.5z"/>
		<path class="st32" d="M287.2,128.6h-1v3h-2.1v-9.1h3.6c1.7,0,3.1,1.4,3.1,3.1c0,1.1-0.7,2.1-1.7,2.6l1.9,3.3h-2.2L287.2,128.6z
			 M286.2,126.8h1.6c0.6,0,1-0.5,1-1.2c0-0.7-0.5-1.2-1-1.2h-1.6V126.8z"/>
		<path class="st32" d="M292.6,128.7v-6.2h2.1v6c0,0.7,0.3,1.3,1.4,1.3s1.4-0.6,1.4-1.3v-6h2.1v6.2c0,1.9-1.5,3.1-3.5,3.1
			S292.6,130.6,292.6,128.7z"/>
		<path class="st32" d="M311.9,123.2H309v8.5h-0.7v-8.5h-2.9v-0.7h6.4V123.2z"/>
		<path class="st32" d="M312.9,127.1c0-2.6,2.1-4.7,4.7-4.7s4.7,2.1,4.7,4.7s-2.1,4.7-4.7,4.7S312.9,129.7,312.9,127.1z
			 M321.6,127.1c0-2.2-1.8-4-4-4s-4,1.8-4,4c0,2.2,1.8,4,4,4S321.6,129.3,321.6,127.1z"/>
		<path class="st32" d="M329.9,131.6l-4.6-4.5v4.5h-0.7v-9.1h0.7v4.2l4.4-4.2h0.9l-4.6,4.4l4.7,4.7H329.9z"/>
		<path class="st32" d="M338,131v0.6h-5.2v-9.1h5.2v0.7h-4.5v3.5h4.2v0.6h-4.2v3.6H338z"/>
		<path class="st32" d="M347,122.5v9.1h-0.6l-5.4-7.8v7.8h-0.7v-9.1h0.6l5.4,7.8v-7.8H347z"/>
		<path class="st32" d="M349.3,129.6l0.6-0.4c0.3,1.1,1.2,1.8,2.7,1.8c1.5,0,2.3-0.8,2.3-1.8c0-1.1-1-1.5-2.4-2
			c-1.5-0.5-2.9-0.9-2.9-2.5c0-1.5,1.2-2.4,2.8-2.4c1.5,0,2.5,0.9,2.9,1.9l-0.6,0.3c-0.3-0.8-1-1.6-2.3-1.6c-1.3,0-2.1,0.7-2.1,1.8
			c0,1.1,0.9,1.4,2.2,1.9c1.6,0.5,3,1,3,2.6c0,1.5-1.2,2.5-3,2.5C350.9,131.8,349.7,130.9,349.3,129.6z"/>
		<path class="st32" d="M28.4,143.2v3.6h4.2v0.6h-4.2v4.2h-0.7v-9.1h5v0.7H28.4z"/>
		<path class="st32" d="M38.7,147.9h-2.9v3.7h-0.7v-9.1h3.6c1.5,0,2.7,1.2,2.7,2.7c0,1.2-0.8,2.3-2,2.6l2.3,3.8h-0.8L38.7,147.9z
			 M35.8,147.2h2.9c1.1,0,2-0.9,2-2c0-1.1-0.9-2-2-2h-2.9V147.2z"/>
		<path class="st32" d="M43.2,147.1c0-2.6,2.1-4.7,4.7-4.7s4.7,2.1,4.7,4.7s-2.1,4.7-4.7,4.7S43.2,149.7,43.2,147.1z M51.9,147.1
			c0-2.2-1.8-4-4-4s-4,1.8-4,4c0,2.2,1.8,4,4,4S51.9,149.3,51.9,147.1z"/>
		<path class="st32" d="M63.2,151.6h-0.7v-8.1l-3.4,5.6h-0.1l-3.4-5.6v8.1H55v-9.1h0.9l3.2,5.4l3.2-5.4h0.9V151.6z"/>
		<path class="st32" d="M69.7,147.1c0-2.6,2.1-4.7,4.7-4.7s4.7,2.1,4.7,4.7s-2.1,4.7-4.7,4.7S69.7,149.7,69.7,147.1z M78.4,147.1
			c0-2.2-1.8-4-4-4s-4,1.8-4,4c0,2.2,1.8,4,4,4S78.4,149.3,78.4,147.1z"/>
		<path class="st32" d="M81.3,148.6v-6.1H82v6.1c0,1.5,0.9,2.5,2.6,2.5c1.7,0,2.7-1,2.7-2.5v-6.1H88v6.1c0,1.9-1.3,3.2-3.3,3.2
			S81.3,150.5,81.3,148.6z"/>
		<path class="st32" d="M94.3,147.9h-2.9v3.7h-0.7v-9.1h3.6c1.5,0,2.7,1.2,2.7,2.7c0,1.2-0.8,2.3-2,2.6l2.3,3.8h-0.8L94.3,147.9z
			 M91.5,147.2h2.9c1.1,0,2-0.9,2-2c0-1.1-0.9-2-2-2h-2.9V147.2z"/>
		<path class="st32" d="M110.2,142.5v9.1h-0.7v-4.4h-5.3v4.4h-0.7v-9.1h0.7v4.1h5.3v-4.1H110.2z"/>
		<path class="st32" d="M112.6,147.1c0-2.6,2.1-4.7,4.7-4.7s4.7,2.1,4.7,4.7s-2.1,4.7-4.7,4.7S112.6,149.7,112.6,147.1z
			 M121.3,147.1c0-2.2-1.8-4-4-4s-4,1.8-4,4c0,2.2,1.8,4,4,4S121.3,149.3,121.3,147.1z"/>
		<path class="st32" d="M131,142.5v9.1h-0.6l-5.4-7.8v7.8h-0.7v-9.1h0.6l5.4,7.8v-7.8H131z"/>
		<path class="st32" d="M133.4,147.1c0-2.6,2-4.7,4.7-4.7c1.7,0,3.1,0.9,3.9,2.2l-0.6,0.4c-0.6-1.1-1.9-1.9-3.3-1.9
			c-2.4,0-4,1.8-4,4c0,2.2,1.7,4,4,4c1.4,0,2.7-0.8,3.3-1.9l0.6,0.4c-0.7,1.3-2.2,2.2-3.9,2.2C135.4,151.8,133.4,149.7,133.4,147.1z
			"/>
		<path class="st32" d="M151,142.5v9.1h-0.7v-4.4H145v4.4h-0.7v-9.1h0.7v4.1h5.3v-4.1H151z"/>
		<path class="st32" d="M153.4,147.1c0-2.6,2.1-4.7,4.7-4.7s4.7,2.1,4.7,4.7s-2.1,4.7-4.7,4.7S153.4,149.7,153.4,147.1z
			 M162.1,147.1c0-2.2-1.8-4-4-4s-4,1.8-4,4c0,2.2,1.8,4,4,4S162.1,149.3,162.1,147.1z"/>
		<path class="st32" d="M168.8,147.1c0-2.6,2-4.7,4.7-4.7c1.7,0,3.1,0.9,3.9,2.2l-0.6,0.4c-0.6-1.1-1.9-1.9-3.3-1.9
			c-2.4,0-4,1.8-4,4c0,2.2,1.7,4,4,4c1.4,0,2.7-0.8,3.3-1.9l0.6,0.4c-0.7,1.3-2.2,2.2-3.9,2.2C170.8,151.8,168.8,149.7,168.8,147.1z
			"/>
		<path class="st32" d="M179.2,147.1c0-2.6,2.1-4.7,4.7-4.7s4.7,2.1,4.7,4.7s-2.1,4.7-4.7,4.7S179.2,149.7,179.2,147.1z
			 M187.9,147.1c0-2.2-1.8-4-4-4s-4,1.8-4,4c0,2.2,1.8,4,4,4S187.9,149.3,187.9,147.1z"/>
		<path class="st32" d="M197.6,142.5v9.1H197l-5.4-7.8v7.8H191v-9.1h0.6l5.4,7.8v-7.8H197.6z"/>
		<path class="st32" d="M206.2,143.2h-2.9v8.5h-0.7v-8.5h-2.9v-0.7h6.4V143.2z"/>
		<path class="st32" d="M211.8,147.9h-2.9v3.7h-0.7v-9.1h3.6c1.5,0,2.7,1.2,2.7,2.7c0,1.2-0.8,2.3-2,2.6l2.3,3.8H214L211.8,147.9z
			 M208.9,147.2h2.9c1.1,0,2-0.9,2-2c0-1.1-0.9-2-2-2h-2.9V147.2z"/>
		<path class="st32" d="M222.1,149.3h-4.6l-0.9,2.3h-0.7l3.5-9.1h0.7l3.5,9.1H223L222.1,149.3z M221.8,148.7l-2-5.3l-2,5.3H221.8z"
			/>
		<path class="st32" d="M224.8,147.1c0-2.6,2-4.7,4.7-4.7c1.7,0,3.1,0.9,3.9,2.2l-0.6,0.4c-0.6-1.1-1.9-1.9-3.3-1.9
			c-2.4,0-4,1.8-4,4c0,2.2,1.7,4,4,4c1.4,0,2.7-0.8,3.3-1.9l0.6,0.4c-0.7,1.3-2.2,2.2-3.9,2.2C226.8,151.8,224.8,149.7,224.8,147.1z
			"/>
		<path class="st32" d="M241.2,143.2h-2.9v8.5h-0.7v-8.5h-2.9v-0.7h6.4V143.2z"/>
		<path class="st32" d="M252.7,149.3h-4.6l-0.9,2.3h-0.7l3.5-9.1h0.7l3.5,9.1h-0.7L252.7,149.3z M252.4,148.7l-2-5.3l-2,5.3H252.4z"
			/>
		<path class="st32" d="M264,147.1c0,2.5-1.8,4.6-4.3,4.6h-3.4v-9.1h3.4C262.2,142.5,264,144.6,264,147.1z M263.3,147.1
			c0-2.2-1.5-3.9-3.6-3.9h-2.7v7.8h2.7C261.8,151,263.3,149.2,263.3,147.1z"/>
		<path class="st32" d="M274.1,147.1c0,2.5-1.8,4.6-4.3,4.6h-3.4v-9.1h3.4C272.3,142.5,274.1,144.6,274.1,147.1z M273.4,147.1
			c0-2.2-1.5-3.9-3.6-3.9H267v7.8h2.7C271.9,151,273.4,149.2,273.4,147.1z"/>
		<path class="st32" d="M280,147.9h-2.9v3.7h-0.7v-9.1h3.6c1.5,0,2.7,1.2,2.7,2.7c0,1.2-0.8,2.3-2,2.6l2.3,3.8h-0.8L280,147.9z
			 M277.1,147.2h2.9c1.1,0,2-0.9,2-2c0-1.1-0.9-2-2-2h-2.9V147.2z"/>
		<path class="st32" d="M290.3,151v0.6h-5.2v-9.1h5.2v0.7h-4.5v3.5h4.2v0.6h-4.2v3.6H290.3z"/>
		<path class="st32" d="M292.1,149.6l0.6-0.4c0.3,1.1,1.2,1.8,2.7,1.8c1.5,0,2.3-0.8,2.3-1.8c0-1.1-1-1.5-2.4-2
			c-1.5-0.5-2.9-0.9-2.9-2.5c0-1.5,1.2-2.4,2.8-2.4c1.5,0,2.5,0.9,2.9,1.9l-0.6,0.3c-0.3-0.8-1-1.6-2.3-1.6c-1.3,0-2.1,0.7-2.1,1.8
			c0,1.1,0.9,1.4,2.2,1.9c1.6,0.5,3,1,3,2.6c0,1.5-1.2,2.5-3,2.5C293.7,151.8,292.5,150.9,292.1,149.6z"/>
		<path class="st32" d="M299.9,149.6l0.6-0.4c0.3,1.1,1.2,1.8,2.7,1.8c1.5,0,2.3-0.8,2.3-1.8c0-1.1-1-1.5-2.4-2
			c-1.5-0.5-2.9-0.9-2.9-2.5c0-1.5,1.2-2.4,2.8-2.4c1.5,0,2.5,0.9,2.9,1.9l-0.6,0.3c-0.3-0.8-1-1.6-2.3-1.6c-1.3,0-2.1,0.7-2.1,1.8
			c0,1.1,0.9,1.4,2.2,1.9c1.6,0.5,3,1,3,2.6c0,1.5-1.2,2.5-3,2.5C301.5,151.8,300.3,150.9,299.9,149.6z"/>
		<path class="st32" d="M318.3,143.2h-2.9v8.5h-0.7v-8.5h-2.9v-0.7h6.4V143.2z"/>
		<path class="st32" d="M319.3,147.1c0-2.6,2.1-4.7,4.7-4.7s4.7,2.1,4.7,4.7s-2.1,4.7-4.7,4.7S319.3,149.7,319.3,147.1z M328,147.1
			c0-2.2-1.8-4-4-4s-4,1.8-4,4c0,2.2,1.8,4,4,4S328,149.3,328,147.1z"/>
		<path class="st32" d="M340.4,149.3h-4.6l-0.9,2.3h-0.7l3.5-9.1h0.7l3.5,9.1h-0.7L340.4,149.3z M340.2,148.7l-2-5.3l-2,5.3H340.2z"
			/>
		<path class="st32" d="M349,151v0.6h-5v-9.1h0.7v8.5H349z"/>
		<path class="st32" d="M356.1,151v0.6h-5v-9.1h0.7v8.5H356.1z"/>
		<path class="st32" d="M27.6,168.6v-6.1h0.7v6.1c0,1.5,0.9,2.5,2.6,2.5c1.7,0,2.7-1,2.7-2.5v-6.1h0.7v6.1c0,1.9-1.3,3.2-3.3,3.2
			S27.6,170.5,27.6,168.6z"/>
		<path class="st32" d="M36.5,169.6l0.6-0.4c0.3,1.1,1.2,1.8,2.7,1.8c1.5,0,2.3-0.8,2.3-1.8c0-1.1-1-1.5-2.4-2
			c-1.5-0.5-2.9-0.9-2.9-2.5c0-1.5,1.2-2.4,2.8-2.4c1.5,0,2.5,0.9,2.9,1.9l-0.6,0.3c-0.3-0.8-1-1.6-2.3-1.6c-1.3,0-2.1,0.7-2.1,1.8
			c0,1.1,0.9,1.4,2.2,1.9c1.6,0.5,3,1,3,2.6c0,1.5-1.2,2.5-3,2.5C38.1,171.8,36.9,170.9,36.5,169.6z"/>
		<path class="st32" d="M50.3,171v0.6h-5.2v-9.1h5.2v0.7h-4.5v3.5H50v0.6h-4.2v3.6H50.3z"/>
		<path class="st32" d="M56.2,167.9h-2.9v3.7h-0.7v-9.1h3.6c1.5,0,2.7,1.2,2.7,2.7c0,1.2-0.8,2.3-2,2.6l2.3,3.8h-0.8L56.2,167.9z
			 M53.4,167.2h2.9c1.1,0,2-0.9,2-2c0-1.1-0.9-2-2-2h-2.9V167.2z"/>
		<path class="st32" d="M60.6,169.6l0.6-0.4c0.3,1.1,1.2,1.8,2.7,1.8c1.5,0,2.3-0.8,2.3-1.8c0-1.1-1-1.5-2.4-2
			c-1.5-0.5-2.9-0.9-2.9-2.5c0-1.5,1.2-2.4,2.8-2.4c1.5,0,2.5,0.9,2.9,1.9l-0.6,0.3c-0.3-0.8-1-1.6-2.3-1.6c-1.3,0-2.1,0.7-2.1,1.8
			c0,1.1,0.9,1.4,2.2,1.9c1.6,0.5,3,1,3,2.6c0,1.5-1.2,2.5-3,2.5C62.3,171.8,61,170.9,60.6,169.6z"/>
		<path class="st32" d="M72.9,167.1c0-2.6,2.1-4.7,4.7-4.7s4.7,2.1,4.7,4.7s-2.1,4.7-4.7,4.7S72.9,169.7,72.9,167.1z M81.6,167.1
			c0-2.2-1.8-4-4-4s-4,1.8-4,4c0,2.2,1.8,4,4,4S81.6,169.3,81.6,167.1z"/>
		<path class="st32" d="M91.3,162.5v9.1h-0.6l-5.4-7.8v7.8h-0.7v-9.1h0.6l5.4,7.8v-7.8H91.3z"/>
		<path class="st32" d="M104,163.2h-2.9v8.5h-0.7v-8.5h-2.9v-0.7h6.4V163.2z"/>
		<path class="st32" d="M112.7,162.5v9.1H112v-4.4h-5.3v4.4H106v-9.1h0.7v4.1h5.3v-4.1H112.7z"/>
		<path class="st32" d="M120.9,171v0.6h-5.2v-9.1h5.2v0.7h-4.5v3.5h4.2v0.6h-4.2v3.6H120.9z"/>
		<path class="st32" d="M132.3,171v0.6h-5v-9.1h0.7v8.5H132.3z"/>
		<path class="st32" d="M139.6,171v0.6h-5.2v-9.1h5.2v0.7h-4.5v3.5h4.2v0.6h-4.2v3.6H139.6z"/>
		<path class="st32" d="M147.3,169.3h-4.6l-0.9,2.3h-0.7l3.5-9.1h0.7l3.5,9.1h-0.7L147.3,169.3z M147.1,168.7l-2-5.3l-2,5.3H147.1z"
			/>
		<path class="st32" d="M158.6,167.1c0,2.5-1.8,4.6-4.3,4.6h-3.4v-9.1h3.4C156.8,162.5,158.6,164.6,158.6,167.1z M157.9,167.1
			c0-2.2-1.5-3.9-3.6-3.9h-2.7v7.8h2.7C156.5,171,157.9,169.2,157.9,167.1z"/>
		<path class="st32" d="M166.3,171v0.6H161v-9.1h5.2v0.7h-4.5v3.5h4.2v0.6h-4.2v3.6H166.3z"/>
		<path class="st32" d="M172.2,167.9h-2.9v3.7h-0.7v-9.1h3.6c1.5,0,2.7,1.2,2.7,2.7c0,1.2-0.8,2.3-2,2.6l2.3,3.8h-0.8L172.2,167.9z
			 M169.3,167.2h2.9c1.1,0,2-0.9,2-2c0-1.1-0.9-2-2-2h-2.9V167.2z"/>
		<path class="st32" d="M183.6,169.1c0,1.4-1.1,2.5-2.5,2.5h-3.9v-9.1h3.6c1.3,0,2.4,1.1,2.4,2.4c0,0.9-0.5,1.6-1.2,2
			C183,167.3,183.6,168.1,183.6,169.1z M177.9,163.2v3.5h2.9c0.9,0,1.7-0.8,1.7-1.7c0-1-0.8-1.7-1.7-1.7H177.9z M182.9,169.1
			c0-1-0.8-1.8-1.8-1.8h-3.2v3.7h3.2C182.1,171,182.9,170.2,182.9,169.1z"/>
		<path class="st32" d="M185.4,167.1c0-2.6,2.1-4.7,4.7-4.7s4.7,2.1,4.7,4.7s-2.1,4.7-4.7,4.7S185.4,169.7,185.4,167.1z
			 M194.1,167.1c0-2.2-1.8-4-4-4s-4,1.8-4,4c0,2.2,1.8,4,4,4S194.1,169.3,194.1,167.1z"/>
		<path class="st32" d="M202.1,169.3h-4.6l-0.9,2.3H196l3.5-9.1h0.7l3.5,9.1H203L202.1,169.3z M201.9,168.7l-2-5.3l-2,5.3H201.9z"/>
		<path class="st32" d="M209.3,167.9h-2.9v3.7h-0.7v-9.1h3.6c1.5,0,2.7,1.2,2.7,2.7c0,1.2-0.8,2.3-2,2.6l2.3,3.8h-0.8L209.3,167.9z
			 M206.4,167.2h2.9c1.1,0,2-0.9,2-2c0-1.1-0.9-2-2-2h-2.9V167.2z"/>
		<path class="st32" d="M222.1,167.1c0,2.5-1.8,4.6-4.3,4.6h-3.4v-9.1h3.4C220.3,162.5,222.1,164.6,222.1,167.1z M221.4,167.1
			c0-2.2-1.5-3.9-3.6-3.9H215v7.8h2.7C219.9,171,221.4,169.2,221.4,167.1z"/>
		<path class="st32" d="M223.5,171.2c0-0.3,0.2-0.6,0.6-0.6c0.3,0,0.6,0.3,0.6,0.6s-0.3,0.6-0.6,0.6
			C223.7,171.8,223.5,171.5,223.5,171.2z"/>
	</g>
</g>
<g>
	<path class="st32" d="M52.2,72.7c0,5.7-4.4,10.5-11.5,10.5c-7.4,0-12.5-5.5-12.5-12.3s5.1-12.3,12.4-12.3c4.4,0,8.3,2.3,10.2,5.7
		l-1.6,1c-1.6-3-4.9-5-8.6-5C34.3,60.5,30,65.2,30,71c0,5.8,4.3,10.5,10.7,10.5c5.8,0,9.3-3.6,9.7-8H40.3v-1.7h11.9V72.7z"/>
	<path class="st32" d="M57.6,60.4c0-0.7,0.6-1.3,1.4-1.3s1.4,0.6,1.4,1.3c0,0.7-0.6,1.4-1.4,1.4S57.6,61.2,57.6,60.4z M58.1,65.9
		h1.7v17h-1.7V65.9z"/>
	<path class="st32" d="M81,65.9l-7.2,17h-2.1l-7.2-17h1.8l6.4,15.2l6.4-15.2H81z"/>
	<path class="st32" d="M85.3,60.4c0-0.7,0.6-1.3,1.4-1.3s1.4,0.6,1.4,1.3c0,0.7-0.6,1.4-1.4,1.4S85.3,61.2,85.3,60.4z M85.8,65.9
		h1.7v17h-1.7V65.9z"/>
	<path class="st32" d="M108.8,72.3v10.6h-1.7V72.3c0-3.1-1.8-5.2-5-5.2c-3.3,0-5.9,2.2-5.9,6.8v9h-1.7v-17h1.7v3.2
		c1.3-2.5,3.5-3.6,6.1-3.6C106.3,65.5,108.8,68.2,108.8,72.3z"/>
	<path class="st32" d="M132.1,65.9v16.2c0,5.1-3.8,8-8.5,8c-4,0-6.8-1.6-8-4.1l1.5-0.9c0.9,1.8,2.8,3.3,6.5,3.3
		c4.2,0,6.8-2.5,6.8-6.4V79c-1.4,2.6-4,4.3-7.3,4.3c-4.9,0-8.8-3.8-8.8-8.9c0-5,3.9-8.9,8.8-8.9c3.3,0,5.9,1.7,7.3,4.3v-3.9H132.1z
		 M130.4,74.4c0-4-3.2-7.2-7.2-7.2s-7.2,3.2-7.2,7.2c0,4,3.2,7.2,7.2,7.2S130.4,78.4,130.4,74.4z"/>
	<path class="st32" d="M166.9,76.4c0,3.6-2.9,6.5-6.5,6.5h-10.3V59.1h9.5c3.5,0,6.3,2.8,6.3,6.3c0,2.3-1.2,4.2-3.1,5.2
		C165.2,71.5,166.9,73.7,166.9,76.4z M152,60.8v9.1h7.7c2.4,0,4.5-2,4.5-4.6c0-2.5-2-4.6-4.5-4.6H152z M165.1,76.4
		c0-2.7-2.1-4.8-4.7-4.8H152v9.6h8.5C163,81.2,165.1,79.1,165.1,76.4z"/>
	<path class="st32" d="M189.4,65.9v17h-1.7v-3.8c-1.4,2.5-4,4.2-7.3,4.2c-4.8,0-8.8-3.8-8.8-8.9c0-5,4-8.9,8.8-8.9
		c3.3,0,5.9,1.7,7.3,4.2v-3.8H189.4z M187.7,74.4c0-4-3.1-7.2-7.2-7.2c-4,0-7.2,3.2-7.2,7.2c0,4,3.2,7.2,7.2,7.2
		C184.5,81.6,187.7,78.4,187.7,74.4z"/>
	<path class="st32" d="M195.2,74.4c0-5,3.8-8.9,8.9-8.9c3.3,0,6.2,1.7,7.4,4.4l-1.4,0.8c-1-2.1-3.3-3.5-6-3.5
		c-4.1,0-7.2,3.2-7.2,7.2c0,4,3.1,7.2,7.2,7.2c2.8,0,5-1.4,6.1-3.5l1.4,0.9c-1.4,2.6-4.2,4.3-7.5,4.3
		C199,83.3,195.2,79.4,195.2,74.4z"/>
	<path class="st32" d="M227.8,82.9l-9-8.4v8.4h-1.7V59.1h1.7v14.5l8.6-7.7h2.4l-9.1,8.2l9.5,8.8H227.8z"/>
</g>
<g>
	<g>
		<path class="st32" d="M313.5,182.9h-2c-0.2,0-0.3,0.1-0.3,0.2l-3.7,8.3h-0.1l-3.7-8.3c0-0.1-0.2-0.2-0.3-0.2h-2
			c-0.3,0-0.4,0.3-0.3,0.5l6,13c0.1,0.1,0.2,0.2,0.3,0.2h0.2c0.2,0,0.3-0.1,0.3-0.2l6-13C313.9,183.2,313.8,182.9,313.5,182.9z"/>
		<path class="st32" d="M326.8,182.9h-8.4c-0.2,0-0.4,0.2-0.4,0.4v1.6c0,0.2,0.2,0.4,0.4,0.4h3v10.8c0,0.2,0.2,0.4,0.4,0.4h1.8
			c0.2,0,0.4-0.2,0.4-0.4v-10.8h3c0.2,0,0.4-0.2,0.4-0.4v-1.6C327.1,183.1,327,182.9,326.8,182.9z"/>
		<path class="st32" d="M341.9,187.1c0-2.3-1.9-4.1-4.2-4.1h-5.5c-0.2,0-0.4,0.2-0.4,0.4v12.8c0,0.2,0.2,0.4,0.4,0.4h1.8
			c0.2,0,0.4-0.2,0.4-0.4v-4.9h2.1l2.6,5.1c0,0.1,0.1,0.2,0.3,0.2h2c0.3,0,0.5-0.3,0.3-0.6L339,191
			C340.7,190.3,341.9,188.8,341.9,187.1z M337.4,189.1h-3.1v-3.8h3.1c1,0,1.9,0.8,1.9,1.9C339.3,188.2,338.5,189.1,337.4,189.1z"/>
		<path class="st32" d="M356.9,182.9h-1.8c-0.2,0-0.4,0.2-0.4,0.4v7.9c0,1.6-1.1,2.9-2.8,2.9c-1.7,0-2.8-1.3-2.8-2.9v-7.9
			c0-0.2-0.2-0.4-0.4-0.4h-1.8c-0.2,0-0.4,0.2-0.4,0.4v8c0,2.9,2.3,5.3,5.4,5.3c3,0,5.4-2.4,5.4-5.3v-8
			C357.3,183.1,357.1,182.9,356.9,182.9z"/>
	</g>
	<g>
		<path class="st32" d="M287.4,187.6c0.1-0.2-0.2-0.5-0.4-0.3l-10.5,8c-0.1,0.1-0.1,0.2-0.1,0.3l2.9,5.1c0.1,0.2,0.3,0.2,0.4,0
			l4.8-8.3L287.4,187.6z"/>
		<path class="st32" d="M277.8,183.8H270c-0.2,0-0.3,0.2-0.2,0.4l4.8,8.2h0c0.1,0.2,0.4,0.2,0.5,0l3-8.2
			C278.1,184,278,183.8,277.8,183.8z"/>
		<path class="st32" d="M279.6,181.9h11c-2.4-3.4-6.5-5.7-11-5.7s-8.5,2.2-11,5.7H279.6z"/>
		<path class="st32" d="M291.7,183.9l-5.5,9.6l-5.7,9.8c7-0.5,12.5-6.3,12.5-13.5C293.1,187.7,292.6,185.6,291.7,183.9z"/>
		<path class="st32" d="M272.9,193.4l-5.5-9.6c-0.9,1.8-1.4,3.8-1.4,5.9c0,7.1,5.5,13,12.6,13.5L272.9,193.4z"/>
		<path class="st32" d="M287.6,183.8h-7.2c-0.1,0-0.2,0.1-0.2,0.2l-2.8,7.6c-0.1,0.2,0.2,0.4,0.4,0.3l10-7.6
			C288,184.2,287.8,183.8,287.6,183.8z"/>
	</g>
</g>
</svg>
