<?xml version="1.0" encoding="utf-8"?>
<!-- Generator: Adobe Illustrator 27.9.0, SVG Export Plug-In . SVG Version: 6.00 Build 0)  -->
<svg version="1.1" id="Layer_1" xmlns="http://www.w3.org/2000/svg" xmlns:xlink="http://www.w3.org/1999/xlink" x="0px" y="0px"
	 viewBox="0 0 410 218" style="enable-background:new 0 0 410 218;" xml:space="preserve">
<style type="text/css">
	.st0{fill:#666666;}
	.st1{fill:#FFFFFF;}
</style>
<path class="st0" d="M402.6,216.2H8.7c-3.7,0-6.6-3-6.6-6.6V9.7c0-3.7,3-6.6,6.6-6.6h393.9c3.7,0,6.6,3,6.6,6.6v199.8
	C409.2,213.2,406.2,216.2,402.6,216.2z"/>
<g>
	<g>
		<path class="st1" d="M31.4,36.8h-3.9l-0.5,1.6h-2.6L27.9,28h3.1l3.6,10.5h-2.6L31.4,36.8z M30.6,34.6l-1.2-3.9l-1.2,3.9H30.6z"/>
		<path class="st1" d="M46.2,33.5c0,3.2-2.2,5.2-5.2,5.2c-3.3,0-5.7-2.4-5.7-5.4c0-3,2.4-5.5,5.5-5.5c2,0,3.7,1,4.6,2.4l-2,1.2
			c-0.4-0.7-1.4-1.2-2.6-1.2c-1.8,0-3.1,1.3-3.1,3.1c0,1.8,1.3,3.1,3.3,3.1c1.4,0,2.3-0.6,2.7-1.6h-2.8v-2.1h5.3V33.5z"/>
		<path class="st1" d="M54.9,36.1v2.3h-6.6V28h6.5v2.3h-4.1V32h3.8v2.3h-3.8v1.9H54.9z"/>
		<path class="st1" d="M65.2,28v10.5h-1.8l-4-5.7v5.7H57V28h1.8l4,5.7V28H65.2z"/>
		<path class="st1" d="M67.3,33.2c0-3.1,2.3-5.5,5.5-5.5c1.9,0,3.6,0.9,4.5,2.4l-2.1,1.2c-0.5-0.8-1.4-1.3-2.4-1.3
			c-1.9,0-3.1,1.2-3.1,3.1c0,1.9,1.2,3.1,3.1,3.1c1.1,0,2-0.5,2.4-1.3l2.1,1.2c-0.9,1.5-2.6,2.4-4.5,2.4
			C69.6,38.7,67.3,36.3,67.3,33.2z"/>
		<path class="st1" d="M84,34.4v4h-2.4v-4L78,28h2.7l2,4l2-4h2.7L84,34.4z"/>
		<path class="st1" d="M97.2,35H96v3.4h-2.4V28h4.2c2,0,3.6,1.6,3.6,3.6c0,1.3-0.8,2.5-1.9,3l2.2,3.9h-2.6L97.2,35z M96,32.9h1.8
			c0.7,0,1.2-0.6,1.2-1.4c0-0.8-0.5-1.3-1.2-1.3H96V32.9z"/>
		<path class="st1" d="M110.2,36.1v2.3h-6.6V28h6.5v2.3H106V32h3.8v2.3H106v1.9H110.2z"/>
		<path class="st1" d="M111.6,28h2.5l1.8,7.3l2-7.3h1.9l2,7.3l1.8-7.3h2.5l-2.9,10.5h-2.7l-1.7-6.2l-1.7,6.2h-2.7L111.6,28z"/>
		<path class="st1" d="M133.6,36.8h-3.9l-0.5,1.6h-2.6l3.6-10.5h3.1l3.6,10.5h-2.6L133.6,36.8z M132.9,34.6l-1.2-3.9l-1.2,3.9H132.9
			z"/>
		<path class="st1" d="M141.9,35h-1.1v3.4h-2.4V28h4.2c2,0,3.6,1.6,3.6,3.6c0,1.3-0.8,2.5-1.9,3l2.2,3.9h-2.6L141.9,35z M140.8,32.9
			h1.8c0.7,0,1.2-0.6,1.2-1.4c0-0.8-0.5-1.3-1.2-1.3h-1.8V32.9z"/>
		<path class="st1" d="M157.7,33.2c0,3-2.2,5.2-5.1,5.2h-4.2V28h4.2C155.4,28,157.7,30.2,157.7,33.2z M155.3,33.2
			c0-1.8-1.1-2.9-2.8-2.9h-1.8v5.9h1.8C154.2,36.1,155.3,35,155.3,33.2z"/>
		<path class="st1" d="M158.9,36.1l2.1-1.2c0.4,0.9,1,1.5,2.2,1.5c1.1,0,1.4-0.5,1.4-0.9c0-0.6-0.6-0.9-2.2-1.3
			c-1.6-0.4-3.1-1.2-3.1-3.2c0-2,1.7-3.2,3.5-3.2c1.7,0,3.1,0.8,3.8,2.4l-2,1.2c-0.4-0.8-0.9-1.2-1.8-1.2c-0.8,0-1.1,0.4-1.1,0.8
			c0,0.5,0.3,0.8,1.9,1.3c1.6,0.5,3.4,1,3.4,3.3c0,2-1.6,3.2-3.9,3.2C160.8,38.7,159.4,37.6,158.9,36.1z"/>
	</g>
</g>
<g>
	<g>
		<path class="st1" d="M30.7,109.1h-4.6l-0.9,2.3h-0.7l3.5-9.1h0.7l3.5,9.1h-0.7L30.7,109.1z M30.4,108.5l-2-5.3l-2,5.3H30.4z"/>
		<path class="st1" d="M39.2,110.8v0.6h-5v-9.1h0.7v8.5H39.2z"/>
		<path class="st1" d="M46.3,110.8v0.6h-5v-9.1H42v8.5H46.3z"/>
		<path class="st1" d="M57.5,110.8v0.6h-5v-9.1h0.7v8.5H57.5z"/>
		<path class="st1" d="M64.8,110.8v0.6h-5.2v-9.1h5.2v0.7h-4.5v3.5h4.2v0.6h-4.2v3.6H64.8z"/>
		<path class="st1" d="M72.5,109.1h-4.6l-0.9,2.3h-0.7l3.5-9.1h0.7l3.5,9.1h-0.7L72.5,109.1z M72.3,108.5l-2-5.3l-2,5.3H72.3z"/>
		<path class="st1" d="M83.8,106.9c0,2.5-1.8,4.6-4.3,4.6h-3.4v-9.1h3.4C82,102.4,83.8,104.4,83.8,106.9z M83.1,106.9
			c0-2.2-1.5-3.9-3.6-3.9h-2.7v7.8h2.7C81.7,110.8,83.1,109.1,83.1,106.9z"/>
		<path class="st1" d="M91.4,110.8v0.6h-5.2v-9.1h5.2v0.7h-4.5v3.5H91v0.6h-4.2v3.6H91.4z"/>
		<path class="st1" d="M97.3,107.7h-2.9v3.7h-0.7v-9.1h3.6c1.5,0,2.7,1.2,2.7,2.7c0,1.2-0.8,2.3-2,2.6l2.3,3.8h-0.8L97.3,107.7z
			 M94.5,107.1h2.9c1.1,0,2-0.9,2-2c0-1.1-0.9-2-2-2h-2.9V107.1z"/>
		<path class="st1" d="M108.8,109c0,1.4-1.1,2.5-2.5,2.5h-3.9v-9.1h3.6c1.3,0,2.4,1.1,2.4,2.4c0,0.9-0.5,1.6-1.2,2
			C108.2,107.1,108.8,107.9,108.8,109z M103.1,103v3.5h2.9c0.9,0,1.7-0.8,1.7-1.7c0-1-0.8-1.7-1.7-1.7H103.1z M108.1,109
			c0-1-0.8-1.8-1.8-1.8h-3.2v3.7h3.2C107.3,110.8,108.1,110,108.1,109z"/>
		<path class="st1" d="M110.6,106.9c0-2.6,2.1-4.7,4.7-4.7s4.7,2.1,4.7,4.7s-2.1,4.7-4.7,4.7S110.6,109.5,110.6,106.9z M119.3,106.9
			c0-2.2-1.8-4-4-4s-4,1.8-4,4c0,2.2,1.8,4,4,4S119.3,109.1,119.3,106.9z"/>
		<path class="st1" d="M127.3,109.1h-4.6l-0.9,2.3h-0.7l3.5-9.1h0.7l3.5,9.1h-0.7L127.3,109.1z M127.1,108.5l-2-5.3l-2,5.3H127.1z"
			/>
		<path class="st1" d="M134.5,107.7h-2.9v3.7h-0.7v-9.1h3.6c1.5,0,2.7,1.2,2.7,2.7c0,1.2-0.8,2.3-2,2.6l2.3,3.8h-0.8L134.5,107.7z
			 M131.6,107.1h2.9c1.1,0,2-0.9,2-2c0-1.1-0.9-2-2-2h-2.9V107.1z"/>
		<path class="st1" d="M147.2,106.9c0,2.5-1.8,4.6-4.3,4.6h-3.4v-9.1h3.4C145.4,102.4,147.2,104.4,147.2,106.9z M146.6,106.9
			c0-2.2-1.5-3.9-3.6-3.9h-2.7v7.8h2.7C145.1,110.8,146.6,109.1,146.6,106.9z"/>
		<path class="st1" d="M153.6,108.4v-6.1h0.7v6.1c0,1.5,0.9,2.5,2.6,2.5c1.7,0,2.7-1,2.7-2.5v-6.1h0.7v6.1c0,1.9-1.3,3.2-3.3,3.2
			S153.6,110.3,153.6,108.4z"/>
		<path class="st1" d="M162.5,109.5l0.6-0.4c0.3,1.1,1.2,1.8,2.7,1.8c1.5,0,2.3-0.8,2.3-1.8c0-1.1-1-1.5-2.4-2
			c-1.5-0.5-2.9-0.9-2.9-2.5c0-1.5,1.2-2.4,2.8-2.4c1.5,0,2.5,0.9,2.9,1.9l-0.6,0.3c-0.3-0.8-1-1.6-2.3-1.6c-1.3,0-2.1,0.7-2.1,1.8
			c0,1.1,0.9,1.4,2.2,1.9c1.6,0.5,3,1,3,2.6c0,1.5-1.2,2.5-3,2.5C164.1,111.6,162.9,110.7,162.5,109.5z"/>
		<path class="st1" d="M176.4,110.8v0.6h-5.2v-9.1h5.2v0.7h-4.5v3.5h4.2v0.6h-4.2v3.6H176.4z"/>
		<path class="st1" d="M182.3,107.7h-2.9v3.7h-0.7v-9.1h3.6c1.5,0,2.7,1.2,2.7,2.7c0,1.2-0.8,2.3-2,2.6l2.3,3.8h-0.8L182.3,107.7z
			 M179.4,107.1h2.9c1.1,0,2-0.9,2-2c0-1.1-0.9-2-2-2h-2.9V107.1z"/>
		<path class="st1" d="M186.6,109.5l0.6-0.4c0.3,1.1,1.2,1.8,2.7,1.8c1.5,0,2.3-0.8,2.3-1.8c0-1.1-1-1.5-2.4-2
			c-1.5-0.5-2.9-0.9-2.9-2.5c0-1.5,1.2-2.4,2.8-2.4c1.5,0,2.5,0.9,2.9,1.9l-0.6,0.3c-0.3-0.8-1-1.6-2.3-1.6c-1.3,0-2.1,0.7-2.1,1.8
			c0,1.1,0.9,1.4,2.2,1.9c1.6,0.5,3,1,3,2.6c0,1.5-1.2,2.5-3,2.5C188.3,111.6,187,110.7,186.6,109.5z"/>
		<path class="st1" d="M198.7,102.4h0.7l2.4,8.2l2.5-8.2h0.8l2.5,8.2l2.3-8.2h0.7l-2.6,9.1h-0.8l-2.5-8.2l-2.6,8.2h-0.8L198.7,102.4
			z"/>
		<path class="st1" d="M213.7,102.4v9.1H213v-9.1H213.7z"/>
		<path class="st1" d="M221.6,110.8v0.6h-5v-9.1h0.7v8.5H221.6z"/>
		<path class="st1" d="M228.6,110.8v0.6h-5v-9.1h0.7v8.5H228.6z"/>
		<path class="st1" d="M241.5,102.4v9.1h-0.7v-4.4h-5.3v4.4h-0.7v-9.1h0.7v4.1h5.3v-4.1H241.5z"/>
		<path class="st1" d="M249.6,109.1h-4.6l-0.9,2.3h-0.7l3.5-9.1h0.7l3.5,9.1h-0.7L249.6,109.1z M249.4,108.5l-2-5.3l-2,5.3H249.4z"
			/>
		<path class="st1" d="M251.7,102.4h0.8l3,8.2l3-8.2h0.7l-3.4,9.1h-0.7L251.7,102.4z"/>
		<path class="st1" d="M266.5,110.8v0.6h-5.2v-9.1h5.2v0.7h-4.5v3.5h4.2v0.6h-4.2v3.6H266.5z"/>
		<path class="st1" d="M272.2,102.4h0.7l2.4,8.2l2.5-8.2h0.8l2.5,8.2l2.3-8.2h0.7l-2.6,9.1h-0.8l-2.5-8.2l-2.6,8.2h-0.8L272.2,102.4
			z"/>
		<path class="st1" d="M293.1,102.4v9.1h-0.7v-4.4h-5.3v4.4h-0.7v-9.1h0.7v4.1h5.3v-4.1H293.1z"/>
		<path class="st1" d="M296.7,102.4v9.1h-0.7v-9.1H296.7z"/>
		<path class="st1" d="M305.2,103h-2.9v8.5h-0.7V103h-2.9v-0.7h6.4V103z"/>
		<path class="st1" d="M312.6,110.8v0.6h-5.2v-9.1h5.2v0.7H308v3.5h4.2v0.6H308v3.6H312.6z"/>
		<path class="st1" d="M319.9,110.8v0.6h-5v-9.1h0.7v8.5H319.9z"/>
		<path class="st1" d="M322.7,102.4v9.1H322v-9.1H322.7z"/>
		<path class="st1" d="M324.9,109.5l0.6-0.4c0.3,1.1,1.2,1.8,2.7,1.8c1.5,0,2.3-0.8,2.3-1.8c0-1.1-1-1.5-2.4-2
			c-1.5-0.5-2.9-0.9-2.9-2.5c0-1.5,1.2-2.4,2.8-2.4c1.5,0,2.5,0.9,2.9,1.9l-0.6,0.3c-0.3-0.8-1-1.6-2.3-1.6c-1.3,0-2.1,0.7-2.1,1.8
			c0,1.1,0.9,1.4,2.2,1.9c1.6,0.5,3,1,3,2.6c0,1.5-1.2,2.5-3,2.5C326.5,111.6,325.3,110.7,324.9,109.5z"/>
		<path class="st1" d="M338.8,103H336v8.5h-0.7V103h-2.9v-0.7h6.4V103z"/>
		<path class="st1" d="M30.7,129.1h-4.6l-0.9,2.3h-0.7l3.5-9.1h0.7l3.5,9.1h-0.7L30.7,129.1z M30.4,128.5l-2-5.3l-2,5.3H30.4z"/>
		<path class="st1" d="M33.4,126.9c0-2.6,2-4.7,4.7-4.7c1.7,0,3.1,0.9,3.9,2.2l-0.6,0.4c-0.6-1.1-1.9-1.9-3.3-1.9c-2.4,0-4,1.8-4,4
			c0,2.2,1.7,4,4,4c1.4,0,2.7-0.8,3.3-1.9l0.6,0.4c-0.7,1.3-2.2,2.2-3.9,2.2C35.4,131.6,33.4,129.5,33.4,126.9z"/>
		<path class="st1" d="M43.8,126.9c0-2.6,2-4.7,4.7-4.7c1.7,0,3.1,0.9,3.9,2.2l-0.6,0.4c-0.6-1.1-1.9-1.9-3.3-1.9c-2.4,0-4,1.8-4,4
			c0,2.2,1.7,4,4,4c1.4,0,2.7-0.8,3.3-1.9l0.6,0.4c-0.7,1.3-2.2,2.2-3.9,2.2C45.8,131.6,43.8,129.5,43.8,126.9z"/>
		<path class="st1" d="M60,130.8v0.6h-5.2v-9.1h5.2v0.7h-4.5v3.5h4.2v0.6h-4.2v3.6H60z"/>
		<path class="st1" d="M61.8,129.5l0.6-0.4c0.3,1.1,1.2,1.8,2.7,1.8c1.5,0,2.3-0.8,2.3-1.8c0-1.1-1-1.5-2.4-2
			c-1.5-0.5-2.9-0.9-2.9-2.5c0-1.5,1.2-2.4,2.8-2.4c1.5,0,2.5,0.9,2.9,1.9l-0.6,0.3c-0.3-0.8-1-1.6-2.3-1.6c-1.3,0-2.1,0.7-2.1,1.8
			c0,1.1,0.9,1.4,2.2,1.9c1.6,0.5,3,1,3,2.6c0,1.5-1.2,2.5-3,2.5C63.4,131.6,62.2,130.7,61.8,129.5z"/>
		<path class="st1" d="M69.6,129.5l0.6-0.4c0.3,1.1,1.2,1.8,2.7,1.8c1.5,0,2.3-0.8,2.3-1.8c0-1.1-1-1.5-2.4-2
			c-1.5-0.5-2.9-0.9-2.9-2.5c0-1.5,1.2-2.4,2.8-2.4c1.5,0,2.5,0.9,2.9,1.9l-0.6,0.3c-0.3-0.8-1-1.6-2.3-1.6c-1.3,0-2.1,0.7-2.1,1.8
			c0,1.1,0.9,1.4,2.2,1.9c1.6,0.5,3,1,3,2.6c0,1.5-1.2,2.5-3,2.5C71.2,131.6,70,130.7,69.6,129.5z"/>
		<path class="st1" d="M88,123h-2.9v8.5h-0.7V123h-2.9v-0.7H88V123z"/>
		<path class="st1" d="M89,126.9c0-2.6,2.1-4.7,4.7-4.7s4.7,2.1,4.7,4.7s-2.1,4.7-4.7,4.7S89,129.5,89,126.9z M97.7,126.9
			c0-2.2-1.8-4-4-4s-4,1.8-4,4c0,2.2,1.8,4,4,4S97.7,129.1,97.7,126.9z"/>
		<path class="st1" d="M110.5,123h-2.9v8.5h-0.7V123h-2.9v-0.7h6.4V123z"/>
		<path class="st1" d="M119.2,122.4v9.1h-0.7v-4.4h-5.3v4.4h-0.7v-9.1h0.7v4.1h5.3v-4.1H119.2z"/>
		<path class="st1" d="M127.4,130.8v0.6h-5.2v-9.1h5.2v0.7h-4.5v3.5h4.2v0.6h-4.2v3.6H127.4z"/>
		<path class="st1" d="M139.1,130.8v0.6h-5.2v-9.1h5.2v0.7h-4.5v3.5h4.2v0.6h-4.2v3.6H139.1z"/>
		<path class="st1" d="M147.3,125.2c0,1.6-1.2,2.8-2.8,2.8h-2.4v3.5h-0.7v-9.1h3.1C146.2,122.4,147.3,123.6,147.3,125.2z
			 M146.7,125.2c0-1.3-0.9-2.2-2.1-2.2h-2.4v4.3h2.4C145.8,127.3,146.7,126.4,146.7,125.2z"/>
		<path class="st1" d="M154.7,130.8v0.6h-5v-9.1h0.7v8.5H154.7z"/>
		<path class="st1" d="M162.3,129.1h-4.6l-0.9,2.3h-0.7l3.5-9.1h0.7l3.5,9.1h-0.7L162.3,129.1z M162,128.5l-2-5.3l-2,5.3H162z"/>
		<path class="st1" d="M167.7,127.7v3.7H167v-3.7l-3.3-5.4h0.8l2.9,4.7l2.9-4.7h0.8L167.7,127.7z"/>
		<path class="st1" d="M171.8,129.5l0.6-0.4c0.3,1.1,1.2,1.8,2.7,1.8c1.5,0,2.3-0.8,2.3-1.8c0-1.1-1-1.5-2.4-2
			c-1.5-0.5-2.9-0.9-2.9-2.5c0-1.5,1.2-2.4,2.8-2.4c1.5,0,2.5,0.9,2.9,1.9l-0.6,0.3c-0.3-0.8-1-1.6-2.3-1.6c-1.3,0-2.1,0.7-2.1,1.8
			c0,1.1,0.9,1.4,2.2,1.9c1.6,0.5,3,1,3,2.6c0,1.5-1.2,2.5-3,2.5C173.5,131.6,172.3,130.7,171.8,129.5z"/>
		<path class="st1" d="M189.9,130.8v0.6h-5.2v-9.1h5.2v0.7h-4.5v3.5h4.2v0.6h-4.2v3.6H189.9z"/>
		<path class="st1" d="M191.6,126.9c0-2.6,2-4.7,4.7-4.7c1.7,0,3.1,0.9,3.9,2.2l-0.6,0.4c-0.6-1.1-1.9-1.9-3.3-1.9c-2.4,0-4,1.8-4,4
			c0,2.2,1.7,4,4,4c1.4,0,2.7-0.8,3.3-1.9l0.6,0.4c-0.7,1.3-2.2,2.2-3.9,2.2C193.6,131.6,191.6,129.5,191.6,126.9z"/>
		<path class="st1" d="M202,126.9c0-2.6,2.1-4.7,4.7-4.7s4.7,2.1,4.7,4.7s-2.1,4.7-4.7,4.7S202,129.5,202,126.9z M210.7,126.9
			c0-2.2-1.8-4-4-4s-4,1.8-4,4c0,2.2,1.8,4,4,4S210.7,129.1,210.7,126.9z"/>
		<path class="st1" d="M212.9,129.5l0.6-0.4c0.3,1.1,1.2,1.8,2.7,1.8c1.5,0,2.3-0.8,2.3-1.8c0-1.1-1-1.5-2.4-2
			c-1.5-0.5-2.9-0.9-2.9-2.5c0-1.5,1.2-2.4,2.8-2.4c1.5,0,2.5,0.9,2.9,1.9l-0.6,0.3c-0.3-0.8-1-1.6-2.3-1.6c-1.3,0-2.1,0.7-2.1,1.8
			c0,1.1,0.9,1.4,2.2,1.9c1.6,0.5,3,1,3,2.6c0,1.5-1.2,2.5-3,2.5C214.6,131.6,213.3,130.7,212.9,129.5z"/>
		<path class="st1" d="M224.2,127.7v3.7h-0.7v-3.7l-3.3-5.4h0.8l2.9,4.7l2.9-4.7h0.8L224.2,127.7z"/>
		<path class="st1" d="M228.4,129.5l0.6-0.4c0.3,1.1,1.2,1.8,2.7,1.8c1.5,0,2.3-0.8,2.3-1.8c0-1.1-1-1.5-2.4-2
			c-1.5-0.5-2.9-0.9-2.9-2.5c0-1.5,1.2-2.4,2.8-2.4c1.5,0,2.5,0.9,2.9,1.9l-0.6,0.3c-0.3-0.8-1-1.6-2.3-1.6c-1.3,0-2.1,0.7-2.1,1.8
			c0,1.1,0.9,1.4,2.2,1.9c1.6,0.5,3,1,3,2.6c0,1.5-1.2,2.5-3,2.5C230,131.6,228.8,130.7,228.4,129.5z"/>
		<path class="st1" d="M242.3,123h-2.9v8.5h-0.7V123h-2.9v-0.7h6.4V123z"/>
		<path class="st1" d="M249.6,130.8v0.6h-5.2v-9.1h5.2v0.7h-4.5v3.5h4.2v0.6h-4.2v3.6H249.6z"/>
		<path class="st1" d="M260.2,131.5h-0.7v-8.1l-3.4,5.6H256l-3.4-5.6v8.1h-0.7v-9.1h0.9l3.2,5.4l3.2-5.4h0.9V131.5z"/>
		<path class="st1" d="M266.7,126.9c0-2.6,2.1-4.7,4.7-4.7s4.7,2.1,4.7,4.7s-2.1,4.7-4.7,4.7S266.7,129.5,266.7,126.9z M275.4,126.9
			c0-2.2-1.8-4-4-4s-4,1.8-4,4c0,2.2,1.8,4,4,4S275.4,129.1,275.4,126.9z"/>
		<path class="st1" d="M279.2,123v3.6h4.2v0.6h-4.2v4.2h-0.7v-9.1h5v0.7H279.2z"/>
		<path class="st1" d="M295.9,125.2c0,1.6-1.2,2.8-2.8,2.8h-2.4v3.5H290v-9.1h3.1C294.7,122.4,295.9,123.6,295.9,125.2z
			 M295.2,125.2c0-1.3-0.9-2.2-2.1-2.2h-2.4v4.3h2.4C294.3,127.3,295.2,126.4,295.2,125.2z"/>
		<path class="st1" d="M301.8,127.7h-2.9v3.7h-0.7v-9.1h3.6c1.5,0,2.7,1.2,2.7,2.7c0,1.2-0.8,2.3-2,2.6l2.3,3.8H304L301.8,127.7z
			 M298.9,127.1h2.9c1.1,0,2-0.9,2-2c0-1.1-0.9-2-2-2h-2.9V127.1z"/>
		<path class="st1" d="M306.4,126.9c0-2.6,2.1-4.7,4.7-4.7s4.7,2.1,4.7,4.7s-2.1,4.7-4.7,4.7S306.4,129.5,306.4,126.9z M315,126.9
			c0-2.2-1.8-4-4-4s-4,1.8-4,4c0,2.2,1.8,4,4,4S315,129.1,315,126.9z"/>
		<path class="st1" d="M317,130.1l0.6-0.4c0.3,0.8,1.1,1.2,2.1,1.2c1.3,0,2.2-0.7,2.2-2v-6.6h0.7v6.6c0,1.7-1.3,2.6-2.9,2.6
			C318.5,131.6,317.5,131.1,317,130.1z"/>
		<path class="st1" d="M330.7,130.8v0.6h-5.2v-9.1h5.2v0.7h-4.5v3.5h4.2v0.6h-4.2v3.6H330.7z"/>
		<path class="st1" d="M332.4,126.9c0-2.6,2-4.7,4.7-4.7c1.7,0,3.1,0.9,3.9,2.2l-0.6,0.4c-0.6-1.1-1.9-1.9-3.3-1.9c-2.4,0-4,1.8-4,4
			c0,2.2,1.7,4,4,4c1.4,0,2.7-0.8,3.3-1.9l0.6,0.4c-0.7,1.3-2.2,2.2-3.9,2.2C334.4,131.6,332.4,129.5,332.4,126.9z"/>
		<path class="st1" d="M348.8,123H346v8.5h-0.7V123h-2.9v-0.7h6.4V123z"/>
		<path class="st1" d="M350.1,129.5l0.6-0.4c0.3,1.1,1.2,1.8,2.7,1.8c1.5,0,2.3-0.8,2.3-1.8c0-1.1-1-1.5-2.4-2
			c-1.5-0.5-2.9-0.9-2.9-2.5c0-1.5,1.2-2.4,2.8-2.4c1.5,0,2.5,0.9,2.9,1.9l-0.6,0.3c-0.3-0.8-1-1.6-2.3-1.6c-1.3,0-2.1,0.7-2.1,1.8
			c0,1.1,0.9,1.4,2.2,1.9c1.6,0.5,3,1,3,2.6c0,1.5-1.2,2.5-3,2.5C351.7,131.6,350.5,130.7,350.1,129.5z"/>
		<path class="st1" d="M358.8,133.3h-0.6l0.5-2.7h0.8L358.8,133.3z"/>
		<path class="st1" d="M29,147.7h-2.9v3.7h-0.7v-9.1H29c1.5,0,2.7,1.2,2.7,2.7c0,1.2-0.8,2.3-2,2.6l2.3,3.8h-0.8L29,147.7z
			 M26.1,147.1H29c1.1,0,2-0.9,2-2c0-1.1-0.9-2-2-2h-2.9V147.1z"/>
		<path class="st1" d="M39.3,150.8v0.6h-5.2v-9.1h5.2v0.7h-4.5v3.5h4.2v0.6h-4.2v3.6H39.3z"/>
		<path class="st1" d="M40.9,142.4h0.7l2.4,8.2l2.5-8.2h0.8l2.5,8.2l2.3-8.2H53l-2.6,9.1h-0.8l-2.5-8.2l-2.6,8.2h-0.8L40.9,142.4z"
			/>
		<path class="st1" d="M59.9,149.1h-4.6l-0.9,2.3h-0.7l3.5-9.1H58l3.5,9.1h-0.7L59.9,149.1z M59.7,148.5l-2-5.3l-2,5.3H59.7z"/>
		<path class="st1" d="M67.1,147.7h-2.9v3.7h-0.7v-9.1h3.6c1.5,0,2.7,1.2,2.7,2.7c0,1.2-0.8,2.3-2,2.6l2.3,3.8h-0.8L67.1,147.7z
			 M64.2,147.1h2.9c1.1,0,2-0.9,2-2c0-1.1-0.9-2-2-2h-2.9V147.1z"/>
		<path class="st1" d="M79.8,146.9c0,2.5-1.8,4.6-4.3,4.6h-3.4v-9.1h3.4C78,142.4,79.8,144.4,79.8,146.9z M79.1,146.9
			c0-2.2-1.5-3.9-3.6-3.9h-2.7v7.8h2.7C77.7,150.8,79.1,149.1,79.1,146.9z"/>
		<path class="st1" d="M81.3,149.5l0.6-0.4c0.3,1.1,1.2,1.8,2.7,1.8c1.5,0,2.3-0.8,2.3-1.8c0-1.1-1-1.5-2.4-2
			c-1.5-0.5-2.9-0.9-2.9-2.5c0-1.5,1.2-2.4,2.8-2.4c1.5,0,2.5,0.9,2.9,1.9l-0.6,0.3c-0.3-0.8-1-1.6-2.3-1.6c-1.3,0-2.1,0.7-2.1,1.8
			c0,1.1,0.9,1.4,2.2,1.9c1.6,0.5,3,1,3,2.6c0,1.5-1.2,2.5-3,2.5C83,151.6,81.8,150.7,81.3,149.5z"/>
		<path class="st1" d="M99.4,149.1h-4.6l-0.9,2.3h-0.7l3.5-9.1h0.7l3.5,9.1h-0.7L99.4,149.1z M99.1,148.5l-2-5.3l-2,5.3H99.1z"/>
		<path class="st1" d="M109.6,142.4v9.1H109l-5.4-7.8v7.8H103v-9.1h0.6l5.4,7.8v-7.8H109.6z"/>
		<path class="st1" d="M120.2,146.9c0,2.5-1.8,4.6-4.3,4.6h-3.4v-9.1h3.4C118.5,142.4,120.2,144.4,120.2,146.9z M119.6,146.9
			c0-2.2-1.5-3.9-3.6-3.9h-2.7v7.8h2.7C118.1,150.8,119.6,149.1,119.6,146.9z"/>
		<path class="st1" d="M132.3,143h-2.9v8.5h-0.7V143h-2.9v-0.7h6.4V143z"/>
		<path class="st1" d="M133.4,146.9c0-2.6,2.1-4.7,4.7-4.7s4.7,2.1,4.7,4.7s-2.1,4.7-4.7,4.7S133.4,149.5,133.4,146.9z M142.1,146.9
			c0-2.2-1.8-4-4-4s-4,1.8-4,4c0,2.2,1.8,4,4,4S142.1,149.1,142.1,146.9z"/>
		<path class="st1" d="M150.4,151.5l-4.6-4.5v4.5h-0.7v-9.1h0.7v4.2l4.4-4.2h0.9l-4.6,4.4l4.7,4.7H150.4z"/>
		<path class="st1" d="M158.5,150.8v0.6h-5.2v-9.1h5.2v0.7h-4.5v3.5h4.2v0.6h-4.2v3.6H158.5z"/>
		<path class="st1" d="M167.5,142.4v9.1h-0.6l-5.4-7.8v7.8h-0.7v-9.1h0.6l5.4,7.8v-7.8H167.5z"/>
		<path class="st1" d="M179.5,150.8v0.6h-5v-9.1h0.7v8.5H179.5z"/>
		<path class="st1" d="M187.1,149.1h-4.6l-0.9,2.3h-0.7l3.5-9.1h0.7l3.5,9.1H188L187.1,149.1z M186.8,148.5l-2-5.3l-2,5.3H186.8z"/>
		<path class="st1" d="M190.3,148.4v-6.1h0.7v6.1c0,1.5,0.9,2.5,2.6,2.5c1.7,0,2.7-1,2.7-2.5v-6.1h0.7v6.1c0,1.9-1.3,3.2-3.3,3.2
			S190.3,150.3,190.3,148.4z"/>
		<path class="st1" d="M206.4,142.4v9.1h-0.6l-5.4-7.8v7.8h-0.7v-9.1h0.6l5.4,7.8v-7.8H206.4z"/>
		<path class="st1" d="M208.8,146.9c0-2.6,2-4.7,4.7-4.7c1.7,0,3.1,0.9,3.9,2.2l-0.6,0.4c-0.6-1.1-1.9-1.9-3.3-1.9c-2.4,0-4,1.8-4,4
			c0,2.2,1.7,4,4,4c1.4,0,2.7-0.8,3.3-1.9l0.6,0.4c-0.7,1.3-2.2,2.2-3.9,2.2C210.8,151.6,208.8,149.5,208.8,146.9z"/>
		<path class="st1" d="M226.4,142.4v9.1h-0.7v-4.4h-5.3v4.4h-0.7v-9.1h0.7v4.1h5.3v-4.1H226.4z"/>
		<path class="st1" d="M229,151c0-0.3,0.2-0.6,0.6-0.6c0.3,0,0.6,0.3,0.6,0.6s-0.3,0.6-0.6,0.6C229.2,151.6,229,151.3,229,151z"/>
	</g>
</g>
<g>
	<path class="st1" d="M42.8,66.3c0,4.2-3.1,7.3-7.4,7.3h-6.3v9.1h-1.8V58.9h8.1C39.6,58.9,42.8,62.1,42.8,66.3z M41,66.3
		c0-3.3-2.3-5.7-5.6-5.7h-6.3V72h6.3C38.6,72,41,69.6,41,66.3z"/>
	<path class="st1" d="M63.9,65.7v17h-1.7v-3.8c-1.4,2.5-4,4.2-7.3,4.2c-4.8,0-8.8-3.8-8.8-8.9c0-5,4-8.9,8.8-8.9
		c3.3,0,5.9,1.7,7.3,4.2v-3.8H63.9z M62.2,74.2c0-4-3.1-7.2-7.2-7.2c-4,0-7.2,3.2-7.2,7.2c0,4,3.2,7.2,7.2,7.2
		C59,81.5,62.2,78.3,62.2,74.2z"/>
	<path class="st1" d="M78.2,65.5v1.6c-2.9,0-5.7,1.8-5.7,6.2v9.5h-1.7v-17h1.7v3.3C73.7,66.4,75.9,65.5,78.2,65.5z"/>
	<path class="st1" d="M87.2,67.4v11c0,3,1.6,3.1,5.1,2.8v1.5c-4.5,0.7-6.8-0.4-6.8-4.3v-11h-3.7v-1.7h3.7v-4.2l1.7-0.5v4.8h5.1v1.7
		H87.2z"/>
	<path class="st1" d="M112.5,72.2v10.6h-1.7V72.2c0-3.1-1.8-5.2-5-5.2c-3.3,0-5.9,2.2-5.9,6.8v9h-1.7v-17h1.7V69
		c1.3-2.5,3.5-3.6,6.1-3.6C109.9,65.4,112.5,68,112.5,72.2z"/>
	<path class="st1" d="M135,74.3c0,0.3,0,0.5,0,0.8h-15.4c0.4,3.8,3.3,6.4,7.2,6.4c2.8,0,4.9-1.3,5.9-3.1l1.5,0.9
		c-1.4,2.3-4,3.8-7.4,3.8c-5.2,0-8.9-3.7-8.9-8.9c0-5,3.6-8.9,8.8-8.9C131.8,65.4,135,69.6,135,74.3z M119.6,73.5h13.7
		c-0.4-4.1-3.3-6.5-6.6-6.5C122.7,67,119.9,69.7,119.6,73.5z"/>
	<path class="st1" d="M148.1,65.5v1.6c-2.9,0-5.7,1.8-5.7,6.2v9.5h-1.7v-17h1.7v3.3C143.5,66.4,145.7,65.5,148.1,65.5z"/>
	<path class="st1" d="M181.1,76.2c0,3.6-2.9,6.5-6.5,6.5h-10.3V58.9h9.5c3.5,0,6.3,2.8,6.3,6.3c0,2.3-1.2,4.2-3.1,5.2
		C179.4,71.3,181.1,73.5,181.1,76.2z M166.1,60.6v9.1h7.7c2.4,0,4.5-2,4.5-4.6c0-2.5-2-4.6-4.5-4.6H166.1z M179.3,76.2
		c0-2.7-2.1-4.8-4.7-4.8h-8.5V81h8.5C177.2,81,179.3,78.9,179.3,76.2z"/>
	<path class="st1" d="M202.9,74.3c0,0.3,0,0.5,0,0.8h-15.4c0.4,3.8,3.3,6.4,7.2,6.4c2.8,0,4.9-1.3,5.9-3.1l1.5,0.9
		c-1.4,2.3-4,3.8-7.4,3.8c-5.2,0-8.9-3.7-8.9-8.9c0-5,3.6-8.9,8.8-8.9C199.7,65.4,202.9,69.6,202.9,74.3z M187.5,73.5h13.7
		c-0.4-4.1-3.3-6.5-6.6-6.5C190.6,67,187.8,69.7,187.5,73.5z"/>
	<path class="st1" d="M223,72.2v10.6h-1.7V72.2c0-3.1-1.8-5.2-5-5.2c-3.3,0-5.9,2.2-5.9,6.8v9h-1.7v-17h1.7V69
		c1.3-2.5,3.5-3.6,6.1-3.6C220.4,65.4,223,68,223,72.2z"/>
	<path class="st1" d="M245.5,74.3c0,0.3,0,0.5,0,0.8h-15.4c0.4,3.8,3.3,6.4,7.2,6.4c2.8,0,4.9-1.3,5.9-3.1l1.5,0.9
		c-1.4,2.3-4,3.8-7.4,3.8c-5.2,0-8.9-3.7-8.9-8.9c0-5,3.6-8.9,8.8-8.9C242.3,65.4,245.5,69.6,245.5,74.3z M230.1,73.5h13.7
		c-0.4-4.1-3.3-6.5-6.6-6.5C233.2,67,230.4,69.7,230.1,73.5z"/>
	<path class="st1" d="M262.8,82.7h-1.7V67.4h-7.4v15.3h-1.7V67.4H249v-1.7h2.9v-0.9c0-4.2,2.3-6.3,6.8-6.3c1.1,0,2.2,0.1,3.3,0.4
		v1.6c-1.1-0.2-2.2-0.3-3.3-0.3c-3.5,0-5.1,1.3-5.1,4.6v0.9h9.2V82.7z"/>
	<path class="st1" d="M273.4,67.4v11c0,3,1.6,3.1,5.1,2.8v1.5c-4.5,0.7-6.8-0.4-6.8-4.3v-11h-3.7v-1.7h3.7v-4.2l1.7-0.5v4.8h5.1v1.7
		H273.4z"/>
	<path class="st1" d="M294.6,78.3c0,2.8-2.4,4.8-6.1,4.8c-3.4,0-5.6-1.6-6.5-3.8l1.5-0.9c0.6,1.8,2.4,3,5,3c2.4,0,4.4-1.1,4.4-3.2
		c0-4.6-10.3-2-10.3-8.1c0-2.7,2.3-4.8,5.8-4.8c2.8,0,4.9,1.3,5.8,3.4l-1.4,0.8c-0.7-1.8-2.5-2.6-4.4-2.6c-2.2,0-4.1,1.2-4.1,3.2
		C284.3,74.7,294.6,72.1,294.6,78.3z"/>
</g>
<g>
	<g>
		<g>
			<g>
				<path class="st1" d="M339.8,182c-0.7-0.8-1.8-1.3-3-1.3c-1.6,0-2.9,0.7-3.9,1.3V181h-3.8l-0.2,1.3l4.2,2.7l4.2,2.7
					c0.8,0.5,0.7,1.8-0.3,2.3l-5,2.6l-5,2.7c0,0,0,0-0.1,0l-0.8,5.6h4.3l0.9-6.1c0.6,0.2,1.6,0.3,2.5,0.3c3.4,0,5.9-2.3,6.4-5.9
					l0.5-3.1C341,184.4,340.6,183,339.8,182z"/>
			</g>
			<path class="st1" d="M348.1,175h-4.4l-2.1,14.2c-0.2,1.1-0.2,1.9-0.3,2.6c-0.1,1.1,0.2,1.9,0.7,2.4c0.6,0.6,1.5,0.9,2.7,0.9
				c1.2,0,2.2-0.3,2.5-0.4l0.1-0.1l0.5-3.4l-0.4,0.1c-0.2,0.1-0.6,0.1-1.1,0.1c-0.2,0-0.4-0.1-0.5-0.2c-0.1-0.1-0.1-0.4-0.1-0.7
				L348.1,175z"/>
			<path class="st1" d="M360.6,194.8l2-13.1l-0.2-0.1c-1.5-0.6-3.5-0.9-5.7-0.9c-4,0-6.6,2.2-7.2,5.9l-0.4,3
				c-0.3,1.7,0.1,3.2,0.9,4.1c0.7,0.8,1.8,1.3,3,1.3c1.5,0,2.9-0.7,3.9-1.3v1.1H360.6L360.6,194.8z M356,189.6l-2.4,1.3
				c-0.4,0.2-0.9-0.1-0.9-0.5l0.4-2.6l0.4-2.6c0.1-0.5,0.6-0.8,1-0.5l2,1.3l2,1.3c0.4,0.2,0.3,0.8-0.2,1.1L356,189.6z"/>
			<path class="st1" d="M377.6,181h-4.6l-0.1,0.2c-0.8,3.5-2,7.1-3.4,10.3l-1.2-10.5h-4.5l1.9,14.3h1.7c-0.9,1.1-2.4,2.1-3.9,2.1
				c-1.2,0-2.2-0.3-2.6-0.4l-0.3-0.1l-0.9,3.5l0.2,0.1c0.3,0.1,1.5,0.6,3.4,0.6c6.1,0,10.7-6.5,14.3-19.8L377.6,181z"/>
			<path class="st1" d="M383.9,186.4c-1.6-0.4-2.1-0.7-2.1-1.2c0-0.6,0.2-1.2,1.8-1.2c1,0,2.3,0.2,3,0.4l0.2,0.1l0.9-3.3l-0.2-0.1
				c-1.3-0.3-2.6-0.5-4-0.5c-1.8,0-3.3,0.5-4.4,1.4s-1.6,2.2-1.6,3.8c0,2.2,1.1,2.9,2.8,3.4c1.8,0.5,2.4,0.7,2.4,1.3
				c0,0.7-0.3,1.1-1.9,1.1c-1.3,0-2.7-0.3-3.3-0.6l-0.2-0.1l-1,3.2l0.2,0.1c0.8,0.3,2.6,0.7,4.5,0.7c1.9,0,3.4-0.4,4.4-1.2
				c1.1-0.9,1.6-2.2,1.6-3.9C387,188,386.1,187,383.9,186.4z"/>
		</g>
	</g>
	<path class="st1" d="M318.3,189.2c0.6,0.1,1.4,0.2,2.2,0.2c3,0,6.4-0.5,6.4-4.7c0-2.5-2-4.1-5.2-4.1c-3.9,0-6.6,2.3-7.2,6.1
		l-0.4,2.7c-0.3,1.8,0.1,3.2,1,4.3c1,1.1,2.6,1.7,4.7,1.7c1.8,0,3.5-0.2,5.1-0.7l0.1,0l0.1-3.2v-0.2l-0.2,0
		c-0.7,0.2-2.2,0.5-4.1,0.5c-1.1,0-1.8-0.2-2.2-0.7c-0.3-0.4-0.4-0.9-0.3-1.6V189.2z M321.1,183.8c1,0,1.6,0.5,1.6,1.3
		c0,1.3-0.7,1.8-2.5,1.8c-0.4,0-1-0.1-1.5-0.1l0.1-0.6C319,184.6,319.8,183.8,321.1,183.8z"/>
</g>
</svg>
