<?xml version="1.0" encoding="utf-8"?>
<!-- Generator: Adobe Illustrator 27.9.0, SVG Export Plug-In . SVG Version: 6.00 Build 0)  -->
<svg version="1.1" id="Layer_1" xmlns="http://www.w3.org/2000/svg" xmlns:xlink="http://www.w3.org/1999/xlink" x="0px" y="0px"
	 viewBox="0 0 410 218" style="enable-background:new 0 0 410 218;" xml:space="preserve">
<style type="text/css">
	.st0{fill:#8735FF;}
	.st1{fill:#FFFFFF;}
	.st2{clip-path:url(#SVGID_00000052065845513536097890000011377407499232532123_);}
</style>
<path class="st0" d="M402.5,215.7H8.6c-3.7,0-6.6-3-6.6-6.6V9.2c0-3.7,3-6.6,6.6-6.6h393.9c3.7,0,6.6,3,6.6,6.6V209
	C409.1,212.7,406.2,215.7,402.5,215.7z"/>
<g>
	<g>
		<path class="st1" d="M35.4,36.3h-3.9L31,38h-2.6l3.6-10.5H35L38.6,38h-2.6L35.4,36.3z M34.7,34.1l-1.2-3.9l-1.2,3.9H34.7z"/>
		<path class="st1" d="M50.2,33c0,3.2-2.2,5.2-5.2,5.2c-3.3,0-5.7-2.4-5.7-5.4c0-3,2.4-5.5,5.5-5.5c2,0,3.7,1,4.6,2.4l-2,1.2
			c-0.4-0.7-1.4-1.2-2.6-1.2c-1.8,0-3.1,1.3-3.1,3.1c0,1.8,1.3,3.1,3.3,3.1c1.4,0,2.3-0.6,2.7-1.6H45v-2.1h5.3V33z"/>
		<path class="st1" d="M58.9,35.6V38h-6.6V27.5h6.5v2.3h-4.1v1.7h3.8v2.3h-3.8v1.9H58.9z"/>
		<path class="st1" d="M69.3,27.5V38h-1.8l-4-5.7V38H61V27.5h1.8l4,5.7v-5.7H69.3z"/>
		<path class="st1" d="M71.4,32.7c0-3.1,2.3-5.5,5.5-5.5c1.9,0,3.6,0.9,4.5,2.4l-2.1,1.2c-0.5-0.8-1.4-1.3-2.4-1.3
			c-1.9,0-3.1,1.2-3.1,3.1c0,1.9,1.2,3.1,3.1,3.1c1.1,0,2-0.5,2.4-1.3l2.1,1.2c-0.9,1.5-2.6,2.4-4.5,2.4
			C73.7,38.2,71.4,35.8,71.4,32.7z"/>
		<path class="st1" d="M88,33.9v4h-2.4v-4l-3.5-6.5h2.7l2,4l2-4h2.7L88,33.9z"/>
		<path class="st1" d="M101.2,34.5h-1.1V38h-2.4V27.5h4.2c2,0,3.6,1.6,3.6,3.6c0,1.3-0.8,2.5-1.9,3l2.2,3.9h-2.6L101.2,34.5z
			 M100.1,32.4h1.8c0.7,0,1.2-0.6,1.2-1.4c0-0.8-0.5-1.3-1.2-1.3h-1.8V32.4z"/>
		<path class="st1" d="M114.3,35.6V38h-6.6V27.5h6.5v2.3h-4.1v1.7h3.8v2.3h-3.8v1.9H114.3z"/>
		<path class="st1" d="M115.6,27.5h2.5l1.8,7.3l2-7.3h1.9l2,7.3l1.8-7.3h2.5L127.4,38h-2.7l-1.7-6.2l-1.7,6.2h-2.7L115.6,27.5z"/>
		<path class="st1" d="M137.6,36.3h-3.9l-0.5,1.6h-2.6l3.6-10.5h3.1l3.6,10.5h-2.6L137.6,36.3z M136.9,34.1l-1.2-3.9l-1.2,3.9H136.9
			z"/>
		<path class="st1" d="M146,34.5h-1.1V38h-2.4V27.5h4.2c2,0,3.6,1.6,3.6,3.6c0,1.3-0.8,2.5-1.9,3l2.2,3.9H148L146,34.5z M144.8,32.4
			h1.8c0.7,0,1.2-0.6,1.2-1.4c0-0.8-0.5-1.3-1.2-1.3h-1.8V32.4z"/>
		<path class="st1" d="M161.7,32.7c0,3-2.2,5.2-5.1,5.2h-4.2V27.5h4.2C159.5,27.5,161.7,29.7,161.7,32.7z M159.4,32.7
			c0-1.8-1.1-2.9-2.8-2.9h-1.8v5.9h1.8C158.3,35.6,159.4,34.5,159.4,32.7z"/>
		<path class="st1" d="M162.9,35.6l2.1-1.2c0.4,0.9,1,1.5,2.2,1.5c1.1,0,1.4-0.5,1.4-0.9c0-0.6-0.6-0.9-2.2-1.3
			c-1.6-0.4-3.1-1.2-3.1-3.2c0-2,1.7-3.2,3.5-3.2c1.7,0,3.1,0.8,3.8,2.4l-2,1.2c-0.4-0.8-0.9-1.2-1.8-1.2c-0.8,0-1.1,0.4-1.1,0.8
			c0,0.5,0.3,0.8,1.9,1.3c1.6,0.5,3.4,1,3.4,3.3c0,2-1.6,3.2-3.9,3.2C164.9,38.2,163.5,37.1,162.9,35.6z"/>
	</g>
</g>
<g>
	<g>
		<path class="st1" d="M34.7,108.6h-4.6l-0.9,2.3h-0.7l3.5-9.1h0.7l3.5,9.1h-0.7L34.7,108.6z M34.5,108l-2-5.3l-2,5.3H34.5z"/>
		<path class="st1" d="M43.3,110.3v0.6h-5v-9.1H39v8.5H43.3z"/>
		<path class="st1" d="M50.4,110.3v0.6h-5v-9.1h0.7v8.5H50.4z"/>
		<path class="st1" d="M63.2,101.9v9.1h-0.7v-4.4h-5.3v4.4h-0.7v-9.1h0.7v4.1h5.3v-4.1H63.2z"/>
		<path class="st1" d="M65.6,106.4c0-2.6,2.1-4.7,4.7-4.7s4.7,2.1,4.7,4.7s-2.1,4.7-4.7,4.7S65.6,109,65.6,106.4z M74.3,106.4
			c0-2.2-1.8-4-4-4s-4,1.8-4,4c0,2.2,1.8,4,4,4S74.3,108.6,74.3,106.4z"/>
		<path class="st1" d="M84.1,101.9v9.1h-0.6l-5.4-7.8v7.8h-0.7v-9.1H78l5.4,7.8v-7.8H84.1z"/>
		<path class="st1" d="M86.5,106.4c0-2.6,2-4.7,4.7-4.7c1.7,0,3.1,0.9,3.9,2.2l-0.6,0.4c-0.6-1.1-1.9-1.9-3.3-1.9c-2.4,0-4,1.8-4,4
			c0,2.2,1.7,4,4,4c1.4,0,2.7-0.8,3.3-1.9l0.6,0.4c-0.7,1.3-2.2,2.2-3.9,2.2C88.4,111.1,86.5,109,86.5,106.4z"/>
		<path class="st1" d="M104.1,101.9v9.1h-0.7v-4.4h-5.3v4.4h-0.7v-9.1h0.7v4.1h5.3v-4.1H104.1z"/>
		<path class="st1" d="M106.5,106.4c0-2.6,2.1-4.7,4.7-4.7s4.7,2.1,4.7,4.7s-2.1,4.7-4.7,4.7S106.5,109,106.5,106.4z M115.2,106.4
			c0-2.2-1.8-4-4-4s-4,1.8-4,4c0,2.2,1.8,4,4,4S115.2,108.6,115.2,106.4z"/>
		<path class="st1" d="M128.3,104.7c0,1.6-1.2,2.8-2.8,2.8h-2.4v3.5h-0.7v-9.1h3.1C127.1,101.9,128.3,103.1,128.3,104.7z
			 M127.6,104.7c0-1.3-0.9-2.2-2.1-2.2h-2.4v4.3h2.4C126.7,106.8,127.6,105.9,127.6,104.7z"/>
		<path class="st1" d="M134.2,107.2h-2.9v3.7h-0.7v-9.1h3.6c1.5,0,2.7,1.2,2.7,2.7c0,1.2-0.8,2.3-2,2.6l2.3,3.8h-0.8L134.2,107.2z
			 M131.3,106.6h2.9c1.1,0,2-0.9,2-2c0-1.1-0.9-2-2-2h-2.9V106.6z"/>
		<path class="st1" d="M138.7,106.4c0-2.6,2.1-4.7,4.7-4.7s4.7,2.1,4.7,4.7s-2.1,4.7-4.7,4.7S138.7,109,138.7,106.4z M147.4,106.4
			c0-2.2-1.8-4-4-4s-4,1.8-4,4c0,2.2,1.8,4,4,4S147.4,108.6,147.4,106.4z"/>
		<path class="st1" d="M149.4,109.6l0.6-0.4c0.3,0.8,1.1,1.2,2.1,1.2c1.3,0,2.2-0.7,2.2-2v-6.6h0.7v6.6c0,1.7-1.3,2.6-2.9,2.6
			C150.9,111.1,149.9,110.6,149.4,109.6z"/>
		<path class="st1" d="M163.1,110.3v0.6h-5.2v-9.1h5.2v0.7h-4.5v3.5h4.2v0.6h-4.2v3.6H163.1z"/>
		<path class="st1" d="M164.8,106.4c0-2.6,2-4.7,4.7-4.7c1.7,0,3.1,0.9,3.9,2.2l-0.6,0.4c-0.6-1.1-1.9-1.9-3.3-1.9c-2.4,0-4,1.8-4,4
			c0,2.2,1.7,4,4,4c1.4,0,2.7-0.8,3.3-1.9l0.6,0.4c-0.7,1.3-2.2,2.2-3.9,2.2C166.8,111.1,164.8,109,164.8,106.4z"/>
		<path class="st1" d="M181.2,102.5h-2.9v8.5h-0.7v-8.5h-2.9v-0.7h6.4V102.5z"/>
		<path class="st1" d="M182.5,109l0.6-0.4c0.3,1.1,1.2,1.8,2.7,1.8c1.5,0,2.3-0.8,2.3-1.8c0-1.1-1-1.5-2.4-2
			c-1.5-0.5-2.9-0.9-2.9-2.5c0-1.5,1.2-2.4,2.8-2.4c1.5,0,2.5,0.9,2.9,1.9l-0.6,0.3c-0.3-0.8-1-1.6-2.3-1.6c-1.3,0-2.1,0.7-2.1,1.8
			c0,1.1,0.9,1.4,2.2,1.9c1.6,0.5,3,1,3,2.6c0,1.5-1.2,2.5-3,2.5C184.1,111.1,182.9,110.2,182.5,109z"/>
		<path class="st1" d="M194.6,101.9h0.7l2.4,8.2l2.5-8.2h0.8l2.5,8.2l2.3-8.2h0.7L204,111h-0.8l-2.5-8.2l-2.6,8.2h-0.8L194.6,101.9z
			"/>
		<path class="st1" d="M209.5,101.9v9.1h-0.7v-9.1H209.5z"/>
		<path class="st1" d="M217.4,110.3v0.6h-5v-9.1h0.7v8.5H217.4z"/>
		<path class="st1" d="M224.5,110.3v0.6h-5v-9.1h0.7v8.5H224.5z"/>
		<path class="st1" d="M230.2,106.4c0-2.6,2-4.7,4.7-4.7c1.7,0,3.1,0.9,3.9,2.2l-0.6,0.4c-0.6-1.1-1.9-1.9-3.3-1.9c-2.4,0-4,1.8-4,4
			c0,2.2,1.7,4,4,4c1.4,0,2.7-0.8,3.3-1.9l0.6,0.4c-0.7,1.3-2.2,2.2-3.9,2.2C232.1,111.1,230.2,109,230.2,106.4z"/>
		<path class="st1" d="M240.6,106.4c0-2.6,2.1-4.7,4.7-4.7s4.7,2.1,4.7,4.7s-2.1,4.7-4.7,4.7S240.6,109,240.6,106.4z M249.3,106.4
			c0-2.2-1.8-4-4-4s-4,1.8-4,4c0,2.2,1.8,4,4,4S249.3,108.6,249.3,106.4z"/>
		<path class="st1" d="M259,101.9v9.1h-0.6l-5.4-7.8v7.8h-0.7v-9.1h0.6l5.4,7.8v-7.8H259z"/>
		<path class="st1" d="M267.5,102.5h-2.9v8.5H264v-8.5h-2.9v-0.7h6.4V102.5z"/>
		<path class="st1" d="M273.2,107.2h-2.9v3.7h-0.7v-9.1h3.6c1.5,0,2.7,1.2,2.7,2.7c0,1.2-0.8,2.3-2,2.6l2.3,3.8h-0.8L273.2,107.2z
			 M270.3,106.6h2.9c1.1,0,2-0.9,2-2c0-1.1-0.9-2-2-2h-2.9V106.6z"/>
		<path class="st1" d="M278.9,101.9v9.1h-0.7v-9.1H278.9z"/>
		<path class="st1" d="M288.2,108.5c0,1.4-1.1,2.5-2.5,2.5h-3.9v-9.1h3.6c1.3,0,2.4,1.1,2.4,2.4c0,0.9-0.5,1.6-1.2,2
			C287.6,106.6,288.2,107.4,288.2,108.5z M282.5,102.5v3.5h2.9c0.9,0,1.7-0.8,1.7-1.7c0-1-0.8-1.7-1.7-1.7H282.5z M287.5,108.5
			c0-1-0.8-1.8-1.8-1.8h-3.2v3.7h3.2C286.7,110.3,287.5,109.5,287.5,108.5z"/>
		<path class="st1" d="M290.4,107.9v-6.1h0.7v6.1c0,1.5,0.9,2.5,2.6,2.5c1.7,0,2.7-1,2.7-2.5v-6.1h0.7v6.1c0,1.9-1.3,3.2-3.3,3.2
			S290.4,109.8,290.4,107.9z"/>
		<path class="st1" d="M305.4,102.5h-2.9v8.5h-0.7v-8.5H299v-0.7h6.4V102.5z"/>
		<path class="st1" d="M312.7,110.3v0.6h-5.2v-9.1h5.2v0.7h-4.5v3.5h4.2v0.6h-4.2v3.6H312.7z"/>
		<path class="st1" d="M325.9,101.9v9.1h-0.6l-5.4-7.8v7.8h-0.7v-9.1h0.6l5.4,7.8v-7.8H325.9z"/>
		<path class="st1" d="M329.5,102.5v3.6h4.2v0.6h-4.2v4.2h-0.7v-9.1h5v0.7H329.5z"/>
		<path class="st1" d="M341.8,102.5h-2.9v8.5h-0.7v-8.5h-2.9v-0.7h6.4V102.5z"/>
		<path class="st1" d="M343,109l0.6-0.4c0.3,1.1,1.2,1.8,2.7,1.8c1.5,0,2.3-0.8,2.3-1.8c0-1.1-1-1.5-2.4-2c-1.5-0.5-2.9-0.9-2.9-2.5
			c0-1.5,1.2-2.4,2.8-2.4c1.5,0,2.5,0.9,2.9,1.9l-0.6,0.3c-0.3-0.8-1-1.6-2.3-1.6c-1.3,0-2.1,0.7-2.1,1.8c0,1.1,0.9,1.4,2.2,1.9
			c1.6,0.5,3,1,3,2.6c0,1.5-1.2,2.5-3,2.5C344.7,111.1,343.4,110.2,343,109z"/>
		<path class="st1" d="M361.4,102.5h-2.9v8.5h-0.7v-8.5H355v-0.7h6.4V102.5z"/>
		<path class="st1" d="M362.4,106.4c0-2.6,2.1-4.7,4.7-4.7s4.7,2.1,4.7,4.7s-2.1,4.7-4.7,4.7S362.4,109,362.4,106.4z M371.1,106.4
			c0-2.2-1.8-4-4-4s-4,1.8-4,4c0,2.2,1.8,4,4,4S371.1,108.6,371.1,106.4z"/>
		<path class="st1" d="M35.1,122.5h-2.9v8.5h-0.7v-8.5h-2.9v-0.7h6.4V122.5z"/>
		<path class="st1" d="M43.8,121.9v9.1h-0.7v-4.4h-5.3v4.4h-0.7v-9.1h0.7v4.1h5.3v-4.1H43.8z"/>
		<path class="st1" d="M52,130.3v0.6h-5.2v-9.1h5.2v0.7h-4.5v3.5h4.2v0.6h-4.2v3.6H52z"/>
		<path class="st1" d="M63.4,130.3v0.6h-5v-9.1h0.7v8.5H63.4z"/>
		<path class="st1" d="M70.8,130.3v0.6h-5.2v-9.1h5.2v0.7h-4.5v3.5h4.2v0.6h-4.2v3.6H70.8z"/>
		<path class="st1" d="M78.5,128.6h-4.6L73,131h-0.7l3.5-9.1h0.7l3.5,9.1h-0.7L78.5,128.6z M78.2,128l-2-5.3l-2,5.3H78.2z"/>
		<path class="st1" d="M89.8,126.4c0,2.5-1.8,4.6-4.3,4.6h-3.4v-9.1h3.4C88,121.9,89.8,123.9,89.8,126.4z M89.1,126.4
			c0-2.2-1.5-3.9-3.6-3.9h-2.7v7.8h2.7C87.6,130.3,89.1,128.6,89.1,126.4z"/>
		<path class="st1" d="M97.4,130.3v0.6h-5.2v-9.1h5.2v0.7h-4.5v3.5H97v0.6h-4.2v3.6H97.4z"/>
		<path class="st1" d="M103.3,127.2h-2.9v3.7h-0.7v-9.1h3.6c1.5,0,2.7,1.2,2.7,2.7c0,1.2-0.8,2.3-2,2.6l2.3,3.8h-0.8L103.3,127.2z
			 M100.4,126.6h2.9c1.1,0,2-0.9,2-2c0-1.1-0.9-2-2-2h-2.9V126.6z"/>
		<path class="st1" d="M114.8,128.5c0,1.4-1.1,2.5-2.5,2.5h-3.9v-9.1h3.6c1.3,0,2.4,1.1,2.4,2.4c0,0.9-0.5,1.6-1.2,2
			C114.1,126.6,114.8,127.4,114.8,128.5z M109,122.5v3.5h2.9c0.9,0,1.7-0.8,1.7-1.7c0-1-0.8-1.7-1.7-1.7H109z M114.1,128.5
			c0-1-0.8-1.8-1.8-1.8H109v3.7h3.2C113.3,130.3,114.1,129.5,114.1,128.5z"/>
		<path class="st1" d="M116.6,126.4c0-2.6,2.1-4.7,4.7-4.7s4.7,2.1,4.7,4.7s-2.1,4.7-4.7,4.7S116.6,129,116.6,126.4z M125.3,126.4
			c0-2.2-1.8-4-4-4s-4,1.8-4,4c0,2.2,1.8,4,4,4S125.3,128.6,125.3,126.4z"/>
		<path class="st1" d="M133.3,128.6h-4.6l-0.9,2.3h-0.7l3.5-9.1h0.7l3.5,9.1h-0.7L133.3,128.6z M133,128l-2-5.3l-2,5.3H133z"/>
		<path class="st1" d="M140.4,127.2h-2.9v3.7h-0.7v-9.1h3.6c1.5,0,2.7,1.2,2.7,2.7c0,1.2-0.8,2.3-2,2.6l2.3,3.8h-0.8L140.4,127.2z
			 M137.5,126.6h2.9c1.1,0,2-0.9,2-2c0-1.1-0.9-2-2-2h-2.9V126.6z"/>
		<path class="st1" d="M153.2,126.4c0,2.5-1.8,4.6-4.3,4.6h-3.4v-9.1h3.4C151.4,121.9,153.2,123.9,153.2,126.4z M152.5,126.4
			c0-2.2-1.5-3.9-3.6-3.9h-2.7v7.8h2.7C151,130.3,152.5,128.6,152.5,126.4z"/>
		<path class="st1" d="M165.6,124.7c0,1.6-1.2,2.8-2.8,2.8h-2.4v3.5h-0.7v-9.1h3.1C164.4,121.9,165.6,123.1,165.6,124.7z
			 M164.9,124.7c0-1.3-0.9-2.2-2.1-2.2h-2.4v4.3h2.4C164,126.8,164.9,125.9,164.9,124.7z"/>
		<path class="st1" d="M167.4,126.4c0-2.6,2.1-4.7,4.7-4.7s4.7,2.1,4.7,4.7s-2.1,4.7-4.7,4.7S167.4,129,167.4,126.4z M176.1,126.4
			c0-2.2-1.8-4-4-4s-4,1.8-4,4c0,2.2,1.8,4,4,4S176.1,128.6,176.1,126.4z"/>
		<path class="st1" d="M178.7,126.4c0-2.6,2.1-4.7,4.7-4.7s4.7,2.1,4.7,4.7s-2.1,4.7-4.7,4.7S178.7,129,178.7,126.4z M187.4,126.4
			c0-2.2-1.8-4-4-4s-4,1.8-4,4c0,2.2,1.8,4,4,4S187.4,128.6,187.4,126.4z"/>
		<path class="st1" d="M195.4,130.3v0.6h-5v-9.1h0.7v8.5H195.4z"/>
		<path class="st1" d="M197.6,130.5c0-0.3,0.2-0.6,0.6-0.6c0.3,0,0.6,0.3,0.6,0.6s-0.3,0.6-0.6,0.6
			C197.8,131.1,197.6,130.8,197.6,130.5z"/>
		<path class="st1" d="M212.1,121.9v9.1h-0.7v-4.4h-5.3v4.4h-0.7v-9.1h0.7v4.1h5.3v-4.1H212.1z"/>
		<path class="st1" d="M215.7,121.9v9.1H215v-9.1H215.7z"/>
		<path class="st1" d="M227.3,127.1c0,2.2-1.7,4-4.4,4c-2.8,0-4.8-2.1-4.8-4.7s2-4.7,4.7-4.7c1.7,0,3.2,0.9,3.9,2.2l-0.6,0.4
			c-0.6-1.1-1.9-1.9-3.3-1.9c-2.4,0-4,1.8-4,4c0,2.2,1.7,4,4.1,4c2.2,0,3.5-1.4,3.7-3.1h-3.9v-0.7h4.6V127.1z"/>
		<path class="st1" d="M236.3,121.9v9.1h-0.7v-4.4h-5.3v4.4h-0.7v-9.1h0.7v4.1h5.3v-4.1H236.3z"/>
		<path class="st1" d="M244.5,130.3v0.6h-5.2v-9.1h5.2v0.7h-4.5v3.5h4.2v0.6h-4.2v3.6H244.5z"/>
		<path class="st1" d="M250.4,127.2h-2.9v3.7h-0.7v-9.1h3.6c1.5,0,2.7,1.2,2.7,2.7c0,1.2-0.8,2.3-2,2.6l2.3,3.8h-0.8L250.4,127.2z
			 M247.5,126.6h2.9c1.1,0,2-0.9,2-2c0-1.1-0.9-2-2-2h-2.9V126.6z"/>
		<path class="st1" d="M263.1,127.2h-2.9v3.7h-0.7v-9.1h3.6c1.5,0,2.7,1.2,2.7,2.7c0,1.2-0.8,2.3-2,2.6l2.3,3.8h-0.8L263.1,127.2z
			 M260.2,126.6h2.9c1.1,0,2-0.9,2-2c0-1.1-0.9-2-2-2h-2.9V126.6z"/>
		<path class="st1" d="M273.4,128.6h-4.6L268,131h-0.7l3.5-9.1h0.7l3.5,9.1h-0.7L273.4,128.6z M273.2,128l-2-5.3l-2,5.3H273.2z"/>
		<path class="st1" d="M283.7,121.9v9.1H283l-5.4-7.8v7.8H277v-9.1h0.6l5.4,7.8v-7.8H283.7z"/>
		<path class="st1" d="M291.8,131l-4.6-4.5v4.5h-0.7v-9.1h0.7v4.2l4.4-4.2h0.9l-4.6,4.4l4.7,4.7H291.8z"/>
		<path class="st1" d="M295.3,121.9v9.1h-0.7v-9.1H295.3z"/>
		<path class="st1" d="M304.9,121.9v9.1h-0.6l-5.4-7.8v7.8h-0.7v-9.1h0.6l5.4,7.8v-7.8H304.9z"/>
		<path class="st1" d="M316.5,127.1c0,2.2-1.7,4-4.4,4c-2.8,0-4.8-2.1-4.8-4.7s2-4.7,4.7-4.7c1.7,0,3.2,0.9,3.9,2.2l-0.6,0.4
			c-0.6-1.1-1.9-1.9-3.3-1.9c-2.4,0-4,1.8-4,4c0,2.2,1.7,4,4.1,4c2.2,0,3.5-1.4,3.7-3.1h-3.9v-0.7h4.6V127.1z"/>
		<path class="st1" d="M318,129l0.6-0.4c0.3,1.1,1.2,1.8,2.7,1.8c1.5,0,2.3-0.8,2.3-1.8c0-1.1-1-1.5-2.4-2c-1.5-0.5-2.9-0.9-2.9-2.5
			c0-1.5,1.2-2.4,2.8-2.4c1.5,0,2.5,0.9,2.9,1.9l-0.6,0.3c-0.3-0.8-1-1.6-2.3-1.6c-1.3,0-2.1,0.7-2.1,1.8c0,1.1,0.9,1.4,2.2,1.9
			c1.6,0.5,3,1,3,2.6c0,1.5-1.2,2.5-3,2.5C319.6,131.1,318.4,130.2,318,129z"/>
		<path class="st1" d="M339,131h-0.7v-8.1l-3.4,5.6h-0.1l-3.4-5.6v8.1h-0.7v-9.1h0.9l3.2,5.4l3.2-5.4h0.9V131z"/>
		<path class="st1" d="M347.2,130.3v0.6h-5.2v-9.1h5.2v0.7h-4.5v3.5h4.2v0.6h-4.2v3.6H347.2z"/>
		<path class="st1" d="M354.9,128.6h-4.6l-0.9,2.3h-0.7l3.5-9.1h0.7l3.5,9.1h-0.7L354.9,128.6z M354.6,128l-2-5.3l-2,5.3H354.6z"/>
		<path class="st1" d="M365.1,121.9v9.1h-0.6l-5.4-7.8v7.8h-0.7v-9.1h0.6l5.4,7.8v-7.8H365.1z"/>
		<path class="st1" d="M35.9,148.5c0,1.4-1.1,2.5-2.5,2.5h-3.9v-9.1h3.6c1.3,0,2.4,1.1,2.4,2.4c0,0.9-0.5,1.6-1.2,2
			C35.3,146.6,35.9,147.4,35.9,148.5z M30.2,142.5v3.5h2.9c0.9,0,1.7-0.8,1.7-1.7c0-1-0.8-1.7-1.7-1.7H30.2z M35.2,148.5
			c0-1-0.8-1.8-1.8-1.8h-3.2v3.7h3.2C34.4,150.3,35.2,149.5,35.2,148.5z"/>
		<path class="st1" d="M43.5,150.3v0.6h-5.2v-9.1h5.2v0.7h-4.5v3.5h4.2v0.6h-4.2v3.6H43.5z"/>
		<path class="st1" d="M51.4,142.5h-2.9v8.5h-0.7v-8.5H45v-0.7h6.4V142.5z"/>
		<path class="st1" d="M59.1,142.5h-2.9v8.5h-0.7v-8.5h-2.9v-0.7h6.4V142.5z"/>
		<path class="st1" d="M66.4,150.3v0.6h-5.2v-9.1h5.2v0.7h-4.5v3.5H66v0.6h-4.2v3.6H66.4z"/>
		<path class="st1" d="M72.3,147.2h-2.9v3.7h-0.7v-9.1h3.6c1.5,0,2.7,1.2,2.7,2.7c0,1.2-0.8,2.3-2,2.6l2.3,3.8h-0.8L72.3,147.2z
			 M69.4,146.6h2.9c1.1,0,2-0.9,2-2c0-1.1-0.9-2-2-2h-2.9V146.6z"/>
		<path class="st1" d="M81,146.4c0-2.6,2-4.7,4.7-4.7c1.7,0,3.1,0.9,3.9,2.2l-0.6,0.4c-0.6-1.1-1.9-1.9-3.3-1.9c-2.4,0-4,1.8-4,4
			c0,2.2,1.7,4,4,4c1.4,0,2.7-0.8,3.3-1.9l0.6,0.4c-0.7,1.3-2.2,2.2-3.9,2.2C82.9,151.1,81,149,81,146.4z"/>
		<path class="st1" d="M98.6,141.9v9.1h-0.7v-4.4h-5.3v4.4h-0.7v-9.1h0.7v4.1h5.3v-4.1H98.6z"/>
		<path class="st1" d="M106.7,148.6h-4.6l-0.9,2.3h-0.7l3.5-9.1h0.7l3.5,9.1h-0.7L106.7,148.6z M106.5,148l-2-5.3l-2,5.3H106.5z"/>
		<path class="st1" d="M117,141.9v9.1h-0.6l-5.4-7.8v7.8h-0.7v-9.1h0.6l5.4,7.8v-7.8H117z"/>
		<path class="st1" d="M119.4,146.4c0-2.6,2-4.7,4.7-4.7c1.7,0,3.1,0.9,3.9,2.2l-0.6,0.4c-0.6-1.1-1.9-1.9-3.3-1.9c-2.4,0-4,1.8-4,4
			c0,2.2,1.7,4,4,4c1.4,0,2.7-0.8,3.3-1.9l0.6,0.4c-0.7,1.3-2.2,2.2-3.9,2.2C121.3,151.1,119.4,149,119.4,146.4z"/>
		<path class="st1" d="M135.5,150.3v0.6h-5.2v-9.1h5.2v0.7H131v3.5h4.2v0.6H131v3.6H135.5z"/>
		<path class="st1" d="M137.3,149l0.6-0.4c0.3,1.1,1.2,1.8,2.7,1.8c1.5,0,2.3-0.8,2.3-1.8c0-1.1-1-1.5-2.4-2
			c-1.5-0.5-2.9-0.9-2.9-2.5c0-1.5,1.2-2.4,2.8-2.4c1.5,0,2.5,0.9,2.9,1.9l-0.6,0.3c-0.3-0.8-1-1.6-2.3-1.6c-1.3,0-2.1,0.7-2.1,1.8
			c0,1.1,0.9,1.4,2.2,1.9c1.6,0.5,3,1,3,2.6c0,1.5-1.2,2.5-3,2.5C139,151.1,137.8,150.2,137.3,149z"/>
		<path class="st1" d="M150.8,142.5v3.6h4.2v0.6h-4.2v4.2h-0.7v-9.1h5v0.7H150.8z"/>
		<path class="st1" d="M157,146.4c0-2.6,2.1-4.7,4.7-4.7s4.7,2.1,4.7,4.7s-2.1,4.7-4.7,4.7S157,149,157,146.4z M165.7,146.4
			c0-2.2-1.8-4-4-4s-4,1.8-4,4c0,2.2,1.8,4,4,4S165.7,148.6,165.7,146.4z"/>
		<path class="st1" d="M172.3,147.2h-2.9v3.7h-0.7v-9.1h3.6c1.5,0,2.7,1.2,2.7,2.7c0,1.2-0.8,2.3-2,2.6l2.3,3.8h-0.8L172.3,147.2z
			 M169.5,146.6h2.9c1.1,0,2-0.9,2-2c0-1.1-0.9-2-2-2h-2.9V146.6z"/>
		<path class="st1" d="M182.2,142.5v3.6h4.2v0.6h-4.2v4.2h-0.7v-9.1h5v0.7H182.2z"/>
		<path class="st1" d="M192.4,147.2h-2.9v3.7h-0.7v-9.1h3.6c1.5,0,2.7,1.2,2.7,2.7c0,1.2-0.8,2.3-2,2.6l2.3,3.8h-0.8L192.4,147.2z
			 M189.6,146.6h2.9c1.1,0,2-0.9,2-2c0-1.1-0.9-2-2-2h-2.9V146.6z"/>
		<path class="st1" d="M202.7,150.3v0.6h-5.2v-9.1h5.2v0.7h-4.5v3.5h4.2v0.6h-4.2v3.6H202.7z"/>
		<path class="st1" d="M210.3,150.3v0.6h-5.2v-9.1h5.2v0.7h-4.5v3.5h4.2v0.6h-4.2v3.6H210.3z"/>
		<path class="st1" d="M223.5,141.9v9.1h-0.6l-5.4-7.8v7.8h-0.7v-9.1h0.6l5.4,7.8v-7.8H223.5z"/>
		<path class="st1" d="M227.1,142.5v3.6h4.2v0.6h-4.2v4.2h-0.7v-9.1h5v0.7H227.1z"/>
		<path class="st1" d="M239.3,142.5h-2.9v8.5h-0.7v-8.5h-2.9v-0.7h6.4V142.5z"/>
		<path class="st1" d="M240.6,149l0.6-0.4c0.3,1.1,1.2,1.8,2.7,1.8c1.5,0,2.3-0.8,2.3-1.8c0-1.1-1-1.5-2.4-2
			c-1.5-0.5-2.9-0.9-2.9-2.5c0-1.5,1.2-2.4,2.8-2.4c1.5,0,2.5,0.9,2.9,1.9l-0.6,0.3c-0.3-0.8-1-1.6-2.3-1.6c-1.3,0-2.1,0.7-2.1,1.8
			c0,1.1,0.9,1.4,2.2,1.9c1.6,0.5,3,1,3,2.6c0,1.5-1.2,2.5-3,2.5C242.2,151.1,241,150.2,240.6,149z"/>
		<path class="st1" d="M248.7,150.5c0-0.3,0.2-0.6,0.6-0.6c0.3,0,0.6,0.3,0.6,0.6s-0.3,0.6-0.6,0.6
			C248.9,151.1,248.7,150.8,248.7,150.5z"/>
	</g>
</g>
<g>
	<path class="st1" d="M30,70.3c0-6.8,5.1-12.3,12.4-12.3c4.4,0,8.2,2.2,10.2,5.7l-1.6,0.9c-1.6-2.9-4.9-4.9-8.6-4.9
		c-6.3,0-10.6,4.7-10.6,10.5c0,5.8,4.3,10.5,10.6,10.5c3.8,0,7.1-2,8.7-5l1.6,0.9c-1.9,3.5-5.8,5.8-10.3,5.8
		C35.1,82.6,30,77.1,30,70.3z"/>
	<path class="st1" d="M56.9,73.7c0-5,4-8.9,8.9-8.9c4.9,0,8.9,3.8,8.9,8.9c0,5-4,8.9-8.9,8.9C60.9,82.6,56.9,78.8,56.9,73.7z
		 M73,73.7c0-4-3.1-7.2-7.2-7.2c-4,0-7.2,3.2-7.2,7.2c0,4,3.2,7.2,7.2,7.2C69.9,81,73,77.8,73,73.7z"/>
	<path class="st1" d="M80.5,57.4h1.7v24.8h-1.7V57.4z"/>
	<path class="st1" d="M89.2,57.4h1.7v24.8h-1.7V57.4z"/>
	<path class="st1" d="M113.8,73.8c0,0.3,0,0.5,0,0.8H98.4c0.4,3.8,3.3,6.4,7.2,6.4c2.8,0,4.9-1.3,5.9-3.1l1.5,0.9
		c-1.4,2.3-4,3.8-7.4,3.8c-5.2,0-8.9-3.7-8.9-8.9c0-5,3.6-8.9,8.8-8.9C110.6,64.9,113.8,69.1,113.8,73.8z M98.4,72.9h13.7
		c-0.4-4.1-3.3-6.5-6.6-6.5C101.6,66.5,98.8,69.2,98.4,72.9z"/>
	<path class="st1" d="M118.4,73.7c0-5,3.8-8.9,8.9-8.9c3.3,0,6.2,1.7,7.4,4.4l-1.4,0.8c-1-2.1-3.3-3.5-6-3.5c-4.1,0-7.2,3.2-7.2,7.2
		c0,4,3.1,7.2,7.2,7.2c2.8,0,5-1.4,6.1-3.5l1.4,0.9c-1.4,2.6-4.2,4.3-7.5,4.3C122.2,82.6,118.4,78.8,118.4,73.7z"/>
	<path class="st1" d="M143.9,66.9v11c0,3,1.6,3.1,5.1,2.8v1.5c-4.5,0.7-6.8-0.4-6.8-4.3v-11h-3.7v-1.7h3.7V61l1.7-0.5v4.8h5.1v1.7
		H143.9z"/>
	<path class="st1" d="M154.3,59.8c0-0.7,0.6-1.3,1.4-1.3s1.4,0.6,1.4,1.3c0,0.7-0.6,1.4-1.4,1.4S154.3,60.5,154.3,59.8z M154.8,65.2
		h1.7v17h-1.7V65.2z"/>
	<path class="st1" d="M162.3,73.7c0-5,4-8.9,8.9-8.9c4.9,0,8.9,3.8,8.9,8.9c0,5-4,8.9-8.9,8.9C166.2,82.6,162.3,78.8,162.3,73.7z
		 M178.4,73.7c0-4-3.1-7.2-7.2-7.2c-4,0-7.2,3.2-7.2,7.2c0,4,3.2,7.2,7.2,7.2C175.3,81,178.4,77.8,178.4,73.7z"/>
	<path class="st1" d="M200.3,71.7v10.6h-1.7V71.7c0-3.1-1.8-5.2-5-5.2c-3.3,0-5.9,2.2-5.9,6.8v9h-1.7v-17h1.7v3.2
		c1.3-2.5,3.5-3.6,6.1-3.6C197.7,64.9,200.3,67.5,200.3,71.7z"/>
	<path class="st1" d="M227.2,72.5h-7.5v9.8h-1.8V58.4h9.4c3.9,0,7,3.2,7,7c0,3.2-2.2,5.9-5.2,6.8l5.9,10h-2.1L227.2,72.5z
		 M219.7,70.8h7.6c2.9,0,5.2-2.4,5.2-5.3c0-3-2.3-5.3-5.2-5.3h-7.6V70.8z"/>
	<path class="st1" d="M255.9,65.2v17h-1.7v-3.8c-1.4,2.5-4,4.2-7.3,4.2c-4.8,0-8.8-3.8-8.8-8.9c0-5,4-8.9,8.8-8.9
		c3.3,0,5.9,1.7,7.3,4.2v-3.8H255.9z M254.2,73.7c0-4-3.1-7.2-7.2-7.2c-4,0-7.2,3.2-7.2,7.2c0,4,3.2,7.2,7.2,7.2
		C251.1,81,254.2,77.8,254.2,73.7z"/>
	<path class="st1" d="M284.2,58.1v24.1h-1.7V59.4c-0.8-0.1-1.6-0.1-2.4-0.1c-3.5,0-5.1,1.4-5.1,4.7v1.3h4v1.7h-4v15.3h-1.7V66.9
		h-7.4v15.3h-1.7V66.9h-2.9v-1.7h2.9v-0.9c0-4.2,2.3-6.6,6.8-6.3v1.6c-3.5-0.3-5.1,1.3-5.1,4.6v0.9h7.4V64c0-4.2,2.3-6.3,6.8-6.3
		C281.5,57.7,282.8,57.9,284.2,58.1z"/>
	<path class="st1" d="M307.1,73.8c0,0.3,0,0.5,0,0.8h-15.4c0.4,3.8,3.3,6.4,7.2,6.4c2.8,0,4.9-1.3,5.9-3.1l1.5,0.9
		c-1.4,2.3-4,3.8-7.4,3.8c-5.2,0-8.9-3.7-8.9-8.9c0-5,3.6-8.9,8.8-8.9C303.9,64.9,307.1,69.1,307.1,73.8z M291.7,72.9h13.7
		c-0.4-4.1-3.3-6.5-6.6-6.5C294.9,66.5,292,69.2,291.7,72.9z"/>
	<path class="st1" d="M323.6,77.8c0,2.8-2.4,4.8-6.1,4.8c-3.4,0-5.6-1.6-6.5-3.8l1.5-0.9c0.6,1.8,2.4,3,5,3c2.4,0,4.4-1.1,4.4-3.2
		c0-4.6-10.3-2-10.3-8.1c0-2.7,2.3-4.8,5.8-4.8c2.8,0,4.9,1.3,5.8,3.4l-1.4,0.8c-0.7-1.8-2.5-2.6-4.4-2.6c-2.2,0-4.1,1.2-4.1,3.2
		C313.3,74.2,323.6,71.6,323.6,77.8z"/>
</g>
<g>
	<g>
		<path class="st1" d="M313.3,183.3c-1.1,0-2.1,0.3-2.8,0.7v-4.5c0-0.5-0.5-1-1-1H307c-0.5,0-1,0.5-1,1v15.9c0,0.5,0.5,1,1,1h2.5
			c0.6,0,1-0.4,1-1v-6.3c0.3-1.1,1.1-1.8,2.2-1.8c1.2,0,2,0.9,2,2.3v5.7c0,0.5,0.4,1,1,1h2.4c0.5,0,1-0.5,1-1v-5.7
			c0-1.7-0.5-3.2-1.3-4.3C316.7,184,315.1,183.3,313.3,183.3z"/>
		<path class="st1" d="M342.7,183.3c-2,0-3.3,0.9-4,1.5l-0.2-0.6l0,0c-0.2-0.4-0.5-0.6-0.9-0.6h-1.1c-0.5,0-1,0.4-1,1v10.8
			c0,0.5,0.5,1,1,1h2.2c0.3,0,1.1,0,1.1-1v-6.5c0.2-0.6,1-1.6,2.4-1.6c0.7,0,1.8,0.3,1.8,2.1v5.9c0,0.5,0.4,1,1,1h2.4
			c0.5,0,1-0.5,1-1v-5.7c0-1.8-0.5-3.3-1.3-4.4C346.1,184,344.6,183.3,342.7,183.3z"/>
		<path class="st1" d="M361.5,192.6l-1.3-1.1l0,0c-0.4-0.3-0.9-0.2-1.3,0.1c0,0-0.1,0.1-0.1,0.1c-0.5,0.5-1,0.9-2,0.9
			c-1.4,0-2.5-1.2-2.5-2.6c0-1.5,1.1-2.6,2.5-2.6c0.6,0,1.3,0.3,1.8,0.8l0,0l0,0c0.2,0.2,0.7,0.5,1.3,0.1l1.4-1.3
			c0.2-0.2,0.4-0.4,0.4-0.7c0-0.3,0-0.5-0.2-0.7l0,0c-1.3-1.5-2.8-2.3-4.7-2.3c-1.7,0-3.4,0.7-4.7,1.9c-1.3,1.3-2,2.9-2,4.7
			c0,1.8,0.7,3.5,2,4.8c1.3,1.2,2.9,1.9,4.7,1.9c2.2,0,3.9-0.9,5-2.7C362.1,193.5,362,192.9,361.5,192.6z"/>
		<path class="st1" d="M370.9,183.3c-1.1,0-2.1,0.3-2.8,0.7v-4.5c0-0.5-0.5-1-1-1h-2.5c-0.5,0-1,0.5-1,1v15.9c0,0.5,0.5,1,1,1h2.5
			c0.6,0,1-0.4,1-1v-6.3c0.3-1.1,1.1-1.8,2.2-1.8c1.2,0,2,0.9,2,2.3v5.7c0,0.5,0.4,1,1,1h2.4c0.5,0,1-0.5,1-1v-5.7
			c0-1.7-0.5-3.2-1.3-4.3C374.2,184,372.7,183.3,370.9,183.3z"/>
		<path class="st1" d="M327.2,183.3c-1.7,0-3.4,0.7-4.6,2c-1.2,1.3-1.9,2.9-1.9,4.7c0,1.8,0.7,3.4,1.9,4.7c1.2,1.3,2.9,2,4.6,2
			c1.7,0,3.4-0.7,4.6-2c1.2-1.3,1.9-2.9,1.9-4.7c0-1.7-0.7-3.4-1.9-4.7C330.5,184,328.9,183.3,327.2,183.3z M329.6,189.9
			c0,1.5-1.1,2.7-2.5,2.7c-1.4,0-2.5-1.2-2.5-2.7c0-1.5,1.1-2.6,2.5-2.6C328.5,187.3,329.6,188.4,329.6,189.9z"/>
		<path class="st1" d="M389.5,185.2c-1.2-1.3-2.9-2-4.6-2c-1.7,0-3.4,0.7-4.6,2c-1.2,1.3-1.9,2.9-1.9,4.7c0,1.8,0.7,3.4,1.9,4.7
			c1.2,1.3,2.9,2,4.6,2c1.7,0,3.4-0.7,4.6-2c1.2-1.3,1.9-2.9,1.9-4.7C391.4,188.1,390.7,186.5,389.5,185.2z M387.4,189.9
			c0,1.5-1.1,2.7-2.5,2.7c-1.4,0-2.5-1.2-2.5-2.7c0-1.5,1.1-2.6,2.5-2.6C386.2,187.3,387.4,188.4,387.4,189.9z"/>
	</g>
	<g>
		<path class="st1" d="M285.4,185.7c1.4,0,2.9,0.2,4.2,0.5c1.2,0.3,2.4,0.6,3.5,1.1v-1.6c-1.2-0.5-2.4-0.8-3.6-1.1
			c-1.3-0.3-2.7-0.4-4.1-0.4s-2.7,0.1-4.1,0.4c-1.3,0.2-2.5,0.6-3.6,1.1v1.6c1.1-0.5,2.3-0.8,3.5-1.1
			C282.5,185.8,284,185.7,285.4,185.7z"/>
		<path class="st1" d="M281.6,189.5c0.5,0.4,1.1,0.6,2.1,0.3l-2.8-1.1C281.1,189,281.3,189.3,281.6,189.5z"/>
		<path class="st1" d="M292.2,182.3v1.2l-0.9-0.3L292.2,182.3z M285.4,181.1l0.7,0.7l-0.7,0.7l-0.7-0.7L285.4,181.1z M278.6,183.6
			v-1.2l0.9,0.9L278.6,183.6z"/>
		<path class="st1" d="M285.4,173.8c-7.5,0-13.7,6.1-13.7,13.7c0,4.3,2,8.2,5.2,10.7v-2l0.8,0.5v2.1c0.4,0.3,0.8,0.5,1.3,0.8v-2.1
			l0.8,0.5v2c0.4,0.2,0.8,0.4,1.3,0.5V198l0.8-0.7v3.4c0.4,0.1,0.8,0.2,1.3,0.3v-4.7l0.8-0.7v5.5c0.4,0,0.8,0.1,1.3,0.1v-6.5v-0.2
			l0.4-0.3l0.4,0.3v0.3v6.4c0.4,0,0.8,0,1.3-0.1v-5.5l0.8,0.7v4.7c0.4-0.1,0.8-0.2,1.3-0.3v-3.4l0.8,0.7v2.5
			c0.4-0.1,0.8-0.3,1.3-0.5v-2l0.8-0.5v2.1c0.4-0.2,0.8-0.5,1.3-0.8v-2.1l0.8-0.5v2c3.2-2.5,5.2-6.4,5.2-10.7
			C299.1,180,293,173.8,285.4,173.8z M293.9,195.2l-0.8,0.5l-1.3,0.8l-0.8,0.5l-0.5,0.3l-0.2,0.1l-0.2-0.2l-0.3-0.2l-0.8-0.7
			l-1.3-1.1l-0.8-0.7l-1.3-1.1l-0.4-0.3l-0.4,0.3l-1.3,1.1l-0.8,0.7l-1.3,1.1l-0.8,0.7l-0.3,0.2l-0.2,0.2l-0.2-0.1l-0.5-0.3
			l-0.8-0.5l-1.3-0.8l-0.8-0.5l-2-2.1l2.8,1.6l2.7,1.6l3.6-3v-2.9c-1.2,0.3-2.2,0.1-2.8-0.4c-0.7-0.5-1.1-1.3-1.3-1.8l0,0l-0.1,0
			v6.3l3.3-1.8l-3.1,2.6l-1-0.6v-7.2c-0.4,0.2-0.8,0.3-1.3,0.5v5.9l-0.8-0.5v-13.8v-1.1l0.7,0.8c0.4,0.5,0.9,0.9,1.5,1.1
			c0.5,0.3,1.2,0.4,1.8,0.4c1,0,1.9-0.4,2.6-0.9c0.6-0.4,1-1,1.3-1.7c0.2-0.5,0.4-1,0.6-1.5c0.2,0.6,0.4,1.1,0.6,1.6
			c0.3,0.6,0.7,1.2,1.2,1.6c0.7,0.6,1.6,0.9,2.6,0.9c0.6,0,1.3-0.1,1.8-0.4c0.6-0.3,1.1-0.7,1.5-1.1l0.7-0.8v1.1v13.8L293,194v-5.9
			c-0.4-0.2-0.8-0.4-1.3-0.5v7.2l-1,0.6l-3.1-2.6l3.3,1.8v-6.3l-0.1,0l0,0c-0.2,0.5-0.6,1.3-1.3,1.8c-0.7,0.5-1.6,0.8-2.8,0.4v2.9
			l3.6,3l2.7-1.6l2.8-1.7L293.9,195.2z"/>
		<path class="st1" d="M289.2,189.5c0.3-0.2,0.5-0.5,0.7-0.8l-2.8,1.1C288.1,190.1,288.8,189.9,289.2,189.5z"/>
		<path class="st1" d="M291.1,187.3c-0.5-0.2-1.1-0.3-1.6-0.4c-1.3-0.3-2.7-0.4-4.1-0.4c-1.4,0-2.8,0.1-4.1,0.4
			c-0.5,0.1-1.1,0.3-1.6,0.4v0.1l4.8,1.9l0.2,0.1v0.3v3.1l0.7-0.6l0.7,0.6v-3.1v-0.3l0.2-0.1l4.8-1.9V187.3z"/>
	</g>
</g>
<g>
	<defs>
		<rect id="SVGID_1_" x="177" y="2.3" width="233" height="65"/>
	</defs>
	<clipPath id="SVGID_00000109728374945735632550000014776590961790046639_">
		<use xlink:href="#SVGID_1_"  style="overflow:visible;"/>
	</clipPath>
	<g style="clip-path:url(#SVGID_00000109728374945735632550000014776590961790046639_);">
		<path class="st1" d="M302-100.9c12.4,0,24.5,1.3,36.2,3.9c10.2,2.3,20.2,5.5,29.6,9.5v-13.2c-9.9-3.9-20.4-7-31.1-9.1
			c-11.2-2.2-22.8-3.3-34.7-3.3s-23.5,1.2-34.7,3.3c-10.8,2.1-21.2,5.2-31.1,9.1v13.2c9.5-4.1,19.4-7.2,29.6-9.5
			C277.5-99.5,289.6-100.9,302-100.9z"/>
		<path class="st1" d="M269.3-68.3c4.1,3.1,9.8,4.7,17.6,2.8L263.3-75C264.9-72.6,266.8-70.2,269.3-68.3z"/>
		<path class="st1" d="M360.2-129.6v10.6l-7.9-2.8L360.2-129.6z M302-139.7l6.4,6.4l-6.4,6.4l-6.4-6.4L302-139.7z M243.7-118.9
			v-10.6l7.9,7.9L243.7-118.9z"/>
		<path class="st1" d="M302.1-202c-64.4,0-116.8,52.2-116.8,116.8c0,37.1,17.3,70.1,44.3,91.6v-17l6.6,3.9v17.9
			c3.5,2.4,7,4.5,10.7,6.5v-18l6.6,3.9v17.3c3.5,1.6,7,3,10.7,4.3V4l6.6-5.7v28.9c3.5,0.9,7.1,1.8,10.7,2.4v-40.4l6.6-5.6v47
			c3.5,0.4,7.1,0.7,10.7,0.8v-55.5v-1.4l3.3-2.8l3.3,2.8v2.4v54.4c3.6-0.1,7.2-0.4,10.7-0.8v-47l6.6,5.6v40.4
			c3.6-0.6,7.2-1.4,10.7-2.4V-1.8l6.6,5.7v21.2c3.6-1.3,7.2-2.7,10.7-4.3V3.5l6.6-3.9v18c3.7-2,7.2-4.2,10.7-6.5v-18l6.6-3.9V6.3
			c27-21.4,44.4-54.5,44.4-91.6C418.7-149.7,366.5-202,302.1-202z M374.4-19.5l-6.6,3.9l-10.7,6.5l-6.6,3.9L346-2.5l-2,1.2l-1.8-1.5
			l-2.4-2l-6.6-5.6l-10.7-9.1l-6.6-5.6l-10.7-9.1l-3.3-2.8l-3.3,2.8l-10.7,9.1l-6.6,5.6l-10.7,9.1l-6.6,5.6l-2.4,2l-1.8,1.5l-2-1.2
			l-4.4-2.7l-6.6-3.9l-10.7-6.5l-6.6-3.9l-17.5-17.7l24,14l23.1,13.9L289.1-35v-24.3c-10.6,2.9-18.5,0.6-24.2-3.7
			c-6.1-4.5-9.5-11.1-11.2-15.5l0,0l-0.8-0.3v53.4l28-15l-26.4,22.4l-8.1-4.9v-61.5c-3.6,1.3-7.2,2.8-10.7,4.3v50.7l-6.6-3.9v-117.5
			v-9.2l5.8,7.1c3.4,4.1,7.6,7.5,12.5,9.8c4.6,2.2,9.9,3.5,15.4,3.5c8.6,0,16.5-3,22.6-8c4.7-3.8,8.5-8.7,10.8-14.4
			c1.9-4.6,3.4-8.2,5.1-13c1.7,5,3.4,9.1,5.4,13.8c2.4,5.4,6,10,10.5,13.6c6.2,5,14,8,22.6,8c5.5,0,10.8-1.3,15.4-3.5
			c4.9-2.3,9.1-5.7,12.5-9.8l5.8-7.1v9.2v117.5l-6.6,3.9v-50.7c-3.5-1.6-7.1-3-10.7-4.3V-23l-8.1,4.9l-26.4-22.4l28,15v-53.4
			l-0.8,0.3l0,0c-1.7,4.4-5.1,11-11.2,15.5c-5.7,4.3-13.6,6.6-24.2,3.7V-35L344-9.3l23.1-13.9l24.2-14.1L374.4-19.5z"/>
		<path class="st1" d="M334.6-68.3c2.5-1.9,4.5-4.3,6-6.6L317-65.5C324.8-63.5,330.5-65.3,334.6-68.3z"/>
		<path class="st1" d="M350.5-86.9c-4.5-1.4-9.1-2.7-13.8-3.7C325.6-93,314-94.3,302-94.3c-12,0-23.6,1.3-34.7,3.8
			c-4.6,1-9.3,2.3-13.8,3.7v0.9l40.7,16.2l2,0.9v2.2v26.1l5.8-5l5.8,5v-26.1v-2.2l2-0.9L350.5-86V-86.9z"/>
	</g>
</g>
</svg>
