<?xml version="1.0" encoding="utf-8"?>
<!-- Generator: Adobe Illustrator 27.9.0, SVG Export Plug-In . SVG Version: 6.00 Build 0)  -->
<svg version="1.1" id="Layer_1" xmlns="http://www.w3.org/2000/svg" xmlns:xlink="http://www.w3.org/1999/xlink" x="0px" y="0px"
	 viewBox="0 0 410 218" style="enable-background:new 0 0 410 218;" xml:space="preserve">
<style type="text/css">
	.st0{clip-path:url(#SVGID_00000158740807908591824780000000429944365743657856_);}
	.st1{fill:#FFFFFF;}
</style>
<g>
	<defs>
		<path id="SVGID_1_" d="M401.9,216H7.6c-3.5,0-6.4-2.9-5.5-6.4V9.3C1.1,5.8,4,2.9,7.6,2.9h394.3c3.5,0,6.4,2.9,6.4,6.4v200.2
			C408.3,213.1,405.4,216,401.9,216z"/>
	</defs>
	<use xlink:href="#SVGID_1_"  style="overflow:visible;fill:#8735FF;"/>
	<clipPath id="SVGID_00000027604962875202234900000010752822523282430880_">
		<use xlink:href="#SVGID_1_"  style="overflow:visible;"/>
	</clipPath>
	<g style="clip-path:url(#SVGID_00000027604962875202234900000010752822523282430880_);">
		<path class="st1" d="M422.9,93.6c12.4,0,24.5,1.3,36.2,3.9c10.2,2.3,20.2,5.5,29.6,9.5V93.8c-9.9-3.9-20.4-7-31.1-9.1
			c-11.2-2.2-22.8-3.3-34.7-3.3c-11.9,0-23.5,1.2-34.7,3.3c-10.8,2.1-21.2,5.2-31.1,9.1V107c9.5-4.1,19.4-7.2,29.6-9.5
			C398.4,94.9,410.5,93.6,422.9,93.6z"/>
		<path class="st1" d="M390.2,126.1c4.1,3.1,9.8,4.7,17.6,2.8l-23.6-9.5C385.8,121.8,387.7,124.3,390.2,126.1z"/>
		<path class="st1" d="M481.1,64.9v10.6l-7.9-2.8L481.1,64.9z M422.9,54.8l6.4,6.4l-6.4,6.4l-6.4-6.4L422.9,54.8z M364.6,75.6V65
			l7.9,7.9L364.6,75.6z"/>
		<path class="st1" d="M422.9-7.5c-64.4,0-116.8,52.2-116.8,116.8c0,37.1,17.3,70.1,44.3,91.6v-17l6.6,3.9v17.9
			c3.5,2.4,7,4.5,10.7,6.5v-18l6.6,3.9v17.3c3.5,1.6,7,3,10.7,4.3v-21.2l6.6-5.7v28.9c3.5,0.9,7.1,1.8,10.7,2.4v-40.4l6.6-5.6v47
			c3.5,0.4,7.1,0.7,10.7,0.8v-55.5V169l3.3-2.8l3.3,2.8v2.4v54.4c3.6-0.1,7.2-0.4,10.7-0.8v-47l6.6,5.6V224
			c3.6-0.6,7.2-1.4,10.7-2.4v-28.9l6.6,5.7v21.2c3.6-1.3,7.2-2.7,10.7-4.3V198l6.6-3.9v18c3.7-2,7.2-4.2,10.7-6.5v-18l6.6-3.9v17.1
			c27-21.4,44.4-54.5,44.4-91.6C539.6,44.8,487.4-7.5,422.9-7.5z M495.3,174.9l-6.6,3.9l-10.7,6.5l-6.6,3.9l-4.4,2.7l-2,1.2
			l-1.8-1.5l-2.4-2L454,184l-10.7-9.1l-6.6-5.6l-10.7-9.1l-3.3-2.8l-3.3,2.8l-10.7,9.1l-6.6,5.6l-10.7,9.1l-6.6,5.6l-2.4,2l-1.8,1.5
			l-2-1.2l-4.4-2.7l-6.6-3.9l-10.7-6.5l-6.6-3.9l-17.5-17.7l24,14l23.1,13.9l30.3-25.7v-24.3c-10.6,2.9-18.5,0.6-24.2-3.7
			c-6.1-4.5-9.5-11.1-11.2-15.5l0,0l-0.8-0.3V169l28-15l-26.4,22.4l-8.1-4.9v-61.5c-3.6,1.3-7.2,2.8-10.7,4.3v50.7l-6.6-3.9V43.5
			v-9.2l5.8,7.1c3.4,4.1,7.6,7.5,12.5,9.8c4.6,2.2,9.9,3.5,15.4,3.5c8.6,0,16.5-3,22.6-8c4.7-3.8,8.5-8.7,10.8-14.4
			c1.9-4.6,3.4-8.2,5.1-13c1.7,5,3.4,9.1,5.4,13.8c2.4,5.4,6,10,10.5,13.6c6.2,5,14,8,22.6,8c5.5,0,10.8-1.3,15.4-3.5
			c4.9-2.3,9.1-5.7,12.5-9.8l5.8-7.1v9.2V161l-6.6,3.9v-50.7c-3.5-1.6-7.1-3-10.7-4.3v61.5l-8.1,4.9l-26.4-22.4l28,15v-53.4
			l-0.8,0.3l0,0c-1.7,4.4-5.1,11-11.2,15.5c-5.7,4.3-13.6,6.6-24.2,3.7v24.3l30.3,25.7l23.1-13.9l24.2-14.1L495.3,174.9z"/>
		<path class="st1" d="M455.5,126.1c2.5-1.9,4.5-4.3,6-6.6l-23.6,9.5C445.7,130.9,451.4,129.2,455.5,126.1z"/>
		<path class="st1" d="M471.4,107.6c-4.5-1.4-9.1-2.7-13.8-3.7c-11.1-2.4-22.8-3.8-34.7-3.8c-12,0-23.6,1.3-34.7,3.8
			c-4.6,1-9.3,2.3-13.8,3.7v0.9l40.7,16.2l2,0.9v2.2v26.1l5.8-5l5.8,5v-26.1v-2.2l2-0.9l40.7-16.2V107.6z"/>
	</g>
</g>
<g>
	<g>
		<path class="st1" d="M31.4,38.5v1.3h-1v-1.3c-1.7-0.1-3-1-3.5-2.4l2.1-1.2c0.3,0.7,0.7,1.1,1.4,1.3V34c-0.1,0-0.1,0-0.2-0.1
			c-1.3-0.5-2.9-1.3-2.9-3.3c0-1.9,1.5-3,3.1-3.1v-1.3h1v1.3c1.3,0.2,2.4,0.9,3,2.2l-2,1.2c-0.2-0.5-0.5-0.8-0.9-1v2
			c1.3,0.6,3.1,1.1,3.1,3.2C34.5,37.1,33.2,38.3,31.4,38.5z M30.3,31.5V30c-0.4,0.1-0.7,0.4-0.7,0.8C29.7,31,29.8,31.2,30.3,31.5z
			 M32.1,35.3c0-0.4-0.2-0.6-0.7-0.8v1.6C31.9,35.9,32.1,35.6,32.1,35.3z"/>
		<path class="st1" d="M44.5,27.8v10.5h-2.4v-4.2h-3.3v4.2h-2.4V27.8h2.4v4h3.3v-4H44.5z"/>
		<path class="st1" d="M46.6,33c0-3.1,2.4-5.5,5.5-5.5c3,0,5.5,2.4,5.5,5.5s-2.4,5.5-5.5,5.5C49.1,38.5,46.6,36.1,46.6,33z M55.1,33
			c0-1.9-1.4-3.1-3.1-3.1S49,31.2,49,33c0,1.9,1.3,3.1,3.1,3.1S55.1,34.9,55.1,33z"/>
		<path class="st1" d="M67.9,27.8v10.5h-1.8l-4-5.7v5.7h-2.4V27.8h1.8l4,5.7v-5.7H67.9z"/>
		<path class="st1" d="M70,33c0-3.1,2.3-5.5,5.5-5.5c1.9,0,3.6,0.9,4.5,2.4l-2.1,1.2c-0.5-0.8-1.4-1.3-2.4-1.3
			c-1.9,0-3.1,1.2-3.1,3.1c0,1.9,1.2,3.1,3.1,3.1c1.1,0,2-0.5,2.4-1.3l2.1,1.2c-0.9,1.5-2.6,2.4-4.5,2.4C72.3,38.5,70,36.1,70,33z"
			/>
		<path class="st1" d="M89.9,27.8v10.5h-2.4v-4.2h-3.3v4.2h-2.4V27.8h2.4v4h3.3v-4H89.9z"/>
		<path class="st1" d="M92,33c0-3.1,2.4-5.5,5.5-5.5c3,0,5.5,2.4,5.5,5.5s-2.4,5.5-5.5,5.5C94.5,38.5,92,36.1,92,33z M100.5,33
			c0-1.9-1.4-3.1-3.1-3.1s-3.1,1.2-3.1,3.1c0,1.9,1.3,3.1,3.1,3.1S100.5,34.9,100.5,33z"/>
		<path class="st1" d="M116.6,30.1h-2.7v8.2h-2.4v-8.2h-2.7v-2.3h7.8V30.1z"/>
		<path class="st1" d="M117.3,33c0-3.1,2.4-5.5,5.5-5.5c3,0,5.5,2.4,5.5,5.5s-2.4,5.5-5.5,5.5C119.8,38.5,117.3,36.1,117.3,33z
			 M125.9,33c0-1.9-1.4-3.1-3.1-3.1s-3.1,1.2-3.1,3.1c0,1.9,1.3,3.1,3.1,3.1S125.9,34.9,125.9,33z"/>
		<path class="st1" d="M136.1,38.3l-3.4-4.9v4.9h-2.4V27.8h2.4v4.6l3.2-4.6h2.7l-3.5,5.1l3.7,5.4H136.1z"/>
		<path class="st1" d="M147.1,36v2.3h-6.6V27.8h6.5v2.3h-4.1v1.7h3.8v2.3h-3.8V36H147.1z"/>
		<path class="st1" d="M157.4,27.8v10.5h-1.8l-4-5.7v5.7h-2.4V27.8h1.8l4,5.7v-5.7H157.4z"/>
		<path class="st1" d="M168,34.8h-1.1v3.4h-2.4V27.8h4.2c2,0,3.6,1.6,3.6,3.6c0,1.3-0.8,2.5-1.9,3l2.2,3.9H170L168,34.8z
			 M166.9,32.7h1.8c0.7,0,1.2-0.6,1.2-1.3s-0.5-1.3-1.2-1.3h-1.8V32.7z"/>
		<path class="st1" d="M181.1,36v2.3h-6.6V27.8h6.5v2.3h-4.1v1.7h3.8v2.3h-3.8V36H181.1z"/>
		<path class="st1" d="M182.4,27.8h2.5l1.8,7.3l2-7.3h1.9l2,7.3l1.8-7.3h2.5l-2.9,10.5h-2.7l-1.7-6.2l-1.7,6.2h-2.7L182.4,27.8z"/>
		<path class="st1" d="M204.4,36.6h-3.9l-0.5,1.6h-2.6l3.6-10.5h3.1l3.6,10.5H205L204.4,36.6z M203.7,34.4l-1.2-3.9l-1.2,3.9H203.7z
			"/>
		<path class="st1" d="M212.8,34.8h-1.1v3.4h-2.4V27.8h4.2c2,0,3.6,1.6,3.6,3.6c0,1.3-0.8,2.5-1.9,3l2.2,3.9h-2.6L212.8,34.8z
			 M211.6,32.7h1.8c0.7,0,1.2-0.6,1.2-1.3s-0.5-1.3-1.2-1.3h-1.8V32.7z"/>
		<path class="st1" d="M228.5,33c0,3-2.2,5.2-5.1,5.2h-4.2V27.8h4.2C226.3,27.8,228.5,30.1,228.5,33z M226.2,33
			c0-1.8-1.1-2.9-2.8-2.9h-1.8V36h1.8C225.1,36,226.2,34.8,226.2,33z"/>
		<path class="st1" d="M229.7,35.9l2.1-1.2c0.4,0.9,1,1.5,2.2,1.5c1.1,0,1.4-0.5,1.4-0.9c0-0.6-0.6-0.9-2.2-1.3
			c-1.6-0.4-3.1-1.2-3.1-3.2c0-2,1.7-3.2,3.5-3.2c1.7,0,3.1,0.8,3.8,2.4l-2,1.2c-0.4-0.8-0.9-1.2-1.8-1.2c-0.8,0-1.1,0.4-1.1,0.8
			c0,0.5,0.3,0.8,1.9,1.3c1.6,0.5,3.4,1,3.4,3.3c0,2-1.6,3.2-3.9,3.2C231.7,38.5,230.3,37.4,229.7,35.9z"/>
	</g>
</g>
<g>
	<g>
		<path class="st1" d="M32.9,110.6v0.6h-5.2v-9.1h5.2v0.7h-4.5v3.5h4.2v0.7h-4.2v3.6H32.9z"/>
		<path class="st1" d="M40.6,109h-4.6l-0.9,2.3h-0.7l3.5-9.1h0.7l3.5,9.1h-0.7L40.6,109z M40.4,108.3l-2-5.3l-2,5.3H40.4z"/>
		<path class="st1" d="M47.8,107.6h-2.9v3.7h-0.7v-9.1h3.6c1.5,0,2.7,1.2,2.7,2.7c0,1.2-0.8,2.3-2,2.6l2.3,3.8H50L47.8,107.6z
			 M44.9,106.9h2.9c1.1,0,2-0.9,2-2c0-1.1-0.9-2-2-2h-2.9V106.9z"/>
		<path class="st1" d="M59.5,102.2v9.1h-0.6l-5.4-7.8v7.8h-0.7v-9.1h0.6l5.4,7.8v-7.8H59.5z"/>
		<path class="st1" d="M68.6,102.2v9.1h-0.7v-8.3l-2.1,0.7l-0.2-0.6l2.4-0.8H68.6z"/>
		<path class="st1" d="M77.4,105c0,1.6-1.2,2.8-2.8,2.8h-2.4v3.5h-0.7v-9.1h3.1C76.2,102.2,77.4,103.4,77.4,105z M76.7,105
			c0-1.3-0.9-2.2-2.1-2.2h-2.4v4.3h2.4C75.8,107.2,76.7,106.3,76.7,105z"/>
		<path class="st1" d="M85.1,102.8h-2.9v8.5h-0.7v-8.5h-2.9v-0.7h6.4V102.8z"/>
		<path class="st1" d="M92,102.8v3.6h4.2v0.6H92v4.2h-0.7v-9.1h5v0.7H92z"/>
		<path class="st1" d="M98.2,106.7c0-2.6,2.1-4.7,4.7-4.7s4.7,2.1,4.7,4.7c0,2.6-2.1,4.7-4.7,4.7S98.2,109.3,98.2,106.7z
			 M106.9,106.7c0-2.2-1.8-4-4-4s-4,1.8-4,4s1.8,4,4,4S106.9,109,106.9,106.7z"/>
		<path class="st1" d="M113.5,107.6h-2.9v3.7h-0.7v-9.1h3.6c1.5,0,2.7,1.2,2.7,2.7c0,1.2-0.8,2.3-2,2.6l2.3,3.8h-0.8L113.5,107.6z
			 M110.6,106.9h2.9c1.1,0,2-0.9,2-2c0-1.1-0.9-2-2-2h-2.9V106.9z"/>
		<path class="st1" d="M127.9,110.6v0.6h-5.2v-9.1h5.2v0.7h-4.5v3.5h4.2v0.7h-4.2v3.6H127.9z"/>
		<path class="st1" d="M129.3,102.2h0.8l3,8.2l3-8.2h0.7l-3.4,9.1h-0.7L129.3,102.2z"/>
		<path class="st1" d="M144,110.6v0.6h-5.2v-9.1h5.2v0.7h-4.5v3.5h4.2v0.7h-4.2v3.6H144z"/>
		<path class="st1" d="M149.9,107.6H147v3.7h-0.7v-9.1h3.6c1.5,0,2.7,1.2,2.7,2.7c0,1.2-0.8,2.3-2,2.6l2.3,3.8h-0.8L149.9,107.6z
			 M147,106.9h2.9c1.1,0,2-0.9,2-2c0-1.1-0.9-2-2-2H147V106.9z"/>
		<path class="st1" d="M157.7,107.5v3.7H157v-3.7l-3.3-5.4h0.8l2.9,4.7l2.9-4.7h0.8L157.7,107.5z"/>
		<path class="st1" d="M170,111.4v1.2h-0.6v-1.2c-1.4-0.1-2.5-0.7-2.9-1.8l0.6-0.3c0.3,0.9,1.1,1.5,2.3,1.5v-3.9
			c-1.3-0.5-2.5-0.9-2.5-2.5c0-1.4,1.1-2.3,2.5-2.4v-1.2h0.6v1.2c1,0.1,1.9,0.7,2.3,1.6l-0.6,0.3c-0.3-0.7-0.9-1.2-1.7-1.3v3.7
			c1.3,0.5,2.5,1,2.5,2.5C172.5,110.3,171.5,111.3,170,111.4z M169.4,106.2v-3.5c-1.1,0.1-1.8,0.8-1.8,1.7
			C167.6,105.4,168.4,105.8,169.4,106.2z M171.8,109c0-1-0.8-1.5-1.8-1.8v3.6C171.2,110.6,171.8,109.9,171.8,109z"/>
		<path class="st1" d="M173.6,102.2h0.8l3,8.2l3-8.2h0.7l-3.4,9.1H177L173.6,102.2z"/>
		<path class="st1" d="M188.7,102.8h-2.9v8.5h-0.7v-8.5h-2.9v-0.7h6.4V102.8z"/>
		<path class="st1" d="M194.4,107.6h-2.9v3.7h-0.7v-9.1h3.6c1.5,0,2.7,1.2,2.7,2.7c0,1.2-0.8,2.3-2,2.6l2.3,3.8h-0.8L194.4,107.6z
			 M191.5,106.9h2.9c1.1,0,2-0.9,2-2c0-1.1-0.9-2-2-2h-2.9V106.9z"/>
		<path class="st1" d="M199.2,108.2v-6.1h0.7v6.1c0,1.5,0.9,2.5,2.6,2.5c1.7,0,2.7-1,2.7-2.5v-6.1h0.7v6.1c0,1.9-1.3,3.2-3.3,3.2
			S199.2,110.2,199.2,108.2z"/>
		<path class="st1" d="M215.8,107.5v3.7h-0.7v-3.7l-3.3-5.4h0.8l2.9,4.7l2.9-4.7h0.8L215.8,107.5z"/>
		<path class="st1" d="M219.8,106.7c0-2.6,2.1-4.7,4.7-4.7s4.7,2.1,4.7,4.7c0,2.6-2.1,4.7-4.7,4.7S219.8,109.3,219.8,106.7z
			 M228.5,106.7c0-2.2-1.8-4-4-4s-4,1.8-4,4s1.8,4,4,4S228.5,109,228.5,106.7z"/>
		<path class="st1" d="M231.4,108.2v-6.1h0.7v6.1c0,1.5,0.9,2.5,2.6,2.5c1.7,0,2.7-1,2.7-2.5v-6.1h0.7v6.1c0,1.9-1.3,3.2-3.3,3.2
			S231.4,110.2,231.4,108.2z"/>
		<path class="st1" d="M244.5,109.3l0.6-0.4c0.3,1.1,1.2,1.8,2.7,1.8c1.5,0,2.3-0.8,2.3-1.8c0-1.1-1-1.5-2.4-2
			c-1.5-0.5-2.9-0.9-2.9-2.5c0-1.5,1.2-2.4,2.8-2.4c1.5,0,2.5,0.9,2.9,1.9l-0.6,0.3c-0.3-0.8-1-1.6-2.3-1.6c-1.3,0-2.1,0.7-2.1,1.8
			c0,1.1,0.9,1.4,2.2,1.9c1.6,0.5,3,1,3,2.6c0,1.5-1.2,2.5-3,2.5C246.1,111.4,244.9,110.6,244.5,109.3z"/>
		<path class="st1" d="M259,105c0,1.6-1.2,2.8-2.8,2.8h-2.4v3.5H253v-9.1h3.1C257.8,102.2,259,103.4,259,105z M258.3,105
			c0-1.3-0.9-2.2-2.1-2.2h-2.4v4.3h2.4C257.4,107.2,258.3,106.3,258.3,105z"/>
		<path class="st1" d="M266.6,110.6v0.6h-5.2v-9.1h5.2v0.7H262v3.5h4.2v0.7H262v3.6H266.6z"/>
		<path class="st1" d="M275.6,102.2v9.1H275l-5.4-7.8v7.8h-0.7v-9.1h0.6l5.4,7.8v-7.8H275.6z"/>
		<path class="st1" d="M286.2,106.7c0,2.5-1.8,4.5-4.3,4.5h-3.4v-9.1h3.4C284.4,102.2,286.2,104.2,286.2,106.7z M285.5,106.7
			c0-2.2-1.5-3.9-3.6-3.9h-2.7v7.8h2.7C284.1,110.6,285.5,108.9,285.5,106.7z"/>
		<path class="st1" d="M287.6,110.8c0-0.3,0.2-0.6,0.6-0.6c0.3,0,0.6,0.3,0.6,0.6s-0.3,0.6-0.6,0.6
			C287.9,111.4,287.6,111.2,287.6,110.8z"/>
		<path class="st1" d="M33.3,122.8h-2.9v8.5h-0.7v-8.5h-2.9v-0.7h6.4V122.8z"/>
		<path class="st1" d="M42,122.2v9.1h-0.7v-4.4H36v4.4h-0.7v-9.1H36v4.1h5.3v-4.1H42z"/>
		<path class="st1" d="M50.2,130.6v0.6h-5.2v-9.1h5.2v0.7h-4.5v3.5h4.2v0.7h-4.2v3.6H50.2z"/>
		<path class="st1" d="M64.8,131.3h-0.7v-8.1l-3.4,5.6h-0.1l-3.4-5.6v8.1h-0.7v-9.1h0.9l3.2,5.4l3.2-5.4h0.9V131.3z"/>
		<path class="st1" d="M67.2,126.7c0-2.6,2.1-4.7,4.7-4.7s4.7,2.1,4.7,4.7c0,2.6-2.1,4.7-4.7,4.7S67.2,129.3,67.2,126.7z
			 M75.9,126.7c0-2.2-1.8-4-4-4s-4,1.8-4,4s1.8,4,4,4S75.9,129,75.9,126.7z"/>
		<path class="st1" d="M82.6,127.6h-2.9v3.7H79v-9.1h3.6c1.5,0,2.7,1.2,2.7,2.7c0,1.2-0.8,2.3-2,2.6l2.3,3.8h-0.8L82.6,127.6z
			 M79.7,126.9h2.9c1.1,0,2-0.9,2-2c0-1.1-0.9-2-2-2h-2.9V126.9z"/>
		<path class="st1" d="M92.9,130.6v0.6h-5.2v-9.1h5.2v0.7h-4.5v3.5h4.2v0.7h-4.2v3.6H92.9z"/>
		<path class="st1" d="M102.3,127.5v3.7h-0.7v-3.7l-3.3-5.4h0.8l2.9,4.7l2.9-4.7h0.8L102.3,127.5z"/>
		<path class="st1" d="M106.4,126.7c0-2.6,2.1-4.7,4.7-4.7s4.7,2.1,4.7,4.7c0,2.6-2.1,4.7-4.7,4.7S106.4,129.3,106.4,126.7z
			 M115.1,126.7c0-2.2-1.8-4-4-4s-4,1.8-4,4s1.8,4,4,4S115.1,129,115.1,126.7z"/>
		<path class="st1" d="M118,128.2v-6.1h0.7v6.1c0,1.5,0.9,2.5,2.6,2.5c1.7,0,2.7-1,2.7-2.5v-6.1h0.7v6.1c0,1.9-1.3,3.2-3.3,3.2
			S118,130.2,118,128.2z"/>
		<path class="st1" d="M138,128.8c0,1.4-1.1,2.5-2.5,2.5h-3.9v-9.1h3.6c1.3,0,2.4,1.1,2.4,2.4c0,0.9-0.5,1.6-1.2,2
			C137.3,126.9,138,127.8,138,128.8z M132.2,122.8v3.5h2.9c0.9,0,1.7-0.8,1.7-1.7s-0.8-1.7-1.7-1.7H132.2z M137.3,128.8
			c0-1-0.8-1.8-1.8-1.8h-3.2v3.7h3.2C136.5,130.6,137.3,129.8,137.3,128.8z"/>
		<path class="st1" d="M140.1,128.2v-6.1h0.7v6.1c0,1.5,0.9,2.5,2.6,2.5c1.7,0,2.7-1,2.7-2.5v-6.1h0.7v6.1c0,1.9-1.3,3.2-3.3,3.2
			S140.1,130.2,140.1,128.2z"/>
		<path class="st1" d="M152.4,127.5v3.7h-0.7v-3.7l-3.3-5.4h0.8l2.9,4.7l2.9-4.7h0.8L152.4,127.5z"/>
		<path class="st1" d="M156.4,133.1h-0.6l0.5-2.7h0.8L156.4,133.1z"/>
		<path class="st1" d="M169.4,122.8h-2.9v8.5h-0.7v-8.5h-2.9v-0.7h6.4V122.8z"/>
		<path class="st1" d="M178.1,122.2v9.1h-0.7v-4.4h-5.3v4.4h-0.7v-9.1h0.7v4.1h5.3v-4.1H178.1z"/>
		<path class="st1" d="M186.3,130.6v0.6H181v-9.1h5.2v0.7h-4.5v3.5h4.2v0.7h-4.2v3.6H186.3z"/>
		<path class="st1" d="M200.9,131.3h-0.7v-8.1l-3.4,5.6h-0.1l-3.4-5.6v8.1h-0.7v-9.1h0.9l3.2,5.4l3.2-5.4h0.9V131.3z"/>
		<path class="st1" d="M203.3,126.7c0-2.6,2.1-4.7,4.7-4.7s4.7,2.1,4.7,4.7c0,2.6-2.1,4.7-4.7,4.7S203.3,129.3,203.3,126.7z
			 M212,126.7c0-2.2-1.8-4-4-4s-4,1.8-4,4s1.8,4,4,4S212,129,212,126.7z"/>
		<path class="st1" d="M218.7,127.6h-2.9v3.7h-0.7v-9.1h3.6c1.5,0,2.7,1.2,2.7,2.7c0,1.2-0.8,2.3-2,2.6l2.3,3.8h-0.8L218.7,127.6z
			 M215.8,126.9h2.9c1.1,0,2-0.9,2-2c0-1.1-0.9-2-2-2h-2.9V126.9z"/>
		<path class="st1" d="M229,130.6v0.6h-5.2v-9.1h5.2v0.7h-4.5v3.5h4.2v0.7h-4.2v3.6H229z"/>
		<path class="st1" d="M242.1,122.2v9.1h-0.6l-5.4-7.8v7.8h-0.7v-9.1h0.6l5.4,7.8v-7.8H242.1z"/>
		<path class="st1" d="M245.7,122.8v3.6h4.2v0.6h-4.2v4.2H245v-9.1h5v0.7H245.7z"/>
		<path class="st1" d="M258,122.8h-2.9v8.5h-0.7v-8.5h-2.9v-0.7h6.4V122.8z"/>
		<path class="st1" d="M260.3,124.9h-0.6l0.5-2.7h0.8L260.3,124.9z"/>
		<path class="st1" d="M262.7,129.3l0.6-0.4c0.3,1.1,1.2,1.8,2.7,1.8c1.5,0,2.3-0.8,2.3-1.8c0-1.1-1-1.5-2.4-2
			c-1.5-0.5-2.9-0.9-2.9-2.5c0-1.5,1.2-2.4,2.8-2.4c1.5,0,2.5,0.9,2.9,1.9l-0.6,0.3c-0.3-0.8-1-1.6-2.3-1.6c-1.3,0-2.1,0.7-2.1,1.8
			c0,1.1,0.9,1.4,2.2,1.9c1.6,0.5,3,1,3,2.6c0,1.5-1.2,2.5-3,2.5C264.3,131.4,263.1,130.6,262.7,129.3z"/>
		<path class="st1" d="M30.7,147.5v3.7H30v-3.7l-3.3-5.4h0.8l2.9,4.7l2.9-4.7H34L30.7,147.5z"/>
		<path class="st1" d="M34.7,146.7c0-2.6,2.1-4.7,4.7-4.7s4.7,2.1,4.7,4.7c0,2.6-2.1,4.7-4.7,4.7S34.7,149.3,34.7,146.7z
			 M43.4,146.7c0-2.2-1.8-4-4-4s-4,1.8-4,4s1.8,4,4,4S43.4,149,43.4,146.7z"/>
		<path class="st1" d="M46.3,148.2v-6.1H47v6.1c0,1.5,0.9,2.5,2.6,2.5c1.7,0,2.7-1,2.7-2.5v-6.1H53v6.1c0,1.9-1.3,3.2-3.3,3.2
			S46.3,150.2,46.3,148.2z"/>
		<path class="st1" d="M66.3,148.8c0,1.4-1.1,2.5-2.5,2.5h-3.9v-9.1h3.6c1.3,0,2.4,1.1,2.4,2.4c0,0.9-0.5,1.6-1.2,2
			C65.6,146.9,66.3,147.8,66.3,148.8z M60.6,142.8v3.5h2.9c0.9,0,1.7-0.8,1.7-1.7s-0.8-1.7-1.7-1.7H60.6z M65.6,148.8
			c0-1-0.8-1.8-1.8-1.8h-3.2v3.7h3.2C64.8,150.6,65.6,149.8,65.6,148.8z"/>
		<path class="st1" d="M68.4,148.2v-6.1h0.7v6.1c0,1.5,0.9,2.5,2.6,2.5c1.7,0,2.7-1,2.7-2.5v-6.1h0.7v6.1c0,1.9-1.3,3.2-3.3,3.2
			S68.4,150.2,68.4,148.2z"/>
		<path class="st1" d="M80.8,147.5v3.7h-0.7v-3.7l-3.3-5.4h0.8l2.9,4.7l2.9-4.7h0.8L80.8,147.5z"/>
		<path class="st1" d="M84.7,153.1h-0.6l0.5-2.7h0.8L84.7,153.1z"/>
		<path class="st1" d="M97.7,142.8h-2.9v8.5h-0.7v-8.5h-2.9v-0.7h6.4V142.8z"/>
		<path class="st1" d="M106.4,142.2v9.1h-0.7v-4.4h-5.3v4.4h-0.7v-9.1h0.7v4.1h5.3v-4.1H106.4z"/>
		<path class="st1" d="M114.6,150.6v0.6h-5.2v-9.1h5.2v0.7H110v3.5h4.2v0.7H110v3.6H114.6z"/>
		<path class="st1" d="M121.7,142.8v3.6h4.2v0.6h-4.2v4.2H121v-9.1h5v0.7H121.7z"/>
		<path class="st1" d="M133.3,149h-4.6l-0.9,2.3h-0.7l3.5-9.1h0.7l3.5,9.1h-0.7L133.3,149z M133,148.3l-2-5.3l-2,5.3H133z"/>
		<path class="st1" d="M136.1,149.3l0.6-0.4c0.3,1.1,1.2,1.8,2.7,1.8c1.5,0,2.3-0.8,2.3-1.8c0-1.1-1-1.5-2.4-2
			c-1.5-0.5-2.9-0.9-2.9-2.5c0-1.5,1.2-2.4,2.8-2.4c1.5,0,2.5,0.9,2.9,1.9l-0.6,0.3c-0.3-0.8-1-1.6-2.3-1.6c-1.3,0-2.1,0.7-2.1,1.8
			c0,1.1,0.9,1.4,2.2,1.9c1.6,0.5,3,1,3,2.6c0,1.5-1.2,2.5-3,2.5C137.7,151.4,136.5,150.6,136.1,149.3z"/>
		<path class="st1" d="M150,142.8h-2.9v8.5h-0.7v-8.5h-2.9v-0.7h6.4V142.8z"/>
		<path class="st1" d="M157.3,150.6v0.6h-5.2v-9.1h5.2v0.7h-4.5v3.5h4.2v0.7h-4.2v3.6H157.3z"/>
		<path class="st1" d="M163.2,147.6h-2.9v3.7h-0.7v-9.1h3.6c1.5,0,2.7,1.2,2.7,2.7c0,1.2-0.8,2.3-2,2.6l2.3,3.8h-0.8L163.2,147.6z
			 M160.3,146.9h2.9c1.1,0,2-0.9,2-2c0-1.1-0.9-2-2-2h-2.9V146.9z"/>
		<path class="st1" d="M175.4,147.5v3.7h-0.7v-3.7l-3.3-5.4h0.8l2.9,4.7l2.9-4.7h0.8L175.4,147.5z"/>
		<path class="st1" d="M179.4,146.7c0-2.6,2.1-4.7,4.7-4.7s4.7,2.1,4.7,4.7c0,2.6-2.1,4.7-4.7,4.7S179.4,149.3,179.4,146.7z
			 M188.1,146.7c0-2.2-1.8-4-4-4s-4,1.8-4,4s1.8,4,4,4S188.1,149,188.1,146.7z"/>
		<path class="st1" d="M191,148.2v-6.1h0.7v6.1c0,1.5,0.9,2.5,2.6,2.5c1.7,0,2.7-1,2.7-2.5v-6.1h0.7v6.1c0,1.9-1.3,3.2-3.3,3.2
			S191,150.2,191,148.2z"/>
		<path class="st1" d="M213.3,147.4c0,2.2-1.7,4-4.4,4c-2.8,0-4.8-2.1-4.8-4.7c0-2.6,2-4.7,4.7-4.7c1.7,0,3.2,0.9,3.9,2.2l-0.6,0.4
			c-0.6-1.1-1.9-1.9-3.3-1.9c-2.4,0-4,1.8-4,4s1.7,4,4.1,4c2.2,0,3.5-1.4,3.7-3.1h-3.9V147h4.6V147.4z"/>
		<path class="st1" d="M215.1,146.7c0-2.6,2.1-4.7,4.7-4.7s4.7,2.1,4.7,4.7c0,2.6-2.1,4.7-4.7,4.7S215.1,149.3,215.1,146.7z
			 M223.8,146.7c0-2.2-1.8-4-4-4s-4,1.8-4,4s1.8,4,4,4S223.8,149,223.8,146.7z"/>
		<path class="st1" d="M230.9,148.2v-6.1h0.7v6.1c0,1.5,0.9,2.5,2.6,2.5c1.7,0,2.7-1,2.7-2.5v-6.1h0.7v6.1c0,1.9-1.3,3.2-3.3,3.2
			S230.9,150.2,230.9,148.2z"/>
		<path class="st1" d="M246.3,145c0,1.6-1.2,2.8-2.8,2.8H241v3.5h-0.7v-9.1h3.1C245.1,142.2,246.3,143.4,246.3,145z M245.6,145
			c0-1.3-0.9-2.2-2.1-2.2H241v4.3h2.4C244.7,147.2,245.6,146.3,245.6,145z"/>
		<path class="st1" d="M258.3,142.8h-2.9v8.5h-0.7v-8.5h-2.9v-0.7h6.4V142.8z"/>
		<path class="st1" d="M267.1,142.2v9.1h-0.7v-4.4h-5.3v4.4h-0.7v-9.1h0.7v4.1h5.3v-4.1H267.1z"/>
		<path class="st1" d="M275.2,150.6v0.6H270v-9.1h5.2v0.7h-4.5v3.5h4.2v0.7h-4.2v3.6H275.2z"/>
		<path class="st1" d="M32.6,170.6v0.6h-5v-9.1h0.7v8.5H32.6z"/>
		<path class="st1" d="M40,170.6v0.6h-5.2v-9.1h5.2v0.7h-4.5v3.5h4.2v0.7h-4.2v3.6H40z"/>
		<path class="st1" d="M47.7,169h-4.6l-0.9,2.3h-0.7l3.5-9.1h0.7l3.5,9.1h-0.7L47.7,169z M47.4,168.3l-2-5.3l-2,5.3H47.4z"/>
		<path class="st1" d="M59,166.7c0,2.5-1.8,4.5-4.3,4.5h-3.4v-9.1h3.4C57.2,162.2,59,164.2,59,166.7z M58.3,166.7
			c0-2.2-1.5-3.9-3.6-3.9H52v7.8h2.7C56.8,170.6,58.3,168.9,58.3,166.7z"/>
		<path class="st1" d="M66.6,170.6v0.6h-5.2v-9.1h5.2v0.7h-4.5v3.5h4.2v0.7h-4.2v3.6H66.6z"/>
		<path class="st1" d="M72.5,167.6h-2.9v3.7h-0.7v-9.1h3.6c1.5,0,2.7,1.2,2.7,2.7c0,1.2-0.8,2.3-2,2.6l2.3,3.8h-0.8L72.5,167.6z
			 M69.6,166.9h2.9c1.1,0,2-0.9,2-2c0-1.1-0.9-2-2-2h-2.9V166.9z"/>
		<path class="st1" d="M84,168.8c0,1.4-1.1,2.5-2.5,2.5h-3.9v-9.1h3.6c1.3,0,2.4,1.1,2.4,2.4c0,0.9-0.5,1.6-1.2,2
			C83.3,166.9,84,167.8,84,168.8z M78.3,162.8v3.5h2.9c0.9,0,1.7-0.8,1.7-1.7s-0.8-1.7-1.7-1.7H78.3z M83.3,168.8
			c0-1-0.8-1.8-1.8-1.8h-3.2v3.7h3.2C82.5,170.6,83.3,169.8,83.3,168.8z"/>
		<path class="st1" d="M85.8,166.7c0-2.6,2.1-4.7,4.7-4.7s4.7,2.1,4.7,4.7c0,2.6-2.1,4.7-4.7,4.7S85.8,169.3,85.8,166.7z
			 M94.5,166.7c0-2.2-1.8-4-4-4s-4,1.8-4,4s1.8,4,4,4S94.5,169,94.5,166.7z"/>
		<path class="st1" d="M102.5,169h-4.6l-0.9,2.3h-0.7l3.5-9.1h0.7l3.5,9.1h-0.7L102.5,169z M102.2,168.3l-2-5.3l-2,5.3H102.2z"/>
		<path class="st1" d="M109.6,167.6h-2.9v3.7h-0.7v-9.1h3.6c1.5,0,2.7,1.2,2.7,2.7c0,1.2-0.8,2.3-2,2.6l2.3,3.8h-0.8L109.6,167.6z
			 M106.8,166.9h2.9c1.1,0,2-0.9,2-2c0-1.1-0.9-2-2-2h-2.9V166.9z"/>
		<path class="st1" d="M122.4,166.7c0,2.5-1.8,4.5-4.3,4.5h-3.4v-9.1h3.4C120.6,162.2,122.4,164.2,122.4,166.7z M121.7,166.7
			c0-2.2-1.5-3.9-3.6-3.9h-2.7v7.8h2.7C120.3,170.6,121.7,168.9,121.7,166.7z"/>
		<path class="st1" d="M123.8,170.8c0-0.3,0.2-0.6,0.6-0.6c0.3,0,0.6,0.3,0.6,0.6s-0.3,0.6-0.6,0.6
			C124.1,171.4,123.8,171.2,123.8,170.8z"/>
	</g>
</g>
<g>
	<path class="st1" d="M28.1,77.3l1.6-0.9c0.8,2.9,3.2,4.8,7.1,4.8c4,0,6-2,6-4.8c0-2.9-2.5-3.9-6.2-5.1c-4-1.3-7.5-2.4-7.5-6.6
		c0-3.9,3.2-6.4,7.2-6.4c3.9,0,6.5,2.2,7.6,5l-1.5,0.8c-0.9-2.1-2.7-4.1-6.1-4.1c-3.3,0-5.4,1.9-5.4,4.6c0,2.9,2.4,3.7,5.8,4.9
		c4.2,1.4,7.9,2.7,7.9,6.8c0,3.9-3.1,6.5-7.8,6.5C32.3,82.9,29.2,80.7,28.1,77.3z"/>
	<path class="st1" d="M68.2,74.1c0,5-3.9,8.9-8.8,8.9c-3.3,0-5.9-1.7-7.3-4.3v10.7h-1.7V65.6h1.7v3.9c1.4-2.6,4-4.3,7.3-4.3
		C64.2,65.2,68.2,69,68.2,74.1z M66.5,74.1c0-4-3.2-7.2-7.2-7.2c-4,0-7.2,3.2-7.2,7.2c0,4,3.2,7.2,7.2,7.2
		C63.3,81.3,66.5,78.1,66.5,74.1z"/>
	<path class="st1" d="M90,74.1c0,0.3,0,0.5,0,0.8H74.6c0.4,3.8,3.3,6.4,7.2,6.4c2.8,0,4.9-1.3,5.9-3.1l1.5,0.9
		c-1.4,2.3-4,3.8-7.4,3.8c-5.2,0-8.9-3.7-8.9-8.9c0-5,3.6-8.9,8.8-8.9C86.8,65.2,90,69.5,90,74.1z M74.6,73.3h13.7
		c-0.4-4.1-3.3-6.5-6.6-6.5C77.8,66.8,75,69.5,74.6,73.3z"/>
	<path class="st1" d="M110.1,72v10.6h-1.7V72c0-3.1-1.8-5.2-5-5.2c-3.3,0-5.9,2.2-5.9,6.8v9h-1.7v-17h1.7v3.2
		c1.3-2.5,3.5-3.6,6.1-3.6C107.6,65.2,110.1,67.9,110.1,72z"/>
	<path class="st1" d="M133.3,58.8v23.8h-1.7v-3.9c-1.4,2.6-4,4.3-7.3,4.3c-4.9,0-8.8-3.8-8.8-8.9c0-5,3.9-8.9,8.8-8.9
		c3.3,0,5.9,1.7,7.3,4.3V58.8H133.3z M131.6,74.1c0-4-3.2-7.2-7.2-7.2c-4,0-7.2,3.2-7.2,7.2c0,4,3.2,7.2,7.2,7.2
		C128.4,81.3,131.6,78.1,131.6,74.1z"/>
	<path class="st1" d="M168.1,82.8l-2.8-2.9c-1.6,1.8-3.9,3-7.1,3c-4.7,0-7.8-2.6-7.8-6.7c0-3,1.6-5.6,4.7-6.9
		c-1.1-1.3-1.9-2.7-1.9-4.7c0-3.9,3.2-6.3,6.7-6.3c3,0,5.6,1.7,6.6,4.5l-1.5,0.9c-0.7-2.2-2.7-3.6-5.1-3.6c-2.8,0-4.9,1.8-4.9,4.5
		c0,1.9,1.1,3.3,2.6,4.8l7.4,7.8c0.7-1.3,1.2-2.9,1.4-4.7l1.6,0.9c-0.3,1.9-0.9,3.6-1.8,5.1l3.3,3.4L168.1,82.8z M164.2,78.7l-7.6-8
		c-3,1.1-4.1,3.4-4.1,5.6c0,3.1,2.3,5,5.8,5C160.6,81.2,162.7,80.4,164.2,78.7z"/>
	<path class="st1" d="M199.8,80.9v1.7h-13.7V58.8h13.5v1.7h-11.7v9.2h10.9v1.7h-10.9v9.5H199.8z"/>
	<path class="st1" d="M221.9,65.6v17h-1.7v-3.8c-1.4,2.5-4,4.2-7.3,4.2c-4.8,0-8.8-3.8-8.8-8.9c0-5,4-8.9,8.8-8.9
		c3.3,0,5.9,1.7,7.3,4.2v-3.8H221.9z M220.2,74.1c0-4-3.1-7.2-7.2-7.2c-4,0-7.2,3.2-7.2,7.2c0,4,3.2,7.2,7.2,7.2
		C217.1,81.3,220.2,78.1,220.2,74.1z"/>
	<path class="st1" d="M236.2,65.3V67c-2.9,0-5.7,1.8-5.7,6.2v9.5h-1.7v-17h1.7v3.3C231.7,66.2,233.9,65.3,236.2,65.3z"/>
	<path class="st1" d="M255.8,72v10.6H254V72c0-3.1-1.8-5.2-5-5.2c-3.3,0-5.9,2.2-5.9,6.8v9h-1.7v-17h1.7v3.2
		c1.3-2.5,3.5-3.6,6.1-3.6C253.2,65.2,255.8,67.9,255.8,72z"/>
</g>
</svg>
