<?xml version="1.0" encoding="utf-8"?>
<!-- Generator: Adobe Illustrator 27.9.0, SVG Export Plug-In . SVG Version: 6.00 Build 0)  -->
<svg version="1.1" id="Layer_1" xmlns="http://www.w3.org/2000/svg" xmlns:xlink="http://www.w3.org/1999/xlink" x="0px" y="0px"
	 viewBox="0 0 557 136" style="enable-background:new 0 0 557 136;" xml:space="preserve">
<style type="text/css">
	.st0{fill:#6633CC;}
</style>
<g>
	<g>
		<path class="st0" d="M195.3,48.1c-4.9,0-9.4,1.4-12.6,3.1V30.4c0-2.3-2-4.4-4.4-4.4h-11.5c-2.3,0-4.4,2-4.4,4.4v72.4
			c0,2.3,2,4.4,4.4,4.4h11.3c2.8,0,4.6-1.7,4.6-4.4V74.3c1.3-5,5-8.1,10-8.1c5.5,0,8.9,4,8.9,10.4v26.2c0,2.4,2,4.4,4.4,4.4h11
			c2.3,0,4.4-2,4.4-4.4v-26c0-7.7-2.1-14.7-6.1-19.7C210.8,51.2,203.8,48.1,195.3,48.1z"/>
		<path class="st0" d="M329.4,48.1c-8.9,0-15.2,4-18.4,6.7l-1-2.5l0,0c-0.7-1.8-2.1-2.7-4-2.7h-5.2c-2.4,0-4.4,2-4.4,4.4v49.1
			c0,2.3,2,4.4,4.4,4.4h10c1.4,0,5.2,0,5.2-4.4V73.4c1.1-2.6,4.6-7.1,11-7.1c3.1,0,8.4,1.3,8.4,9.7v26.9c0,2.4,2,4.4,4.4,4.4h11.1
			c2.3,0,4.4-2,4.4-4.4v-26c0-8-2.1-14.9-6-19.9C344.8,51.1,337.9,48.1,329.4,48.1z"/>
		<path class="st0" d="M414.9,90.3l-5.8-5l-0.1-0.1c-1.7-1.3-4.1-1-5.7,0.6c-0.2,0.2-0.3,0.3-0.5,0.5c-2.3,2.1-4.4,4.2-9.1,4.2
			c-6.4,0-11.4-5.3-11.4-12.1c0-6.6,5.2-12.1,11.5-12.1c2.9,0,5.9,1.4,8,3.7l0.1,0.1l0.1,0.1c0.9,0.8,3.4,2.5,5.8,0.4l6.2-5.9
			c1-0.7,1.7-1.8,1.9-3c0.2-1.2-0.1-2.4-0.9-3.3l0,0c-5.7-6.9-12.8-10.3-21.5-10.3c-7.8,0-15.6,3.2-21.4,8.8
			c-6,5.8-9.3,13.4-9.3,21.5c0,8.2,3.3,15.9,9.2,21.6c5.8,5.6,13.4,8.6,21.4,8.6c9.9,0,17.8-4.2,22.9-12.2
			C417.6,94.4,417.1,92,414.9,90.3z"/>
		<path class="st0" d="M457.6,48.1c-4.9,0-9.4,1.4-12.6,3.1V30.4c0-2.3-2-4.4-4.4-4.4h-11.5c-2.3,0-4.4,2-4.4,4.4v72.4
			c0,2.3,2,4.4,4.4,4.4h11.3c2.8,0,4.6-1.7,4.6-4.4V74.3c1.3-5,5-8.1,10-8.1c5.5,0,8.9,4,8.9,10.4v26.2c0,2.4,2,4.4,4.4,4.4h11
			c2.3,0,4.4-2,4.4-4.4v-26c0-7.7-2.1-14.7-6.1-19.7C473,51.2,466,48.1,457.6,48.1z"/>
		<path class="st0" d="M258.5,47.9c-7.9,0-15.3,3.2-20.9,9c-5.6,5.7-8.7,13.3-8.7,21.2c0,8,3.1,15.6,8.7,21.4c5.6,5.8,13,9,20.9,9
			c7.9,0,15.3-3.2,20.9-9c5.6-5.8,8.7-13.4,8.7-21.4c0-7.9-3.1-15.4-8.7-21.2C273.8,51.1,266.4,47.9,258.5,47.9z M269.7,78.1
			c0,6.7-5,12.2-11.2,12.2c-6.3,0-11.2-5.3-11.2-12.2c0-6.7,4.9-11.9,11.2-11.9C264.7,66.2,269.7,71.5,269.7,78.1z"/>
		<path class="st0" d="M542.3,56.9c-5.6-5.8-13.1-9-20.9-9s-15.3,3.2-20.9,9c-5.6,5.7-8.7,13.3-8.7,21.2c0,8,3.1,15.6,8.7,21.4
			c5.6,5.8,13,9,20.9,9c7.9,0,15.3-3.2,20.9-9c5.6-5.8,8.7-13.4,8.7-21.4C551,70.2,547.9,62.6,542.3,56.9z M532.6,78.1
			c0,6.7-5,12.2-11.2,12.2c-6.3,0-11.2-5.3-11.2-12.2c0-6.7,4.9-11.9,11.2-11.9C527.6,66.2,532.6,71.5,532.6,78.1z"/>
	</g>
	<g>
		<path class="st0" d="M68.4,59c6.6,0,13,0.7,19.3,2.1c5.5,1.2,10.8,2.9,15.8,5.1v-7.1c-5.3-2.1-10.9-3.7-16.6-4.9
			c-6-1.2-12.1-1.8-18.5-1.8S55.9,53.1,50,54.3c-5.7,1.1-11.3,2.8-16.6,4.9v7.1c5-2.2,10.3-3.9,15.8-5.1C55.4,59.7,61.8,59,68.4,59z
			"/>
		<path class="st0" d="M51,76.3c2.2,1.6,5.2,2.5,9.4,1.5l-12.6-5C48.7,74.1,49.7,75.4,51,76.3z"/>
		<path class="st0" d="M99.5,43.7v5.7l-4.2-1.5L99.5,43.7z M68.4,38.3l3.4,3.4l-3.4,3.4L65,41.7L68.4,38.3z M37.4,49.4v-5.7l4.2,4.2
			L37.4,49.4z"/>
		<path class="st0" d="M68.5,5.1C34.1,5.1,6.2,33,6.2,67.3c0,19.8,9.2,37.4,23.6,48.8v-9.1l3.5,2.1v9.5c1.8,1.2,3.7,2.4,5.7,3.5
			v-9.6l3.5,2.1v9.2c1.9,0.9,3.8,1.6,5.7,2.3V115l3.5-3v15.4c1.9,0.5,3.8,0.9,5.7,1.3v-21.6l3.5-3v25.1c1.9,0.2,3.8,0.4,5.7,0.4
			v-29.6v-0.7l1.8-1.5l1.8,1.5v1.3v29c1.9,0,3.8-0.2,5.7-0.4v-25.1l3.5,3v21.6c1.9-0.3,3.8-0.8,5.7-1.3V112l3.5,3v11.3
			c1.9-0.7,3.8-1.4,5.7-2.3v-9.2l3.5-2.1v9.6c2-1.1,3.9-2.2,5.7-3.5v-9.6l3.5-2.1v9.1c14.4-11.4,23.7-29.1,23.7-48.9
			C130.7,33,102.9,5.1,68.5,5.1z M107.1,102.4l-3.5,2.1l-5.7,3.4l-3.5,2.1l-2.4,1.4l-1.1,0.7l-0.9-0.8l-1.3-1.1l-3.5-3l-5.7-4.8
			l-3.5-3l-5.7-4.8l-1.8-1.5l-1.8,1.5L61,99.4l-3.5,3l-5.7,4.8l-3.5,3l-1.3,1.1l-0.9,0.8l-1.1-0.7l-2.4-1.4l-3.5-2.1l-5.7-3.4
			l-3.5-2.1l-9.3-9.5l12.8,7.5l12.3,7.4l16.2-13.7v-13c-5.7,1.6-9.9,0.3-12.9-1.9c-3.2-2.4-5-5.9-5.9-8.3v0l-0.4-0.2v28.5l14.9-8.1
			l-14.1,11.9l-4.3-2.6V67.7c-1.9,0.7-3.8,1.5-5.7,2.3v27L30,94.9V32.3v-4.9l3.1,3.8c1.8,2.2,4.1,4,6.7,5.2c2.5,1.2,5.3,1.8,8.3,1.8
			c4.6,0,8.8-1.6,12.1-4.2c2.5-2,4.5-4.7,5.8-7.7c1-2.4,1.8-4.4,2.7-6.9c0.9,2.7,1.8,4.9,2.9,7.3c1.3,2.8,3.2,5.3,5.6,7.3
			c3.3,2.6,7.5,4.2,12.1,4.2c3,0,5.7-0.7,8.3-1.8c2.6-1.2,4.9-3,6.7-5.2l3.1-3.8v4.9V95l-3.5,2.1V70c-1.9-0.8-3.8-1.6-5.7-2.3v32.8
			l-4.3,2.6L79.6,91.2l14.9,8.1V70.7l-0.4,0.2v0c-0.9,2.4-2.7,5.9-5.9,8.3c-3,2.3-7.2,3.5-12.9,1.9v13l16.2,13.7l12.3-7.4l12.9-7.5
			L107.1,102.4z"/>
		<path class="st0" d="M85.8,76.3c1.3-1,2.4-2.3,3.2-3.5l-12.6,5C80.6,78.9,83.7,78,85.8,76.3z"/>
		<path class="st0" d="M94.3,66.5c-2.4-0.8-4.9-1.4-7.3-2c-5.9-1.3-12.1-2-18.5-2c-6.4,0-12.6,0.7-18.5,2c-2.5,0.5-5,1.2-7.3,2v0.5
			l21.7,8.7l1.1,0.5v1.2v13.9l3.1-2.7l3.1,2.7V77.2v-1.2l1.1-0.5l21.7-8.7V66.5z"/>
	</g>
</g>
</svg>
