<?xml version="1.0" encoding="utf-8"?>
<!-- Generator: Adobe Illustrator 27.9.0, SVG Export Plug-In . SVG Version: 6.00 Build 0)  -->
<svg version="1.1" id="Layer_1" xmlns="http://www.w3.org/2000/svg" xmlns:xlink="http://www.w3.org/1999/xlink" x="0px" y="0px"
	 viewBox="0 0 21.8 23.4" style="enable-background:new 0 0 21.8 23.4;" xml:space="preserve">
<style type="text/css">
	.st0{fill:#8735FF;}
</style>
<g>
	<path class="st0" d="M17.9,1.5c-0.3-0.3-0.8-0.3-1.1,0s-0.3,0.8,0,1.1c1.9,1.9,3,4.5,3,7.3c0,0.4,0.3,0.7,0.7,0.7
		c0.4,0,0.8-0.3,0.9-0.7C21.4,6.6,20.2,3.7,17.9,1.5z"/>
	<path class="st0" d="M1.7,9.8c0-2.7,1.1-5.3,3-7.3C5,2.2,5,1.7,4.7,1.5s-0.8-0.3-1.1,0C1.4,3.7,0.1,6.7,0.1,9.8
		c0,0.4,0.3,0.7,0.7,0.7S1.6,10.2,1.7,9.8z"/>
	<path class="st0" d="M19.9,17.3c-1.5-1.3-2.3-3-2.3-4.9V9.7c0-3.5-2.8-6.4-6.2-6.6V0.9c0-0.4-0.3-0.7-0.7-0.7
		c-0.4,0-0.7,0.3-0.7,0.7V3C6.6,3.4,4,6.3,4,9.7v2.7c0,1.9-0.9,3.7-2.3,4.9c-0.4,0.3-0.6,0.8-0.6,1.3c0,0.9,0.7,1.6,1.6,1.6h4.4
		c0.3,1.6,1.7,2.9,3.5,2.9c1.8,0,3.2-1.2,3.4-2.9h4.6c1,0,1.7-0.7,1.8-1.6C20.5,18.1,20.3,17.6,19.9,17.3z M10.6,21.7
		c-0.9,0-1.7-0.6-2-1.5h4C12.3,21.1,11.5,21.7,10.6,21.7z M18.5,18.9H2.7c-0.1,0-0.2-0.1-0.2-0.2s0.1-0.2,0.1-0.2
		c1.7-1.5,2.8-3.7,2.8-6V9.8c0-3,2.4-5.3,5.3-5.3S16,6.8,16,9.7v2.7c0,2.3,1,4.5,2.6,6.1c0,0,0.1,0.1,0.1,0.2S18.6,18.9,18.5,18.9z"
		/>
</g>
</svg>
