<?xml version="1.0" encoding="utf-8"?>
<!-- Generator: Adobe Illustrator 27.9.0, SVG Export Plug-In . SVG Version: 6.00 Build 0)  -->
<svg version="1.1" xmlns="http://www.w3.org/2000/svg" xmlns:xlink="http://www.w3.org/1999/xlink" x="0px" y="0px"
	 viewBox="0 0 549 44" style="enable-background:new 0 0 549 44;" xml:space="preserve">
<style type="text/css">
	.st0{display:none;}
	.st1{display:inline;fill:none;stroke:#8735FF;stroke-width:0.5;stroke-miterlimit:10;}
	.st2{display:inline;}
	.st3{fill:#8735FF;}
	.st4{fill:#FFFFFF;stroke:#8735FF;stroke-width:0.5;stroke-miterlimit:10;}
</style>
<g id="Normal" class="st0">
	<path class="st1" d="M540.2,43.3H6.5c-2.9,0-5.3-2.4-5.3-5.3V6.1c0-2.9,2.4-5.3,5.3-5.3h533.7c2.9,0,5.3,2.4,5.3,5.3V38
		C545.5,40.9,543.1,43.3,540.2,43.3z"/>
	<g class="st2">
		<path class="st3" d="M37.1,20.5c0.1-0.2-0.1-0.5-0.3-0.3l-9.7,7.4c-0.1,0-0.1,0.2-0.1,0.3l2.7,4.7c0.1,0.2,0.3,0.2,0.4,0l4.4-7.6
			L37.1,20.5z"/>
		<path class="st3" d="M28.3,17h-7.2c-0.2,0-0.3,0.2-0.2,0.4l4.4,7.6l0,0c0.1,0.2,0.4,0.2,0.4,0l2.8-7.6C28.6,17.2,28.5,17,28.3,17z
			"/>
		<path class="st3" d="M29.9,15.3H40c-2.3-3.2-6-5.2-10.1-5.2s-7.9,2.1-10.1,5.2H29.9z"/>
		<path class="st3" d="M41.1,17L36,25.8l-5.2,9.1c6.5-0.5,11.6-5.8,11.6-12.4C42.4,20.5,41.9,18.7,41.1,17z"/>
		<path class="st3" d="M23.8,25.9L18.7,17c-0.8,1.6-1.3,3.5-1.3,5.5c0,6.6,5.1,12,11.6,12.4L23.8,25.9z"/>
		<path class="st3" d="M37.3,17h-6.6c-0.1,0-0.2,0.1-0.2,0.2l-2.6,7c-0.1,0.2,0.2,0.4,0.4,0.3l9.2-7C37.7,17.3,37.6,17,37.3,17z"/>
	</g>
</g>
<g id="Hover">
	<path class="st4" d="M540.2,43.3H6.5c-2.9,0-5.3-2.4-5.3-5.3V6.1c0-2.9,2.4-5.3,5.3-5.3h533.7c2.9,0,5.3,2.4,5.3,5.3V38
		C545.5,40.9,543.1,43.3,540.2,43.3z"/>
	<g>
		<path class="st3" d="M37.1,20.5c0.1-0.2-0.1-0.5-0.3-0.3l-9.7,7.4c-0.1,0-0.1,0.2-0.1,0.3l2.7,4.7c0.1,0.2,0.3,0.2,0.4,0l4.4-7.6
			L37.1,20.5z"/>
		<path class="st3" d="M28.3,17h-7.2c-0.2,0-0.3,0.2-0.2,0.4l4.4,7.6l0,0c0.1,0.2,0.4,0.2,0.4,0l2.8-7.6C28.6,17.2,28.5,17,28.3,17z
			"/>
		<path class="st3" d="M29.9,15.3H40c-2.3-3.2-6-5.2-10.1-5.2s-7.9,2.1-10.1,5.2H29.9z"/>
		<path class="st3" d="M41.1,17L36,25.8l-5.2,9.1c6.5-0.5,11.6-5.8,11.6-12.4C42.4,20.5,41.9,18.7,41.1,17z"/>
		<path class="st3" d="M23.8,25.9L18.7,17c-0.8,1.6-1.3,3.5-1.3,5.5c0,6.6,5.1,12,11.6,12.4L23.8,25.9z"/>
		<path class="st3" d="M37.3,17h-6.6c-0.1,0-0.2,0.1-0.2,0.2l-2.6,7c-0.1,0.2,0.2,0.4,0.4,0.3l9.2-7C37.7,17.3,37.6,17,37.3,17z"/>
	</g>
</g>
</svg>
