<?xml version="1.0" encoding="utf-8"?>
<!-- Generator: Adobe Illustrator 27.9.0, SVG Export Plug-In . SVG Version: 6.00 Build 0)  -->
<svg version="1.1" id="Layer_1" xmlns="http://www.w3.org/2000/svg" xmlns:xlink="http://www.w3.org/1999/xlink" x="0px" y="0px"
	 viewBox="0 0 59 44" style="enable-background:new 0 0 59 44;" xml:space="preserve">
<style type="text/css">
	.st0{fill:none;stroke:#8735FF;stroke-width:0.5;stroke-miterlimit:10;}
	.st1{fill:#8735FF;}
	.st2{fill:#FFFFFF;stroke:#8735FF;stroke-width:0.5;stroke-miterlimit:10;}
	.st3{fill:#8735FF;stroke:#8735FF;stroke-width:0.5;stroke-miterlimit:10;}
	.st4{fill:#FFFFFF;}
</style>
<g id="Normal">
	<path class="st0" d="M52.8,43.3H6.2c-2.9,0-5.3-2.4-5.3-5.3V6.1c0-2.9,2.4-5.3,5.3-5.3h46.5c2.9,0,5.3,2.4,5.3,5.3V38
		C58.1,40.9,55.7,43.3,52.8,43.3z"/>
	<path class="st1" d="M37.7,15h-2.9c-0.3-2.7-2.6-4.6-5.3-4.6s-4.9,2-5.3,4.6h-2.9c-1,0-1.9,0.8-1.9,1.9v13.9c0,1,0.8,1.9,1.9,1.9
		h16.2c1,0,1.9-0.8,1.9-1.9v-14C39.6,15.8,38.8,15,37.7,15z M29.6,11.6L29.6,11.6c0.2,0,0.4,0,0.5,0.1c1.8,0.2,3.2,1.6,3.5,3.4h-8.1
		C25.8,13.1,27.5,11.6,29.6,11.6z M38.2,31c0,0.3-0.2,0.5-0.5,0.5H21.1c-0.3,0-0.5-0.2-0.5-0.5V16.7c0-0.3,0.2-0.5,0.5-0.5h2.7H24
		h0.2h1h0.2l0,0h7.8h0.2l0,0h1h0.2h0.9h2.1c0.3,0,0.5,0.2,0.5,0.5L38.2,31L38.2,31z"/>
</g>
<g id="Hover">
	<path class="st2" d="M52.8,43.3H6.2c-2.9,0-5.3-2.4-5.3-5.3V6.1c0-2.9,2.4-5.3,5.3-5.3h46.5c2.9,0,5.3,2.4,5.3,5.3V38
		C58.1,40.9,55.7,43.3,52.8,43.3z"/>
	<path class="st1" d="M37.7,15h-2.9c-0.3-2.7-2.6-4.6-5.3-4.6s-4.9,2-5.3,4.6h-2.9c-1,0-1.9,0.8-1.9,1.9v13.9c0,1,0.8,1.9,1.9,1.9
		h16.2c1,0,1.9-0.8,1.9-1.9v-14C39.6,15.8,38.8,15,37.7,15z M29.6,11.6L29.6,11.6c0.2,0,0.4,0,0.5,0.1c1.8,0.2,3.2,1.6,3.5,3.4h-8.1
		C25.8,13.1,27.5,11.6,29.6,11.6z M38.2,31c0,0.3-0.2,0.5-0.5,0.5H21.1c-0.3,0-0.5-0.2-0.5-0.5V16.7c0-0.3,0.2-0.5,0.5-0.5h2.7H24
		h0.2h1h0.2l0,0h7.8h0.2l0,0h1h0.2h0.9h2.1c0.3,0,0.5,0.2,0.5,0.5L38.2,31L38.2,31z"/>
</g>
<g id="Active">
	<path class="st3" d="M52.8,43.3H6.2c-2.9,0-5.3-2.4-5.3-5.3V6.1c0-2.9,2.4-5.3,5.3-5.3h46.5c2.9,0,5.3,2.4,5.3,5.3V38
		C58.1,40.9,55.7,43.3,52.8,43.3z"/>
	<path class="st4" d="M37.7,15h-2.9c-0.3-2.7-2.6-4.6-5.3-4.6s-4.9,2-5.3,4.6h-2.9c-1,0-1.9,0.8-1.9,1.9v13.9c0,1,0.8,1.9,1.9,1.9
		h16.2c1,0,1.9-0.8,1.9-1.9v-14C39.6,15.8,38.8,15,37.7,15z M29.6,11.6L29.6,11.6c0.2,0,0.4,0,0.5,0.1c1.8,0.2,3.2,1.6,3.5,3.4h-8.1
		C25.8,13.1,27.5,11.6,29.6,11.6z M38.2,31c0,0.3-0.2,0.5-0.5,0.5H21.1c-0.3,0-0.5-0.2-0.5-0.5V16.7c0-0.3,0.2-0.5,0.5-0.5h2.7H24
		h0.2h1h0.2l0,0h7.8h0.2l0,0h1h0.2h0.9h2.1c0.3,0,0.5,0.2,0.5,0.5L38.2,31L38.2,31z"/>
</g>
</svg>
