<?xml version="1.0" encoding="utf-8"?>
<!-- Generator: Adobe Illustrator 27.9.0, SVG Export Plug-In . SVG Version: 6.00 Build 0)  -->
<svg version="1.1" id="Layer_1" xmlns="http://www.w3.org/2000/svg" xmlns:xlink="http://www.w3.org/1999/xlink" x="0px" y="0px"
	 viewBox="0 0 24 24" style="enable-background:new 0 0 24 24;" xml:space="preserve">
<style type="text/css">
	.st0{fill:#8735FF;}
</style>
<g>
	<path class="st0" d="M4.1,10.5c0.1,0,0.2,0.1,0.2,0.2l0.3,0.7c0,0.1,0.1,0.1,0.1,0L5,10.7c0-0.1,0.1-0.2,0.2-0.2l0.7-0.3
		c0.1,0,0.1-0.1,0-0.1L5.2,9.8C5.1,9.8,5,9.7,5,9.6L4.7,8.9c0-0.1-0.1-0.1-0.1,0L4.3,9.6c0,0.1-0.1,0.2-0.2,0.2l-0.7,0.3
		c-0.1,0-0.1,0.1,0,0.1L4.1,10.5z"/>
	<path class="st0" d="M16.6,19c-0.1,0-0.2-0.1-0.2-0.2l-0.2-0.5c0-0.1-0.1-0.1-0.1,0l-0.2,0.5c0,0.1-0.1,0.2-0.2,0.2l-0.5,0.2
		c-0.1,0-0.1,0.1,0,0.1l0.5,0.2c0.1,0,0.2,0.1,0.2,0.2l0.2,0.5c0,0.1,0.1,0.1,0.1,0l0.2-0.5c0-0.1,0.1-0.2,0.2-0.2l0.5-0.2
		c0.1,0,0.1-0.1,0-0.1L16.6,19z"/>
	<path class="st0" d="M7.3,8.7c0.1,0,0.2,0.1,0.2,0.2l0.2,0.5c0,0.1,0.1,0.1,0.1,0L8,8.8c0-0.1,0.1-0.2,0.2-0.2l0.5-0.2
		c0.1,0,0.1-0.1,0-0.1L8.2,8.1C8.2,8.1,8.1,8,8,7.9L7.8,7.4c0-0.1-0.1-0.1-0.1,0L7.5,7.9c0,0.1-0.1,0.2-0.2,0.2L6.8,8.3
		c-0.1,0-0.1,0.1,0,0.1L7.3,8.7z"/>
	<path class="st0" d="M15.1,12.1l-3.6-2.6c-4.7,4.4-8.6,4-9.6,4.2c-0.1,0-0.2,0.1-0.2,0.2c0,0.8,0.8,2.9,1.4,2.9
		c0.7,0,2.5-1.2,2.5-1.2s-1.2,1-1.2,1.8c0,1.1,1.4,1.7,1.4,1.7c0.2-0.8,1-1.8,1-1.8S6.3,19.4,6.7,20c0.6,0.9,2.3,1.5,3,1.7
		c0.2,0.1,0.3-0.1,0.3-0.2c-0.3-1.9,1.2-3.2,1.2-3.2s-1.1,3,0.3,4c1.2,0.9,2.4,0.4,2.8,0.3c0.1,0,0.1-0.1,0.1-0.2
		C14.1,21.3,12,17.7,15.1,12.1z"/>
	<path class="st0" d="M20.7,0.6c-0.4-0.3-0.9-0.2-1.2,0.2l-4.1,6.1c-0.9-0.3-2,0-2.6,0.8L12,8.9l3.7,2.6l0.9-1.2
		c0.6-0.8,0.6-1.9,0-2.7l4.5-5.8c0,0,0,0,0,0C21.2,1.4,21.1,0.8,20.7,0.6z"/>
</g>
</svg>
