<?xml version="1.0" encoding="utf-8"?>
<!-- Generator: Adobe Illustrator 27.9.0, SVG Export Plug-In . SVG Version: 6.00 Build 0)  -->
<svg version="1.1" id="Layer_1" xmlns="http://www.w3.org/2000/svg" xmlns:xlink="http://www.w3.org/1999/xlink" x="0px" y="0px"
	 viewBox="0 0 23.6 23.4" style="enable-background:new 0 0 23.6 23.4;" xml:space="preserve">
<style type="text/css">
	.st0{fill:#8735FF;}
</style>
<g>
	<g>
		<path class="st0" d="M11.8,23.2C5.5,23.2,0.3,18,0.3,11.7S5.5,0.3,11.8,0.3s11.5,5.1,11.5,11.4S18.1,23.2,11.8,23.2z M11.8,1.2
			C6,1.2,1.2,5.9,1.2,11.8s4.7,10.6,10.6,10.6s10.6-4.7,10.6-10.6S17.6,1.2,11.8,1.2z"/>
	</g>
	<g>
		<path class="st0" d="M15.3,11.7c0-2-1.7-3.5-3.5-3.5c-2,0-3.5,1.7-3.5,3.5c0,2,1.7,3.5,3.5,3.5C13.8,15.3,15.3,13.7,15.3,11.7z"/>
		<path class="st0" d="M16.5,11.7c0,0.3,0.3,0.7,0.7,0.7H19c0.3,0,0.7-0.3,0.7-0.7c0-0.3-0.3-0.7-0.7-0.7h-1.8
			C16.9,11.1,16.5,11.4,16.5,11.7z"/>
		<path class="st0" d="M7,11.7C7,11.4,6.7,11,6.4,11H4.6c-0.3,0-0.7,0.3-0.7,0.7c0,0.3,0.3,0.7,0.7,0.7h1.8C6.7,12.4,7,12.1,7,11.7z
			"/>
		<path class="st0" d="M12.4,18.9v-1.8c0-0.3-0.3-0.7-0.7-0.7c-0.3,0-0.7,0.3-0.7,0.7v1.8c0,0.3,0.3,0.7,0.7,0.7
			C12.1,19.5,12.4,19.2,12.4,18.9z"/>
		<path class="st0" d="M11.8,6.9c0.3,0,0.7-0.3,0.7-0.7V4.5c0-0.3-0.3-0.7-0.7-0.7c-0.3,0-0.7,0.3-0.7,0.7v1.8
			C11.1,6.7,11.5,6.9,11.8,6.9z"/>
		<path class="st0" d="M8.4,16c0.2-0.2,0.2-0.7,0-0.9c-0.2-0.2-0.7-0.2-0.9,0l-1.2,1.2C6.1,16.4,6,16.7,6,16.8s0.1,0.3,0.2,0.4
			c0.2,0.2,0.7,0.2,0.9,0L8.4,16z"/>
		<path class="st0" d="M15.1,7.5c-0.1,0.1-0.2,0.3-0.2,0.4s0.1,0.3,0.2,0.4c0.2,0.2,0.7,0.2,0.9,0l1.2-1.2c0.2-0.2,0.2-0.7,0-0.9
			c-0.2-0.2-0.7-0.2-0.9,0L15.1,7.5z"/>
		<path class="st0" d="M8.4,7.5L7.1,6.3c-0.2-0.2-0.7-0.2-0.9,0C6.1,6.4,6,6.6,6,6.7C6,6.8,6.1,7,6.3,7.2l1.2,1.2
			c0.2,0.2,0.7,0.2,0.9,0C8.6,8.2,8.6,7.7,8.4,7.5z"/>
		<path class="st0" d="M15,15.6c0,0.1,0.1,0.3,0.2,0.4l1.2,1.2c0.2,0.2,0.7,0.2,0.9,0c0.2-0.2,0.2-0.7,0-0.9l-1.2-1.2
			c-0.2-0.2-0.7-0.2-0.9,0C15,15.2,15,15.4,15,15.6z"/>
	</g>
</g>
</svg>
