<?xml version="1.0" encoding="utf-8"?>
<!-- Generator: Adobe Illustrator 27.9.0, SVG Export Plug-In . SVG Version: 6.00 Build 0)  -->
<svg version="1.1" baseProfile="tiny" id="Layer_1" xmlns="http://www.w3.org/2000/svg" xmlns:xlink="http://www.w3.org/1999/xlink"
	 x="0px" y="0px" viewBox="0 0 36 33" overflow="visible" xml:space="preserve">
<g>
	<path fill="#8735FF" d="M25.9,13.2l-11.1,8.4c-0.1,0.1-0.1,0.2-0.1,0.4l3.1,5.4c0.1,0.2,0.4,0.2,0.5,0l5-8.7l3-5.1
		C26.5,13.3,26.2,13.1,25.9,13.2z"/>
	<path fill="#8735FF" d="M16.3,9.6H8.1c-0.2,0-0.3,0.2-0.2,0.4l5,8.7l0,0c0.1,0.2,0.4,0.2,0.5,0l3.2-8.7C16.6,9.8,16.5,9.6,16.3,9.6
		z"/>
	<path fill="#8735FF" d="M26.6,9.6H19c-0.1,0-0.2,0.1-0.2,0.2l-2.9,8c-0.1,0.2,0.2,0.5,0.4,0.3l10.5-8C26.9,10,26.8,9.6,26.6,9.6z"
		/>
	<path fill="#8735FF" d="M28.9,25c-3.6,4.8-9.9,6.8-15.6,5c-6.6-2.1-10.8-8.8-9.8-15.6l1.3,0.4h0.1c0.2,0,0.4-0.1,0.6-0.3
		c0.1-0.1,0.2-0.4,0.1-0.8c-0.2-1.1-0.5-2.2-0.8-3.4C4.7,9.9,4.5,9.6,4.2,9.6c-0.3-0.1-0.6,0-0.8,0.2c-0.9,0.8-1.8,1.6-2.6,2.4
		c-0.3,0.2-0.3,0.5-0.3,0.7s0.1,0.4,0.3,0.6L2.3,14C1.1,21.6,5.7,29,13,31.3c0.3,0.1,0.6,0.2,0.9,0.2c1.3,0.3,2.5,0.5,3.8,0.5
		c4.8,0,9.4-2.2,12.4-6.1l0.1-0.1l-1-0.8H28.9z"/>
	<path fill="#8735FF" d="M34.5,19.1L33,18.6c1.1-7.5-3.5-14.8-10.7-17.1C16.2-0.4,9.4,1.7,5.4,6.6L5.3,6.8l1,0.8l0.1-0.1
		C10,3,16.2,1.1,21.8,2.8l0,0c6.5,2.1,10.7,8.6,9.9,15.4l-1.3-0.4h-0.1c-0.2,0-0.4,0.1-0.6,0.3c-0.1,0.1-0.2,0.4-0.1,0.8
		c0.2,1.1,0.5,2.2,0.8,3.4c0.1,0.4,0.3,0.6,0.6,0.7l0,0c0.1,0,0.1,0,0.2,0c0.2,0,0.4-0.1,0.6-0.3c0.9-0.8,1.8-1.6,2.6-2.4
		c0.3-0.2,0.3-0.5,0.3-0.7C34.8,19.5,34.7,19.3,34.5,19.1z"/>
</g>
</svg>
